<mxfile host="Electron" agent="Mozilla/5.0 (Windows NT 10.0; Win64; x64) AppleWebKit/537.36 (KHTML, like Gecko) draw.io/24.7.17 Chrome/128.0.6613.36 Electron/32.0.1 Safari/537.36" version="24.7.17">
  <diagram name="Page-1" id="rIIsTFOx7jiPmPPuwSl4">
    <mxGraphModel dx="1036" dy="614" grid="1" gridSize="10" guides="1" tooltips="1" connect="1" arrows="1" fold="1" page="1" pageScale="1" pageWidth="850" pageHeight="1100" math="0" shadow="0">
      <root>
        <mxCell id="0" />
        <mxCell id="1" parent="0" />
        <mxCell id="6i3nIcgut5pt7LBlZdHJ-1" value="&lt;font style=&quot;font-size: 19px;&quot;&gt;&lt;b style=&quot;&quot;&gt;High Level Architecture&lt;/b&gt;&lt;/font&gt;" style="text;html=1;align=center;verticalAlign=middle;resizable=0;points=[];autosize=1;strokeColor=none;fillColor=none;" parent="1" vertex="1">
          <mxGeometry x="10" y="20" width="240" height="40" as="geometry" />
        </mxCell>
        <mxCell id="6i3nIcgut5pt7LBlZdHJ-2" value="" style="rounded=0;whiteSpace=wrap;html=1;fillColor=none;dashed=1;strokeColor=#828282;" parent="1" vertex="1">
          <mxGeometry x="50" y="120" width="130" height="520" as="geometry" />
        </mxCell>
        <mxCell id="6i3nIcgut5pt7LBlZdHJ-3" value="&lt;font style=&quot;font-size: 19px;&quot;&gt;Sources&lt;/font&gt;" style="rounded=0;whiteSpace=wrap;html=1;strokeColor=none;" parent="1" vertex="1">
          <mxGeometry x="65" y="130" width="90" height="30" as="geometry" />
        </mxCell>
        <mxCell id="6i3nIcgut5pt7LBlZdHJ-5" value="" style="rounded=0;whiteSpace=wrap;html=1;fillColor=none;dashed=1;strokeColor=#828282;" parent="1" vertex="1">
          <mxGeometry x="210" y="120" width="470" height="520" as="geometry" />
        </mxCell>
        <mxCell id="6i3nIcgut5pt7LBlZdHJ-6" value="&lt;font style=&quot;font-size: 23px;&quot;&gt;Data Warehouse&lt;/font&gt;" style="rounded=0;whiteSpace=wrap;html=1;strokeColor=none;fontSize=24;" parent="1" vertex="1">
          <mxGeometry x="340" y="100" width="235" height="30" as="geometry" />
        </mxCell>
        <mxCell id="6i3nIcgut5pt7LBlZdHJ-7" value="" style="rounded=0;whiteSpace=wrap;html=1;fillColor=none;dashed=1;strokeColor=#828282;" parent="1" vertex="1">
          <mxGeometry x="700" y="120" width="120" height="520" as="geometry" />
        </mxCell>
        <mxCell id="6i3nIcgut5pt7LBlZdHJ-8" value="&lt;font style=&quot;font-size: 19px;&quot;&gt;Consume&lt;/font&gt;" style="rounded=0;whiteSpace=wrap;html=1;strokeColor=none;" parent="1" vertex="1">
          <mxGeometry x="725" y="130" width="90" height="30" as="geometry" />
        </mxCell>
        <mxCell id="6i3nIcgut5pt7LBlZdHJ-9" value="Bronze layer" style="rounded=0;whiteSpace=wrap;html=1;fontStyle=1;fontSize=16;fillColor=#ffe6cc;strokeColor=#d79b00;" parent="1" vertex="1">
          <mxGeometry x="230" y="160" width="130" height="60" as="geometry" />
        </mxCell>
        <mxCell id="6i3nIcgut5pt7LBlZdHJ-11" value="" style="rounded=0;whiteSpace=wrap;html=1;fontStyle=1;fontSize=16;fillColor=none;strokeColor=#d79b00;" parent="1" vertex="1">
          <mxGeometry x="230" y="230" width="130" height="400" as="geometry" />
        </mxCell>
        <mxCell id="6i3nIcgut5pt7LBlZdHJ-12" value="Silver layer" style="rounded=0;whiteSpace=wrap;html=1;fontStyle=1;fontSize=16;fillColor=#f5f5f5;strokeColor=#666666;fontColor=#333333;" parent="1" vertex="1">
          <mxGeometry x="390" y="160" width="130" height="60" as="geometry" />
        </mxCell>
        <mxCell id="6i3nIcgut5pt7LBlZdHJ-13" value="" style="rounded=0;whiteSpace=wrap;html=1;fontStyle=1;fontSize=16;fillColor=none;strokeColor=#666666;fontColor=#333333;" parent="1" vertex="1">
          <mxGeometry x="390" y="230" width="130" height="400" as="geometry" />
        </mxCell>
        <mxCell id="6i3nIcgut5pt7LBlZdHJ-14" value="Gold layer" style="rounded=0;whiteSpace=wrap;html=1;fontStyle=1;fontSize=16;fillColor=#fff2cc;strokeColor=#d6b656;" parent="1" vertex="1">
          <mxGeometry x="540" y="160" width="130" height="60" as="geometry" />
        </mxCell>
        <mxCell id="6i3nIcgut5pt7LBlZdHJ-15" value="" style="rounded=0;whiteSpace=wrap;html=1;fontStyle=1;fontSize=16;fillColor=none;strokeColor=#d6b656;" parent="1" vertex="1">
          <mxGeometry x="540" y="230" width="130" height="400" as="geometry" />
        </mxCell>
        <mxCell id="6i3nIcgut5pt7LBlZdHJ-16" value="" style="image;aspect=fixed;html=1;points=[];align=center;fontSize=12;image=img/lib/azure2/general/Folder_Blank.svg;" parent="1" vertex="1">
          <mxGeometry x="95" y="210" width="55" height="44.64" as="geometry" />
        </mxCell>
        <mxCell id="6i3nIcgut5pt7LBlZdHJ-17" value="" style="image;aspect=fixed;html=1;points=[];align=center;fontSize=12;image=img/lib/azure2/general/File.svg;" parent="1" vertex="1">
          <mxGeometry x="125.65" y="230" width="24.35" height="30" as="geometry" />
        </mxCell>
        <mxCell id="6i3nIcgut5pt7LBlZdHJ-18" value="&lt;b&gt;CRM&lt;/b&gt;" style="text;html=1;align=center;verticalAlign=middle;whiteSpace=wrap;rounded=0;" parent="1" vertex="1">
          <mxGeometry x="92.5" y="270" width="60" height="30" as="geometry" />
        </mxCell>
        <mxCell id="6i3nIcgut5pt7LBlZdHJ-22" value="" style="image;aspect=fixed;html=1;points=[];align=center;fontSize=12;image=img/lib/azure2/general/Folder_Blank.svg;" parent="1" vertex="1">
          <mxGeometry x="92.5" y="310" width="55" height="44.64" as="geometry" />
        </mxCell>
        <mxCell id="6i3nIcgut5pt7LBlZdHJ-23" value="" style="image;aspect=fixed;html=1;points=[];align=center;fontSize=12;image=img/lib/azure2/general/File.svg;" parent="1" vertex="1">
          <mxGeometry x="123.15" y="330" width="24.35" height="30" as="geometry" />
        </mxCell>
        <mxCell id="6i3nIcgut5pt7LBlZdHJ-24" value="&lt;b&gt;ERP&lt;/b&gt;" style="text;html=1;align=center;verticalAlign=middle;whiteSpace=wrap;rounded=0;" parent="1" vertex="1">
          <mxGeometry x="92.5" y="370" width="60" height="30" as="geometry" />
        </mxCell>
        <mxCell id="6i3nIcgut5pt7LBlZdHJ-25" value="" style="endArrow=none;html=1;rounded=0;fillColor=#f5f5f5;strokeColor=#666666;" parent="1" edge="1">
          <mxGeometry width="50" height="50" relative="1" as="geometry">
            <mxPoint x="65" y="440" as="sourcePoint" />
            <mxPoint x="160" y="440" as="targetPoint" />
          </mxGeometry>
        </mxCell>
        <mxCell id="6i3nIcgut5pt7LBlZdHJ-26" value="&lt;b&gt;&lt;font style=&quot;font-size: 12px;&quot;&gt;Object type :csv file&lt;/font&gt;&lt;/b&gt;&lt;div&gt;&lt;b&gt;&lt;br&gt;&lt;/b&gt;&lt;div&gt;&lt;b&gt;&lt;font style=&quot;font-size: 11px;&quot;&gt;interface :file in folder&lt;/font&gt;&lt;/b&gt;&lt;/div&gt;&lt;/div&gt;" style="text;html=1;align=center;verticalAlign=middle;whiteSpace=wrap;rounded=0;" parent="1" vertex="1">
          <mxGeometry x="55" y="470" width="120" height="30" as="geometry" />
        </mxCell>
        <mxCell id="6i3nIcgut5pt7LBlZdHJ-27" value="" style="html=1;verticalLabelPosition=bottom;align=center;labelBackgroundColor=#ffffff;verticalAlign=top;strokeWidth=2;strokeColor=#d79b00;shadow=0;dashed=0;shape=mxgraph.ios7.icons.data;fillColor=#ffe6cc;" parent="1" vertex="1">
          <mxGeometry x="264.5" y="300.09000000000003" width="51" height="64.46" as="geometry" />
        </mxCell>
        <mxCell id="6i3nIcgut5pt7LBlZdHJ-28" value="" style="html=1;verticalLabelPosition=bottom;align=center;labelBackgroundColor=#ffffff;verticalAlign=top;strokeWidth=2;strokeColor=#666666;shadow=0;dashed=0;shape=mxgraph.ios7.icons.data;fillColor=#f5f5f5;fontColor=#333333;" parent="1" vertex="1">
          <mxGeometry x="434.5" y="295.54" width="51" height="64.46" as="geometry" />
        </mxCell>
        <mxCell id="6i3nIcgut5pt7LBlZdHJ-29" value="" style="html=1;verticalLabelPosition=bottom;align=center;labelBackgroundColor=#ffffff;verticalAlign=top;strokeWidth=2;strokeColor=#d6b656;shadow=0;dashed=0;shape=mxgraph.ios7.icons.data;fillColor=#fff2cc;" parent="1" vertex="1">
          <mxGeometry x="590" y="295.54" width="51" height="64.46" as="geometry" />
        </mxCell>
        <mxCell id="6i3nIcgut5pt7LBlZdHJ-30" value="" style="shape=flexArrow;endArrow=classic;html=1;rounded=0;fillColor=#b1ddf0;strokeColor=#10739e;" parent="1" edge="1">
          <mxGeometry width="50" height="50" relative="1" as="geometry">
            <mxPoint x="180" y="340" as="sourcePoint" />
            <mxPoint x="250" y="340" as="targetPoint" />
          </mxGeometry>
        </mxCell>
        <mxCell id="6i3nIcgut5pt7LBlZdHJ-31" value="" style="shape=flexArrow;endArrow=classic;html=1;rounded=0;fillColor=#b1ddf0;strokeColor=#10739e;" parent="1" edge="1">
          <mxGeometry width="50" height="50" relative="1" as="geometry">
            <mxPoint x="330" y="340" as="sourcePoint" />
            <mxPoint x="400" y="340" as="targetPoint" />
          </mxGeometry>
        </mxCell>
        <mxCell id="6i3nIcgut5pt7LBlZdHJ-32" value="" style="shape=flexArrow;endArrow=classic;html=1;rounded=0;fillColor=#b1ddf0;strokeColor=#10739e;" parent="1" edge="1">
          <mxGeometry width="50" height="50" relative="1" as="geometry">
            <mxPoint x="500" y="344.5" as="sourcePoint" />
            <mxPoint x="570" y="344.5" as="targetPoint" />
          </mxGeometry>
        </mxCell>
        <mxCell id="6i3nIcgut5pt7LBlZdHJ-33" value="" style="shape=flexArrow;endArrow=classic;html=1;rounded=0;fillColor=#b1ddf0;strokeColor=#10739e;" parent="1" edge="1">
          <mxGeometry width="50" height="50" relative="1" as="geometry">
            <mxPoint x="655" y="344.5" as="sourcePoint" />
            <mxPoint x="725" y="344.5" as="targetPoint" />
          </mxGeometry>
        </mxCell>
        <mxCell id="6i3nIcgut5pt7LBlZdHJ-34" value="&lt;span style=&quot;font-size: 13px;&quot;&gt;Original Data&lt;/span&gt;" style="text;html=1;align=center;verticalAlign=middle;whiteSpace=wrap;rounded=0;" parent="1" vertex="1">
          <mxGeometry x="250" y="380" width="80" height="30" as="geometry" />
        </mxCell>
        <mxCell id="6i3nIcgut5pt7LBlZdHJ-36" value="&lt;span style=&quot;font-size: 13px;&quot;&gt;Cleaning data&lt;/span&gt;" style="text;html=1;align=center;verticalAlign=middle;whiteSpace=wrap;rounded=0;" parent="1" vertex="1">
          <mxGeometry x="412.5" y="380" width="95" height="30" as="geometry" />
        </mxCell>
        <mxCell id="6i3nIcgut5pt7LBlZdHJ-37" value="&lt;span style=&quot;font-size: 13px;&quot;&gt;Business Ready Data&lt;/span&gt;" style="text;html=1;align=center;verticalAlign=middle;whiteSpace=wrap;rounded=0;" parent="1" vertex="1">
          <mxGeometry x="550" y="380" width="117.5" height="30" as="geometry" />
        </mxCell>
        <mxCell id="6i3nIcgut5pt7LBlZdHJ-38" value="" style="endArrow=none;html=1;rounded=0;fillColor=#ffe6cc;strokeColor=#d79b00;fontStyle=0;fontSize=10;" parent="1" edge="1">
          <mxGeometry width="50" height="50" relative="1" as="geometry">
            <mxPoint x="247.5" y="440" as="sourcePoint" />
            <mxPoint x="342.5" y="440" as="targetPoint" />
          </mxGeometry>
        </mxCell>
        <mxCell id="6i3nIcgut5pt7LBlZdHJ-39" value="" style="endArrow=none;html=1;rounded=0;fillColor=#f5f5f5;strokeColor=#666666;" parent="1" edge="1">
          <mxGeometry width="50" height="50" relative="1" as="geometry">
            <mxPoint x="407.5" y="440" as="sourcePoint" />
            <mxPoint x="502.5" y="440" as="targetPoint" />
          </mxGeometry>
        </mxCell>
        <mxCell id="6i3nIcgut5pt7LBlZdHJ-40" value="" style="endArrow=none;html=1;rounded=0;fillColor=#fff2cc;strokeColor=#d6b656;" parent="1" edge="1">
          <mxGeometry width="50" height="50" relative="1" as="geometry">
            <mxPoint x="562.5" y="440" as="sourcePoint" />
            <mxPoint x="657.5" y="440" as="targetPoint" />
          </mxGeometry>
        </mxCell>
        <mxCell id="6i3nIcgut5pt7LBlZdHJ-41" value="&lt;span style=&quot;font-size: 9px;&quot;&gt;&lt;b style=&quot;font-size: 9px;&quot;&gt;Object type &lt;/b&gt;:table&lt;/span&gt;&lt;div style=&quot;font-size: 9px;&quot;&gt;&lt;span style=&quot;background-color: initial; font-size: 9px;&quot;&gt;&lt;br style=&quot;font-size: 9px;&quot;&gt;&lt;/span&gt;&lt;/div&gt;&lt;div style=&quot;font-size: 9px;&quot;&gt;&lt;span style=&quot;background-color: initial; font-size: 9px;&quot;&gt;&lt;b style=&quot;font-size: 9px;&quot;&gt;load&lt;/b&gt;:&amp;nbsp; &amp;nbsp; &amp;nbsp; &amp;nbsp; &amp;nbsp; &amp;nbsp; &amp;nbsp; &amp;nbsp; &amp;nbsp; &amp;nbsp; &amp;nbsp;&lt;/span&gt;&lt;br style=&quot;font-size: 9px;&quot;&gt;&lt;/div&gt;&lt;div style=&quot;font-size: 9px;&quot;&gt;&lt;span style=&quot;font-size: 9px;&quot;&gt;-Batch Processing&lt;/span&gt;&lt;/div&gt;&lt;div style=&quot;font-size: 9px;&quot;&gt;&lt;span style=&quot;font-size: 9px;&quot;&gt;-full load&amp;nbsp; &amp;nbsp; &amp;nbsp; &amp;nbsp; &amp;nbsp; &amp;nbsp; &amp;nbsp; &amp;nbsp;&lt;/span&gt;&lt;/div&gt;&lt;div style=&quot;font-size: 9px;&quot;&gt;&lt;span style=&quot;font-size: 9px;&quot;&gt;-Truncate &amp;amp; Insert&lt;/span&gt;&lt;/div&gt;&lt;div style=&quot;font-size: 9px;&quot;&gt;&lt;span style=&quot;font-size: 9px;&quot;&gt;&amp;nbsp;&lt;/span&gt;&lt;/div&gt;&lt;div style=&quot;font-size: 9px;&quot;&gt;&lt;span style=&quot;font-size: 9px;&quot;&gt;&lt;b style=&quot;font-size: 9px;&quot;&gt;NO TRNSFORMATION&amp;nbsp;&lt;/b&gt;&lt;/span&gt;&lt;/div&gt;&lt;div style=&quot;font-size: 9px;&quot;&gt;&lt;span style=&quot;font-size: 9px;&quot;&gt;&lt;b style=&quot;font-size: 9px;&quot;&gt;&lt;br style=&quot;font-size: 9px;&quot;&gt;&lt;/b&gt;&lt;/span&gt;&lt;/div&gt;&lt;div style=&quot;font-size: 9px;&quot;&gt;&lt;span style=&quot;font-size: 9px;&quot;&gt;&lt;b style=&quot;font-size: 9px;&quot;&gt;&amp;nbsp; &amp;nbsp; &amp;nbsp;Data Moudel :&lt;/b&gt;NONE (AS_IS)&lt;/span&gt;&lt;/div&gt;&lt;div style=&quot;font-size: 9px;&quot;&gt;&lt;span style=&quot;font-size: 9px;&quot;&gt;&amp;nbsp;&amp;nbsp;&lt;/span&gt;&lt;/div&gt;&lt;div style=&quot;font-size: 9px;&quot;&gt;&lt;span style=&quot;font-size: 9px;&quot;&gt;&amp;nbsp; &amp;nbsp; &amp;nbsp; &amp;nbsp; &amp;nbsp; &amp;nbsp;&lt;/span&gt;&lt;/div&gt;&lt;div style=&quot;font-size: 9px;&quot;&gt;&lt;span style=&quot;font-size: 9px;&quot;&gt;&lt;br style=&quot;font-size: 9px;&quot;&gt;&lt;/span&gt;&lt;/div&gt;" style="text;html=1;align=center;verticalAlign=middle;whiteSpace=wrap;rounded=0;fontStyle=0;fontSize=9;" parent="1" vertex="1">
          <mxGeometry x="235" y="460" width="120" height="130" as="geometry" />
        </mxCell>
        <mxCell id="6i3nIcgut5pt7LBlZdHJ-44" value="&lt;span style=&quot;font-size: 9px;&quot;&gt;&lt;b&gt;Object type &lt;/b&gt;:table&lt;/span&gt;&lt;div style=&quot;font-size: 9px;&quot;&gt;&lt;span style=&quot;background-color: initial; font-size: 9px;&quot;&gt;&lt;br style=&quot;font-size: 9px;&quot;&gt;&lt;/span&gt;&lt;/div&gt;&lt;div style=&quot;font-size: 9px;&quot;&gt;&lt;span style=&quot;background-color: initial; font-size: 9px;&quot;&gt;&lt;b style=&quot;font-size: 9px;&quot;&gt;load&lt;/b&gt;:&amp;nbsp; &amp;nbsp; &amp;nbsp; &amp;nbsp; &amp;nbsp; &amp;nbsp; &amp;nbsp; &amp;nbsp; &amp;nbsp; &amp;nbsp; &amp;nbsp;&lt;/span&gt;&lt;br style=&quot;font-size: 9px;&quot;&gt;&lt;/div&gt;&lt;div style=&quot;font-size: 9px;&quot;&gt;&lt;span style=&quot;font-size: 9px;&quot;&gt;-Batch Processing&lt;/span&gt;&lt;/div&gt;&lt;div style=&quot;font-size: 9px;&quot;&gt;&lt;span style=&quot;font-size: 9px;&quot;&gt;-full load&amp;nbsp; &amp;nbsp; &amp;nbsp; &amp;nbsp; &amp;nbsp; &amp;nbsp; &amp;nbsp; &amp;nbsp;&lt;/span&gt;&lt;/div&gt;&lt;div style=&quot;font-size: 9px;&quot;&gt;&lt;span style=&quot;font-size: 9px;&quot;&gt;-Truncate &amp;amp; Insert&lt;/span&gt;&lt;/div&gt;&lt;div style=&quot;font-size: 9px;&quot;&gt;&lt;span style=&quot;font-size: 9px;&quot;&gt;&amp;nbsp;&lt;/span&gt;&lt;/div&gt;&lt;div style=&quot;font-size: 9px;&quot;&gt;&lt;span style=&quot;font-size: 9px;&quot;&gt;&lt;b style=&quot;font-size: 9px;&quot;&gt;TRNSFORMATION&amp;nbsp;&lt;/b&gt;&lt;/span&gt;&lt;/div&gt;&lt;div style=&quot;font-size: 9px;&quot;&gt;&lt;span style=&quot;font-size: 9px;&quot;&gt;&lt;b style=&quot;font-size: 9px;&quot;&gt;Data cleansing&amp;nbsp;&lt;/b&gt;&lt;/span&gt;&lt;/div&gt;&lt;div style=&quot;font-size: 9px;&quot;&gt;&lt;b style=&quot;font-size: 9px;&quot;&gt;Data Standrization&lt;/b&gt;&lt;/div&gt;&lt;div style=&quot;font-size: 9px;&quot;&gt;&lt;b style=&quot;font-size: 9px;&quot;&gt;Data Normalization&lt;/b&gt;&lt;/div&gt;&lt;div style=&quot;font-size: 9px;&quot;&gt;&lt;b style=&quot;font-size: 9px;&quot;&gt;Deriver Coulmns&lt;/b&gt;&lt;/div&gt;&lt;div style=&quot;font-size: 9px;&quot;&gt;&lt;b style=&quot;font-size: 9px;&quot;&gt;Data Enrichment&lt;/b&gt;&lt;/div&gt;&lt;div style=&quot;font-size: 9px;&quot;&gt;&lt;br style=&quot;font-size: 9px;&quot;&gt;&lt;/div&gt;&lt;div style=&quot;font-size: 9px;&quot;&gt;&lt;span style=&quot;font-size: 9px;&quot;&gt;&lt;b style=&quot;font-size: 9px;&quot;&gt;&amp;nbsp; &amp;nbsp; &amp;nbsp;Data Moudel :&lt;/b&gt;NONE (AS_IS)&lt;/span&gt;&lt;/div&gt;&lt;div style=&quot;font-size: 9px;&quot;&gt;&lt;span style=&quot;font-size: 9px;&quot;&gt;&amp;nbsp;&amp;nbsp;&lt;/span&gt;&lt;/div&gt;&lt;div style=&quot;font-size: 9px;&quot;&gt;&lt;span style=&quot;font-size: 9px;&quot;&gt;&amp;nbsp; &amp;nbsp; &amp;nbsp; &amp;nbsp; &amp;nbsp; &amp;nbsp;&lt;/span&gt;&lt;/div&gt;&lt;div style=&quot;font-size: 9px;&quot;&gt;&lt;span style=&quot;font-size: 9px;&quot;&gt;&lt;br style=&quot;font-size: 9px;&quot;&gt;&lt;/span&gt;&lt;/div&gt;" style="text;html=1;align=center;verticalAlign=middle;whiteSpace=wrap;rounded=0;fontStyle=0;fontSize=9;" parent="1" vertex="1">
          <mxGeometry x="395" y="485" width="120" height="130" as="geometry" />
        </mxCell>
        <mxCell id="6i3nIcgut5pt7LBlZdHJ-45" value="&lt;span style=&quot;font-size: 9px;&quot;&gt;&lt;b&gt;Object type &lt;/b&gt;:Views&lt;/span&gt;&lt;div&gt;&lt;br&gt;&lt;div&gt;&lt;div style=&quot;font-size: 9px;&quot;&gt;&lt;span style=&quot;background-color: initial; font-size: 9px;&quot;&gt;&lt;b style=&quot;font-size: 9px;&quot;&gt;No load&lt;/b&gt;&lt;/span&gt;&lt;/div&gt;&lt;div style=&quot;font-size: 9px;&quot;&gt;&lt;span style=&quot;font-size: 9px;&quot;&gt;&amp;nbsp;&lt;/span&gt;&lt;/div&gt;&lt;div style=&quot;font-size: 9px;&quot;&gt;&lt;span style=&quot;font-size: 9px;&quot;&gt;&lt;b style=&quot;font-size: 9px;&quot;&gt;TRNSFORMATION&amp;nbsp;&lt;/b&gt;&lt;/span&gt;&lt;/div&gt;&lt;div style=&quot;font-size: 9px;&quot;&gt;&lt;b&gt;Data Integration&lt;/b&gt;&lt;/div&gt;&lt;div style=&quot;font-size: 9px;&quot;&gt;&lt;b&gt;Aggregations&lt;/b&gt;&lt;/div&gt;&lt;div style=&quot;font-size: 9px;&quot;&gt;&lt;b&gt;Business logics&lt;/b&gt;&lt;/div&gt;&lt;div style=&quot;font-size: 9px;&quot;&gt;&lt;br style=&quot;font-size: 9px;&quot;&gt;&lt;/div&gt;&lt;div style=&quot;font-size: 9px;&quot;&gt;&lt;span style=&quot;font-size: 9px;&quot;&gt;&lt;b style=&quot;font-size: 9px;&quot;&gt;&amp;nbsp; &amp;nbsp; &amp;nbsp;Data Moudel :&lt;/b&gt;&lt;/span&gt;&lt;/div&gt;&lt;div style=&quot;font-size: 9px;&quot;&gt;&lt;span style=&quot;font-size: 9px;&quot;&gt;&lt;b style=&quot;font-size: 9px;&quot;&gt;Star Schema&lt;/b&gt;&lt;/span&gt;&lt;/div&gt;&lt;div style=&quot;font-size: 9px;&quot;&gt;&lt;span style=&quot;font-size: 9px;&quot;&gt;&lt;b style=&quot;font-size: 9px;&quot;&gt;Flat Table&lt;/b&gt;&lt;/span&gt;&lt;/div&gt;&lt;div style=&quot;font-size: 9px;&quot;&gt;&lt;span style=&quot;font-size: 9px;&quot;&gt;&lt;b style=&quot;font-size: 9px;&quot;&gt;Aggregated Table&lt;/b&gt;&lt;/span&gt;&lt;/div&gt;&lt;div style=&quot;font-size: 9px;&quot;&gt;&lt;span style=&quot;font-size: 9px;&quot;&gt;&amp;nbsp;&amp;nbsp;&lt;/span&gt;&lt;/div&gt;&lt;div style=&quot;font-size: 9px;&quot;&gt;&lt;span style=&quot;font-size: 9px;&quot;&gt;&amp;nbsp; &amp;nbsp; &amp;nbsp; &amp;nbsp; &amp;nbsp; &amp;nbsp;&lt;/span&gt;&lt;/div&gt;&lt;div style=&quot;font-size: 9px;&quot;&gt;&lt;span style=&quot;font-size: 9px;&quot;&gt;&lt;br style=&quot;font-size: 9px;&quot;&gt;&lt;/span&gt;&lt;/div&gt;&lt;/div&gt;&lt;/div&gt;" style="text;html=1;align=center;verticalAlign=middle;whiteSpace=wrap;rounded=0;fontStyle=0;fontSize=9;" parent="1" vertex="1">
          <mxGeometry x="545" y="470" width="120" height="130" as="geometry" />
        </mxCell>
        <mxCell id="6i3nIcgut5pt7LBlZdHJ-46" value="" style="image;aspect=fixed;html=1;points=[];align=center;fontSize=12;image=img/lib/azure2/analytics/Power_BI_Embedded.svg;" parent="1" vertex="1">
          <mxGeometry x="736.25" y="207.32" width="37.5" height="50" as="geometry" />
        </mxCell>
        <mxCell id="6i3nIcgut5pt7LBlZdHJ-47" value="" style="image;aspect=fixed;html=1;points=[];align=center;fontSize=12;image=img/lib/azure2/general/Cost_Analysis.svg;" parent="1" vertex="1">
          <mxGeometry x="725" y="354.64" width="60" height="70" as="geometry" />
        </mxCell>
        <mxCell id="6i3nIcgut5pt7LBlZdHJ-48" value="" style="shape=image;verticalLabelPosition=bottom;labelBackgroundColor=default;verticalAlign=top;aspect=fixed;imageAspect=0;image=data:image/png,iVBORw0KGgoAAAANSUhEUgAAAgAAAAIACAYAAAD0eNT6AAAQAElEQVR4AexdB2AUxdd/b+9S6L1Kkd57IEBCCgm9g6CiYkWs2MX298N/sfeCYkOxIahI7xBIQk3oPVRReu9J7na+38zeXS4hQBLSM8u8mTdvZt68+S2593Z2b88gfWgENAIaAY2ARkAjUOQQ0AFAkTvlesEaAY2ARkAjoBEg0gGA/l+gEdAIaAQ0AhqBIoiADgCK4EnXS9YIaAQ0AhqBoo2AXL0OACQKmjQCGgGNgEZAI1DEENABQBE74Xq5GgGNgEZAI1DUEbDWrwMACwedawQ0AhoBjYBGoEghoAOAInW69WI1AhoBjYBGoKgj4F6/DgDcSOhSI6AR0AhoBDQCRQgBHQAUoZOtl6oR0AhoBDQCRR2BlPXrACAFC81pBDQCGgGNgEagyCCgA4Aic6r1QjUCGgGNgEagqCPgvX4dAHijoXmNgEZAI6AR0AgUEQR0AFBETrRepkZAI6AR0AgUdQRSr18HAKnx0DWNgEZAI6AR0AgUCQR0AFAkTrNepEZAI6AR0AgUdQTSrl8HAGkR0XWNgEZAI6AR0AgUAQR0AFAETrJeokZAI6AR0AgUdQSuXL8OAK7EREs0AhoBjYBGQCNQ6BHQAUChP8V6gRoBjYBGQCNQ1BFIb/06AEgPFS3TCGgENAIaAY1AIUdABwCF/ATr5WkENAIaAY1AUUcg/fXrACB9XLRUI6AR0AhoBDQChRoBHQAU6tOrF6cR0AhoBDQCRR2Bq61fBwBXQ0bLNQIaAY2ARkAjUIgR0AFAIT65emkaAY2ARkAjUNQRuPr6dQBwdWx0i0ZAI6AR0AhoBAotAjoAKLSnVi9MI6AR0AhoBIo6Atdavw4AroWObtMIaAQ0AhoBjUAhRUAHAIX0xOplaQQ0AhoBjUBRR+Da69cBwLXx0a0aAY2ARkAjoBEolAjoAKBQnla9KI2ARkAjoBEo6ghcb/06ALgeQrpdI6AR0AhoBDQChRABHQAUwpOql6QR0AhoBDQCRR2B669fBwDXx0j30AhoBDQCGgGNQKFDQAcAhe6U6gVpBDQCGgGNQFFHICPr1wFARlDSfTQCGgGNgEZAI1DIENABQCE7oXo5GgGNgEZAI1DUEcjY+nUAkDGcdC+NgEZAI6AR0AgUKgR0AFCoTqdejEZAI6AR0AgUdQQyun4dAGQUKd1PI6AR0AhoBDQChQgBHQAUopOpl6IR0AhoBDQCRR2BjK9fBwAZx0r31AhoBDQCGgGNQKFBQAcAheZU6oVoBDQCGgGNQFFHIDPr1wFAZtDSfTUCGgGNgEZAI1BIENABQCE5kXoZGgGNgEZAI1DUEcjc+nUAkDm8dG+NgEYggwgcOHCg2JEjRx4+ffp0uQwO0d00AhqBXERABwC5CLaeSiNQFBA4ePBgxQP//DPGZrPtNk0xLjExsW9RWLdeo0YgrxHI7Pw6AMgsYrq/RkAjkC4C+/btq7N//4GPnE7nfhb0phBUjUgQykHpDtBCjYBGIE8R0AFAnsKvJ9cIFHwEEhIS2u7Zs28iVrKTyBwNh18cbh9V5AIFiZ6HDx8uITlNGgGNQE4hkHm9OgDIPGZ6hEagyCMghOCdO3dGwvnPYDbiBZl3CUF2ELCB17eS4iErxsw9UNFJI6ARyEcI6AAgH50MbYpGIL8jsHnzZt+tW7eOgPPfBMe+AH7eur8PRmC7X9oPOQolcEv0bQAgopNGICcRyIpuHQBkBTU9RiNQxBDAlX7pTZs2PUHMu4n4e9MUzZTDV34emXT1KJQMvAwCFA8GiYhEv82bhS8YnTQCGoF8goAOAPLJidBmaATyIwJr166tvWHDhg8uXrr0DxF/CN9eQzl2wuF2+LIEwcm7k7sR3cEiRxBQpnLlY5GypkkjoBHIbgSypk8HAFnDTY/SCBRqBFatWt8wPj5+AhEnmIKehA8vifv+KMjl5JXHT8XDyaMd4YFJa9D3NTSighxDZI5dgzsVqzONgEYgXyCgA4B8cRq0ERqB/IHA6tWrm61atWaiYTi2wMXfA6t85A185clR8fBohJOHRDLSvYutyF8TptmoTp3aHWrXrj0WjSsgsxK6gRlw7NixUpDrpBHQCGQjAllVpQOArCKnx2kEChECK1eubLl8+cqJuErfAEd9F/y1HZfzSAKEhULg4tAsEwQktpomvSaE2aRB/frN6tWrNxa0E73daZJ7V0CNEFTcNE39TgA3OrrUCOQxAjoAyOMToKfXCOQlAlFRsZ2WxcTOcjjN9XDS0vHblD3w3NLFK+/vxSMIOMdMX+BKv3WTJk2aNWnSaGyjRo22qzFpMofDMQU6nVKH0gUGqu5I001XNQIagRtCIOuDdQCQdez0SI1AgUVg6dKlLaKilk1mw1zOQvTG1j4rJw0PDScPV42luXhwxCS2C6YX0K92s2bNHm7evDl2CmTL1alOnTqH0RqFIMCdUBWRx48fvwmMThoBjUAeI6ADgDw+AXp6jUBuIrB48eJmixYt/t1pig1w9EPh0C1nL41QDh+MjAQs/jIT/YAr/qDWrVs3ad2y5VstW7Y8hR6ZSb9AFfpDKRgkw+l03gqBThoBjUA2IHAjKnQAcCPo6bEagQKCwOzZi+rNm7/wB6dTbIQrHgzHD9+uLsyRIRTAOiB380eJ+GVhOmu0a9duRJs2bZZTFo8L/v6TofQcHL8r0MBcgu7Nojo9TCOgEchGBHQAkI1galUagfyGwOzZs2vMmjPvI/lUPxzxnXC/Bpy/5YyVV4ZEGi15EvuI+Ekfu61OYGD71wMDA0/QDR6NK1WSzn8i5nYnaBTNjxw50hmMThoBjcANIXBjg3UAcGP46dEagXyJABx/6ekzZ79pCkrAPf7RgshPOn5pLHg4Y8vxSx739/dDcH9yUlKDzp07fhQQEHBR9ssuEsIch/gCU7kSCugeBdJJI6ARyEMEdACQh+DrqTUC2Y3A5MmTbdOmzXgo2eGUjn8M9PsrVw+niwQ/j9xKkj9ETI+VL1++YZcuXb4NDw93oH+2p9q1a8t3BEQhCMDOAyaXuaChp0+fLpftk2mFGoEihMCNLlUHADeKoB6vEcgnCPz225897HbfDaYwP4ePrWw5fulw4eshkDsAsgb5JRLmf5KTkxqEh4Z+1rx586RcWMJn0gplhppMFEtKSrpLsTrTCGgE8gQBHQDkCex6Uo1A9iHw22+/NZsy5fc5xOZcaG0Ggp+Fq7cS/K7FyFyY4hds+TeOjIx8tUePHhdk39ygGjVq/CmEelsg7FGJUH8wN+bWc2gECicCN74qHQDcOIZag0YgTxCYMGFq2UmTfv3MaYr1cO49pRECrl8mbx5tEImdcPwRPXt2H96tW7e/ZHtuEjM7Md+/5G0A5f7BIDU7evRoMOQ6aQQ0AnmAgA4A8gB0PaVG4EYR+Pnnn2/380/cBuf+CLy7XTpVXFHLAlVI4V3lHAgIkiD4T/Fi/q169uy5RMryirALMBUGrpGmwUKYAesEPUn60AhoBDKNQHYM0AFAdqCodWgEcgmBb3/6qe4PP/w4xxT0MxxpVTkt3Cj8quRkAddqJbnFLgW+JokHLl26NHHW3LlPzJs3rx0CBfUOAGtE7uXYBRCmabwijUJQIhMmFwOPHDlSD4xOGgGNQC4joAOAXAZcT6cRyAoC48eP9/n++x9esjnNzYK4p+U94foFtIHAKb+KGpqUQLKKZ0HVEDAMJVN8aJoUN2/+gsMLFiyYMX/hwlcXL17cG0FBZdU5F7JatarPxzTzlLHSTEE2BAajIdNJI6ARyDAC2dNRBwDZg6PWohHIMQS++eabYB9fv3WmMP+Hq/5i0nkKuHaZvHkpQ7sUnZG81S6r0tNa5rnklREQ9EVg8Jpp0iy7j++RqKio/VFLl05fGh39RkxMzPDY2NjWs2fP9rNGZW/ucDgegZ0XlS0wEvx9p06dKpu9s2htGgGNwPUQ0AHA9RDS7RqBPELg/fcnF/vqq28+EsTL4CSbwVfCErhNgQIJnPTu4GQBIZLFiX2m02husnhYmOJPdDgn5GAoAQ9OoJuSeHgEBLVQ6UcmvQD+J3RdV6ZsufPLV6zatXLlqrkrV8d9tmbNmqfi4+P7xcVtaBsXF1dt8uTJNqkvs1S7du09zPQi5pMJw0XJpCSn/kYAkNBJI5ARBLKrjw4AsgtJrUcjkI0IfP75121KlDwdB1c9Gs4Y9+wth215TPBokDy4JLSrmcHDsSu2FRuO5wcPGPDFwIH9Bx06WLWCMDmMiN8gIdYSesnh4MGiInMoUTKlVGlCg7CTMOtB3oOF+QjK99FtOrMz3rDZDjZs2Chpw4aNhzZu2rR+06Yts7Zs2TJh69bt/922befjO3bsuHX37t29d+3aFQ5qB77hrl3/1Ny/f385IYStWrVqn2CCaWo6zM9sPg65D1idNAIagVxCQAcAuQS0nkYjkBEE5FX155+Pf4HYuVIIbkoCbhdeUhWylEqkiMRcIjOYSfQiEk7VDrl03YonHjF16rQnZPdRowKS+/fvvbRPn14v9e7dq53BVFWYdJcg/hH6/5F9hMrkaGjz4iWLPpgZHDrJHihUJ/Dy86MqGlsRi95EfA8aXiY2PwY/yek0ZxHRYmYjjg1jh92e/BcRnzzw99+Of/755xLsjEB/JGgSVOPEiRPDSR8aAY3AdRDIvmb5B5x92rQmjYBGIMsIfPDB5zcfO3Z8iSnEG3COvvCM8K1Q5/K4kEEkjmFrf8iIu+7sdeedd8YOHz58MRP/Bw3oi45IikdnXFG/N3XqjIHQkCr16NHjaK9e3X/s0T3yrm7dImvYDK4jAwIi/gLOfjMRmZYaOGZUVJL6JCMbvHjZQ4owOZLiCAySxaOrxaMqeVcjZOQHvqSUoQmaBZmmeBk2Z+m2AhTopBHQCGQSAR0AZBIw3V0jkBMIfPjhxyNsdnMDPG8XOEY1hXSOklcOUmUUJ4Sz3b0jRvyhOriyHTu2/ccUvEhWhXStVl9wAs7U/AlBQAfZdjUKDw/fFxkZ/mN4eOjDYWGhLbBDUJGE2Re63kQZg/KyUgmDwFtqFA9WNnjxKe0eyyUjbUFnsLI/aip581ZrA+wC3K5YnWkENALpIpCdQh0AZCeaWpdGIJMIjB07wf+DDz76jpi/x9VvaTkc/tTtKUnx8JZwrLF+vvaI++6774Ds401jx441WTjuEER/Szn6YrzkZCGKM4vZM2fObG5Jrp936dLlVEhIyKwuwcEvBgUFdTktn9AXZjARPw9TfoX+nZjLJBgHntTh5tGAdaCbZNT8aE7No6vVLlvQJHtBIBNU6l0AwKKTRiBXENABQK7ArCfRCFyJwHvvvVezVKkzy+AD71ZOEF2k85Q8ZNIZSglK2mq3GX2x5X8WgnQTbgUcYWEOxvjL0pNKxywdrewMvoLTKRbMmjWroaxnlnr37p3YqVOn2MDA9u906ND+tvYBAY0uX7pY1jS5C24djIb+b6BzJeY9DR4sEhageFmC5JrQLpO7cYleNQAAEABJREFUEbxsQC9ZoCYXCpsbHz9+fBg66aQR0AhcgUD2CnQAkL14am0agQwh8O6774Y4Ba+B+2svB8DxwUcqTyj9IEQe/hwJZ/977733NITXTLfddtsaJjESOqFLdgUnFUMVuKpOp7lw9uzZ2fLWveDg4HMBAa1j2rZt/UnrVq0eaNmyRacWLZqXs9tsNwlhRsKAx7GQj8FPgyXrhOATsAFiJNiD3J3QjBbIkBRPxK8IIfRnE+lDI5CzCOg/spzFV2vXCFyBwJtvvv2o06SFTFRFNsLZyUJeA8NnutygLAQyQU+OGjVqt+qQgezWW2/9kZjehUtVDlYOcfPQVtPhNJchCGgq5TlBjRs3PtisWbNFTZo0+RT8E40aNRrYoEH9tvXr161YzN+/hGFwM2bqgjX3R3m3MPlJLHODMhYGIsEs0fTkyZNDweikEdAIeCGQ3awOALIbUa1PI3AVBD7++GO/199862s4uU/RxQdOEAVqMocXVE7Qi0fLyoceGjkBokylbVu2jIFjneR2/HKwF1/daYoY3A4IlPLcpOrVq1+sXbv2VlAMaMbly/a5xKZ86LGVWr4MgcAgSbNeBz6+ktGkEdAI5AwCOgDIGVy1Vo1AKgTgzNknYccdxc+c7iUb4NxkgSt+uH2Xx7MK9ESL5E0WzzKzJYAso0k9FMjOu6F8jnT8ai5okTxkUk05QTxvzpw5EbKSF7R///6hvr5Jm+HzhwhlAKwDg4SakF8JrHvixAn9dkCgoZNGwEIg+3MdAGQ/plqjRuAKBLDdLx7+5LNvm65YNqBR1MK5lfYmHDQcSZ5+ykmjJh2/y0nHPv7ww7EQZSkNGzYsqUSJ4oOga4ZUIOBpXQkiuFlBZUxBiAHm3C/bc4sSEhJq7Nm791esczKoEsIfd4IJwnTbqIREryIIUN+MQKNOGgGNQDYjoAOAbAZUq9MIXAuB7lGxcY5SZfrW2Lh2XIuZv1+qG7v4Yrm/9pItOZGsIEC5ahKmaPTZZ19M/XTc+JfGjfuq4+QsvHdfPr1/4sTxIXCqP0iblGb4fi/eRxB/PWfOvDewa5CjnwVw/KUTdu36n2EYO2DPMGULGAQBMpf+fofT6WwHZiMEMkkzK2EH5HnJaNIIFHUEcmL9OfpHnxMGa50agYKOwLApU5w9lsf9j4Wjc5kjh/bWWh1DTadNpvqL51ClLRuo2ImjxCQqmsIcyGT+j9hcceLE6UPjv/zyrW+//bZuZtY/atSo5CFDBo2Ao38J43DRL+BjwSEpJ4wqJnuhU6fOMxYuXFgB4mxNcXFxPjt27HjUFGIXvPpLcPjFlQGYFwlzQSL4K39/vw41atRYjyBoJNqdJMXogPpTx48fvwkdddIIaASyGQEdAGQzoFqdRiCjCHRfvn59Upkz7cjgd/GHaBY/cYyqbF5PdRfMosa//0i1F8+mSuvjqOTf+8ieeKmSEPy8w2kmfPX1t5MnTJhwc0bnkf2GDBrwBrxqDzjhfyzHD++KBjePWm/TFPGLFi265lsDMSRDacmSJfYtW7bcUbxEic1C0KeYt5KaC6NRRxU1kzbBwXerWfOmBytUqKDecVCtWrXVQvCnsEf2lHFAcZvN9m9UdNIIFGEEcmbp+NzJGcVaq0ZAI3B9BHrP2ZXYLTb+OSIzGE5vF67GiZnIcCRTiSOHqAJ2BGpELaB6U36gur/9QNUWzTHKbVo71Pfgwe3fffXVf8ePH48r6ivnwS2DYqCbJv3xR/Pff/895Lffpg7EH3tNONyJ8L6JmAvOFbmVCBWIqbbTFNHYCXgmq7cENm/eXHLDhk1PVKxYaRdU/wilDeHqLQMhcPH7Md/dN99cq3Xt2rUXWY0puWHQKxgn3zYIoSAEJnefPn26LSo6aQQ0AtmIAD4TslGbVqUR0AhkCYHI5etWUCIFwBP/7lbAJP+hxhbZL13EbsB+qhC/kqrPmepX6+dvXq49b8bJmffelfD7i2O2Tfr4kx0//vjTPz/9POmS0ykuYr//b3aYm0yTlhKLqWTSt8T0oiDhBwcLpZhNMsoxoyoU4yuI3+3SJWTZ0qVLG0CaobRy06Yq69Zt+K/D4dyPuT7EoNqWaiEngb/HrCSOkeCnTNPZqG7duhOZ2US/K1LlypXPM9OtGHRZmgQFNtM0xyF40Z9XV6ClBUUBgZxao/6DyilktV6NQCYR6BYffyYydu0tzDyKiZPgrEkRkSqYvA5UDIeT/I8d8Su5a3v9CjGLG1edMrHhTRM+q17pz0n+ZWIWUbHtW8jnxDH4T/hZ5YfhhKVHdfFwsEohpOijEnnxQQgi1i9eHPW0vI+vOqbJ4JB59erVoWvi4yf6JCXvE8J8GarLQwkSONkfBXRuZKaRxYsVq92gQb0PGzRokCibrkUIAtaj/VlplTQZfOCZM2fuQ6mTRkAjkE0I6AAgm4DUajQC2YVA15i4L3EVHQJ9+0HK+ctSEdMJZj7NqaXETIqM5GTyO/wPldi0jsotmk0Vf5lAlb/+hMr++QuVjF5Mfts3k3H8KLHTCSdN8K/w0LKQNZenhcNWcpTFofe98+cvbIyOju6LbirFxMRUX7585YurVq/eIYijyBR3oa+/aoQOIRlBTiHEH6bJ4U2bNGnVqFGjr2vWrHlJNmWUEAR8Jph/gzEqVoG+N86ePZvtDypm1B7dTyOQNwjk3Kw6AMg5bLVmjUCWEegaE78qyenTlonmKiVgpIdn4kQ45T6h0WtsPk6fKuCDDOKR6PMuaBkokZExMREaSRaJl8nvwH4qvnYVlZ47ncr98CWV/eQtKo2y2Nxp5Bu3kmz79xFdhn+GAycclhOHW7f4xqYpZkRHx8yPiVk+ndnYT0yvI2ZoID2z1Ve5afTmOBLmM6bprN2iRfMhLVo0iYIwy8nGfD/071DaBVV0mObrWVamB2oENAKpEDBS1XRFI6ARyDcI9Fyx4uSxanX6CqYPGB6XLcuqw0cvWRrc/qGg5cuPhi5bszwkevXXKJ8Dhfok2+Vb/iKEQf9D9x1yjCTwVpIVkGE6yX70CPlt3kDFFs+lEpMmUKkP36Din79H/pMnkg9kto1riQ/+TYRdBYHRuALvhpCgH3g7wQiUkCIJcQgO+lWDuWGbNq3at27d+n3QP2i54SS/HQC9gzHdecyBjRHxAG4FtL9hxVqBRqCAIJCTZuoAICfR1bo1AjeIgHxnQNfouKdJkLz/nSjV4cLelw36LCq0/Vdx7dr5SJmbOq9YcSl02erFoVGrXwlZurqxMI12cNzvIn44ApIJhAgAuXsM9JEkgtg4c5psu3aQz4pl5Dt9Cvnh9oHvG6+Sz8dvkm3Sd2QsnEW8YS2JQweJHA6YpbRUgYNua5pmo6s9L6B6ZTFDELAV9t2HOWTMYWA9X4DsWVSnh2kENAIuBHQA4AJCFxqB/IxAWMyaCQaJCDjCo247WdADF0vYZq4MDLzq63JDoleuDVm25jlD0CDG9TMRk/uALpLkrstStlqEXDaCmEwyTp0kY/sWMpYtJuO3H8n47B2isc+SeP+/JH782jDnzxzoXB8/g48cOrJ+zaov1q9fHyz1ZRchCJiCHYD3EQRIlW2xC6DfECiR0FTIEcjZ5ekAIGfx1do1AtmGQEh0XKxhik5EvIvJ+oeie5K/GbMkLLAGXeMIWrp6BRFPJBzw6SQJrCcxOEmqQTaqCpEsJJH3AYHqAm/Mx4+S2LKBxOJ5ZP48gZLff71c4svPjEp659/RcY+NPLm6b9c3Vkd2HLYyIrBlQq9eft5qMsuXL1/+BQQBUbj6J2J+9dy5c81IHxoBjUCWEdABQJah0wM1ArmPQJeYuD12hz1IMMURHLG0gIlb2IWIWRoSeO3v7fvYXoLjviTHuInBYGdhDPSNEAY9C5/+PhH/AJqPtk1EdAQk5FwYS4ogsBJ6kEUqRybbyXSSOHKInNs3lxOXL72Awb8abGw4lXz6wupeof+sfeyBC+v/+8rpzd+MP7Vt9syTu9at34dj0/79f8UdOHBgEWjewYMHJx88fPjHw4cPjz9y5Mj4Y8eOjT958uRnmPc0CHGA8DOFmCCE0LcCFCA6K4wI5PSadACQ0whr/RqBbEZAPvx32e9yGBPP4RTdtQ1DREeHd2iVIkrNBS+IxY178bmUynGSCB5bsK1S0OJVPwQtWvVe0JKVz3RevGIEqEenxStbgqqWqnDW306OeoKoGxGPwri3MG4KCYrF8D0giCnVgT7kTa6KjRzJ1R07thZPWrq4zKVJ35c9/8Hr5U49/0jt40+MbH7yPy+2O/3VZ10vzJ7e/dLq5UOTD/x1h2maD0LxgwhMHoTDRykGgocISYj2586dexacThoBjUAWENABQBZA00M0AnmNQI/5Gy+UO3ZuIC6FJ0nnKp0wE1dhkxfHhra/+lPyPva30O8yqQGslsEkbhdj6aqfBc2nbE1qvyhuT6dFKxd2XLTiy8BFK1/ouHDFsI6LVwQHLlxRz2FgXqZIFvwEdH0FrWuJKRlE5JmHyfoHERF4SnWIixfI8ddeurxyGZ37/Sc6Ne59Ovbyk3TowTvoyL+eoROfvUtn/phE51fGUBL6mUnJ7vFjEQQ0dVd0qREoPAjk/Equ+kef81PrGTQCGoEbQaD51q1JhyrffCcT/URul8pUngxjfnR4YDtK5wiav1w+RPirbMI496ibVkUHhkpZVkjq7LBgxaIOi5Z/3GHhygc7LFzRznGeykB5EAvxlEE8FXpPgVKSa3J3fKBKtLrE4KwkkhIpad8eurAihk7/9gsd++ht+vv5x2nPnQPF3vtvP/XXs48e+OvlZ96M79b5nrXdggLi+rVL97cRLG061whoBLwRMLwrmtcIaAQKFgLya4IHK9W+Gw70B+U8ZUZUFn/Y85eHdGqT3mqEYXzG3g2yIvh2b9GN8vLriB3mr1jefuGKDwMWxA5uH7S8osFGgMH8PGyNxpROUJpppMQiRvTgIQxAojTEznNnyiXu31P/8o4t/cjgCcKgNZzkfy6+R9CuuB5Bf67tHvT62p7Bt6/tEdxq89Cmvmkm01WNQL5GIDeMw+dEbkyj59AIaARyCgEZBHQOXXUPM3/vnoOJypPNXLAyIvCK7fGgRcvXoN9qQieWhAoZfEtOOkkeS2a7+THx7ebHvhOA0MSw2aoJ4geI+BDDEEWMmosgQoVIlXT1A91VF6/SAF8PH2wD0PAiCfEzbpOsTzpb7gICga0ICKas6975/9Z273xLXPdOjZeEhemHCK8Or24p5Ajg76SQr1AvTyNQBBDgsWR2Cl0pXxb0C6v1ImeuYAqeE9MtqLoSeWWGwa5dAPSDpyRB5c6fKtvLq0uOssJ0lDEMGoYApJqcXlGaGV2Wqaar8WrI1RpTy+3EogmCgVuEwWOJeQp2JLaV8UtGYBC0fm2Pzj+v6xn04tqeQf3X9ex4s9KrM41AniGQOxPrACB3cNazaARyHAG4NbNMxXP3EBvzia3pUNSym5PCPVEAABAASURBVI5ZK3ulflnQRYffZCJWX6ljImJkTGII5fCBK27/+J7BY4mMTQg6urunYzCgZCKWDxESeJIH7JpMzB8zC/kDSb+A/42YFoLiQfsE8zkGk1kiKHaRLzG1IubbBZH8nYFpgmx71/YMOrG2Z+eF8T2D3lnXI3h4fGTHJpOHDrVJmzRpBAoLAjoAKCxnUq9DIwAE5BP7iabfECZaDYIE17zErSnZmBLn9drg8Kioy0w8S/pBYtVNZr1z0snF9+zUo7Rf8iYW4v8wpT9ITS1LYl5uE6Lt2UT7aJICRTIz5rSdG/NEm7nLR7Wdu3w4+KFt58Z2AwWA6rSbG1PaeeySr1NwdWGI9oLEACzkUTjz/2L0D+CXQ598lwHYlIQ2iMlFjPIKKk9kRDDxs4LFT2y3ba1/7uCZtT2Dlsd37/xZfI/O967vEdRMXOPbE6QPjUAWEcitYToAyC2k9TwagVxCAM79vI+Z3AfTbYdnkwlRgOieXNb3K0FWlXAIJvl0PjhSQiaqUPvswc6Uzcfq3mFV1/UI+pWFMRdz1FfqwahJieQuxMNtOsZ0aTV/+WbYLgOTs4xGJhxCWP3BXi0FxMcnB8yLPtR2dmwcgoLpbebGjGs7N+ZfrefGjAAf1GZOTFWfy/ZSQlBrIhpGBr1GTHInYRtKB2TpJjm/RYxuikog78SG8Qgzf2sybV63MujUWrlT0CPof2tx+2BTRGCVdJVpoUYgHyKgA4B8eFK0SRqBG0UgICr+uDC5HxOdJLgvSeDvXtWt02vkOooZ56VDvgS5JWEmwxR9KRsP3FsfYncmb0KwMcxlBhHmYWIEJcavDptPk7bzYr/gsWSS52D5VUWyuvB1AwDKwNE8Kup823kxGxAQTGkzO2YsgoKhoKY+JU+WMAS3I+YH2aDxBlMczEsCETGRIkp9WGJGk6LSJHcKmF5Cr2nJPvbDa3sE7QNNiu8R9GRcjy5tJ+tbB4BGp4wjkHs9dQCQe1jrmTQCuYpA56gVuwTRrZjUwcikU2NB/1rdreM9qFKr+RsvEPECeDIUrAoi6ge64RQX2a4MnOD3xCyvtCsSSf0WEdEBbKv3bjsv+rYOs6MOo54qMYmjylZIcbsgWwIAqEo3yVsmreZFr20zJ/qr1rNjHmo1J6a9veTJUiREF4kVAoKFsOUiiCQRQ40kFO4kq4wGNxFzbWK6Ff0/MMiMr3/24Mm13YNmre0RPGZd906dvW/FuHXoUiOQFwjoACAvUNdzagRyCQH59j6D+Bk4pJQZBX++srv1oiDBPIPQyOQ5msT36HRDTnddz+Aww+6/gZlHsNItc6VfMNE3psO/Rds5sXOUJL2MydoBQBvz9W8BoFu2JhkUtJ4bG9N6bsx/W82O6YaAoJwgDhZEr8D+BaALjEwSlkeKKOVAE0SsiGQnptJkUG9sebwp2Ig1Kvqfju8ZtCje+jpiyJIw/VXEFPQ0l5sIGLk5mZ5LI6ARyH0E5Bv6MOu3jEwSMfmzsP0eFxZW0S6csUqGNpmkvxKCs/R1QDgy/7W9gt+FnkVMuAoG40lM8vv+veBUHwhYuPCMR54uY2AHABpgDLNRZm2vLpXS7ZZLQhkQtJkTHYtbBv9rPSemu+PopXLYIXgR01s7K2BgKkkiRsUrySpDKAkFuag4C+rKzGOJeWlpv+QT8T06T0VQMGpD95A6pA+NQC4hoAOAXAJaT6MRyEsEbMWSHiemLSCYwYQ//NqmT9KPu8vV3Ikr21NSzkzuo6ubyWgpdw3K+jtWwrE9gzFQjxz6pE7cW58liFu1nhs9D9LrJzY9OwCys91m3NCOhNSRXbSub3CYb+Xi85mNN7A8e1q9kJFas2JStzJZ/wilTIqIZFEaLQNJ0BcOdu6J6xG0Y2334I/WdAvqHadfbUxF68jd1Vp/qLk7p55NI6ARyGUEAmbE4z4230bEl5isA2WPm8/8/ZSNxUrwllDlHJaZB9fW9eoy0GAjDkNbgUh6NOUEieTDdE9iG71f2znRxyiDh43omLTHQ6YzzwOATX2Dwzb07rLUMHkJ7mOEyTUSFsnMKEAkiYCB+N29TAaDZpJEsoK6TJJlCCShIEVEqmAiWTYULEYbBs3iJP8Ta7sHzVrTPej+vN4JIX0UOgR0AFDoTqlekEYgfQTaz1++2SB+2t0qHRPq/yPmZEvGpP4xla1z9u92luzquRhLxvqewW9gO/wPYi4j9SmyhhyBPALO/yPGzW9LlLHcZD5KGOQm0zDqZWxk9vfa3De41cY+XeYIOH6YFAJym+WZTJBYgKv3SPkAIbGhvsIoG5n4ZQQLr6FNftviFDOkklC4E0ObJBSkiEgVTJ7DHzp6G0xfm07zUFy3oCVx3Ts/vrp7SE1PD80UGgRyeyFGbk+o59MIaATyDoGABbFfYP9/unJGlhm+uOffl+F2lIwtIQvjmrcBNnTvXmL9yuDf4JxewDgka5zMhaB4m9No33pubIysZ5pMPirNYGkTyBCU6zsA63qG3bypT+gPQvBaJuoJMygVIaiB/E9mEdB6dkz3VnOjFxEOfKAGyn7MTIbBU+VXDlvPjemF4KACC9EY4hFw5l+h3EFeB2OQJBSkiEgVTCkHxthAYUT8sUGO/QgEVsV17/RC/A0+tEn6KLII4P9rkV27XrhGoEgiYDP5YSzc9SAeE5yKQQyJK0kWTirCVb2iWN+3001O28VlGDdI9vXuYDDPulTK2aXF/GUHvOWZ4g3jKHkZJCj3AoCEXoGlN/UNfdtuM+GgxZ2wwwDBGnYRyQNX9GaHlrOjB7WcFRMvBZLiIiPLoGwMUinZFMcVg4wRMLSaG7sDwcIPCAYebD0nprGPYa/GhpBf0/yMBG1DN9cc6I2EihS5C8XLCnBHofIORPwGgpSENd07L4/rEfTQxj7B5UgfBRSB3Dcb/7lzf1I9o0ZAI5B3CLRdEHuQyXieXW6EvA5280yd4rxeHewWr+8d3JCdtuX44GjrlsmSoctgmpx05OKgzlNWXJKyLJNv0lHl3phIltBbn3L4ELidsalPyH2JNr+dTOI5zOsLUvMT7LCmF1HMti4tZ0X3ajE7Fvf7Lak79/W73B48zCXCEGebwOgTdI2j+eyow61nx05uMzfmsTbzYpoKw7wZcz+EYOBPJj5HUgsTeRXkOSBHQtWTd8Itl88Tk82Da7oFTY7v3qnvkjD99UIApNM1EMDf8TVadZNGQCNQKBFoOz/mK1yULnUvTroRSdLZSGLiEj5ViqVy8ut7hbSBc4oWRLVSxqEnPCVuBUzYXqLacPlaXndbVssd9puk4zS9xlfYmINXtpv6hHTeEheyGsv4BnNWAaVKTLSdDLNfi1nR4c1nRl31tgazEUzobJE4zmPJew2pdKZXaTt7+f7Wc2PHIxgY5FPqZEUbGxFM9A4Rb1I6idwFqQONsBksGOQygfMnFkNNwTNK+iT9vSay0/srIwJbyjZN+RuBvLBOBwB5gbqeUyOQxwjAUQjT4FEwIxk8CiTFMJwMo0JkCtFFMcjWwUkSOZeArQxSfZjRTybBU3eWqDpy2JQpTtl2o+TScwKqMQ8pMgxbtu8CbERQsbV/6Je4Vx/DzO1ApIiIXHMjEBGPXz50oWWLGTEz6XqHEKGMkZLwwbrzet2v1d58ytakVnOWLW4zN/b5tnNjWtrYpyZuFzwI9X8w0VmQZzijwmggRVYuZURUhZifshm2DWu6dY5d3T3o1vR2ddBPpyKKAP6fFtGV62VrBIo4Au1xTxqO4gtiAAFiMAw2JRkqAFjbOyiATedsIi7Dsg8GoSB5CKLl50sm3+Fy2lKULcTqmwBMxC7K5ucAtvUNGW43bNuwozFSzkDeB7MDOxofJtmN+s1nRn+akV2NvWFhuPLmjilqDHVPP6V+Y1yrOVF/t5mz/Ku2c2OHlDJKVxaC+xuCfoTWsyAizyLAkHVI6KTcqlFnFmKSWd5v3+runV+J7d5ZBXKuNl3kOQJ5Y4AOAPIGdz2rRiBfIGD6+PwbTvA0e3kKaZh0HkwieG2P4FY2Ycwll/P37oYPjwQ/P9/+N3zPn9I5BB2VUkYmyWDKlh2AbQPDbt46IHSeMPgnrKUK1Ksk53DRSuHk9s1nLHuqzZ9R8pcKVfv1skvFzQ4Y769wA4MAYuv1xmS1vcGcOYnt5sfMaDM/9q6ziT5VDBIDMeXPWM85OT+BIdcBOXlVJVsd5/s/PkL8hdsD36/qFhRA+iiyCOBvuMiuXS9cI1DkEQiYEXWcDfqfBwh4DMuJKEl5w6Bl4CowywZwSOCkI0kSLG5vMnURtskhzObE2AGQ8yi1FnNDAYAg4u39wx4iU2xkQd2lSkUqI8KCTgnmh5u0WxrUfHbUesrk4TSoa6ohBudYAOA9T3hU1OU285ZPazsv9o7E0mYVYh7MxJOI+AK5DpalyiRDZLHsJ5hGsDDXrIrstHxFt479JUakjzxBIK8m1QFAXiGv59UI5BMESlLpT2DKPwzPgAQ2JTFzaZfHUEJPO4tXW3p9BU41ZmOG+91H1byYEEmyWQ4AtvbuWhvOfz4c3OdEXApEJDW6CPp/c5K9SbPpUV/wWDIpCwc+SHsyxklCgWTfiCxXk9yJaTc3Zip2B25PKmNWEkRDYc/vMCIJJanlknWouhSAQepkCJ62OrJT/KqITgMxDiKrn84LNwL4f1u4F6hXpxHQCFwbgQbYUmbi97x7oU5w/h4Rg5OEgohpWYv2Me9QDh4s3C8DkpOombMUAGzvH36f4ePcyEyRIEpD2P3gW5tMXzq0xfRFR+RMWaEd/cIqQnF7EEnCHLtuRB9lwyGDgfbzl//Wbv7yWyjJ9yZB/DQLsZUUlNYEFovcSlLYBu1TV0d0XLc6suNgQaiRPnIegbybQQcAeYe9nlkjkG8QYLPYlzBGvbiG5ec+o+ZKHlYyIKTgzWtClm3sEzJmS/+wLDlml+qrFtiePkbSDhAcKjFz5YRevUpTBo/dQyPL7Ogfjvvi4hsi7GJQ6oMFzSTh06rxn0smp27JfM3BJK/+DeDiGszRLiZfFAFRUcfbz4/9IGDBimYGGQHEJM/1eWmcZbN3DilzK0H8O3YDNuH2wIjJQ4faINWpECKgA4BCeFL1kjQCmUWg1fz5uGfMnzC8g0zu8ZyGYdXI8nMjiIneFKa5c3PfkFWbEQxs7RvSwN39RkuDhOdlQG5dybbEDAUbOwaEdklOSt5ILG6HjZbFUGLx4iwJurPR9Kh+jacvOAjxDSeAYb0qGJrUHIKXg82XCbcH4rEzMCqxGFcXLOTXQFcrQ1laTgorch0QNROCvq954u/1yyM69XSJdZHNCOSlOvzfzcvp9dwaAY1AfkHAx3R8Cg9wWdoj3YEkyUMmE8gjITgHRWiXwg7ECAaIdm7uG7oRuwJjN/Xv0hJtWU5CyNcBpwyXkxh2cc0AQOBKdcfArmOJjSXMRi1ijEpNqw22tW08PeqnFM03xm0e2tSXSfTBTETncPQyAAAQAElEQVQyA9mYrvqyIMonR/D02HMd5q/4sv2C5YE209mKiD8jZgfhwBKQW8kFX3M4ijkrIzvOWt69k+dVx1YPnRdkBHBeC7L52naNgEYguxBoNm/FSWy9/+5xAJIBIWEKKwcDPyHzFJIt0lHIBpQtSIj/swljw9Z+oQlb+4a+tWVAeKAgkt0oo4dpOo/KAYpURoRt+6sGAAlDu1RKSD42B874/9AdPhj9idSkqGNZ9Pa5ymeDG/y5eDdl42EkVukmiMsSZmIi5HSw4YyoHVQAjs1hYSVXRwYNNg3bk8BtGEy2ywWgTJXkupRAUG/DKTZiN+DD6GD9mwMKkxvO8laBDgDyFn89u0YgXyFgmPSVMsj1qW8VVi6dAxy8anZnqkUJFSe7KFLt8rv7Bj1vCHPl9v6hf20bEP4xynB5pa7ar5H5FfN1fQtA6rUINx7SDQASBkV0Esn2tUTcjdyHNYRgzHEm7tnwzyVjAr6MT6ZsPmwsblHLV3oxk+DZTLjJoOr5L1vdPaRmXPfOD6/pHjTnsm/SMTaE/JbAvbC0EuxGgdxK4F0JdYtTjA9uzzxh93UkrIwIfFT/3oCFTEHNdQBQUM+ctlsjkAMItJgTvYwMUlewDO9JiohkwZRySF4SpXg/UnXZRTIgJJdMcTXgFx8n5sU7Eo8d2t4/7OsdA8J7J/Tq5UfpHPWmLDzDxImMNjdhZ+GKAGDn4K6PCzKjYEYNENSTRUSEcfF25gBc9c+nHDg2Dx3qK4gGSNXuuU1DzJb1/ERrIoLrxvfo/Hx8z6A1Nnb+xcTjmEje0/dHSRIoSnUoaSqxXJ/VxWpDYwUh+FN/4/KGVV07dLXadJ5ZBPK6vw4A8voM6Pk1AvkIAXy8y+3y7xmf8G6z5Ic/uysoFa+EilM9Lc5qlLwk8mpR3cl1MFVC0/0ICGaZfpeObB8Y+tPOgeFDDvbrV9zVw10cU4xUpojrqzoy6XwTBod/zUJ8jCZfiNKmCfYyIrjuH4v3p23Irro98bh8+r+cl75EQzgWetXzjI3v0an+2p5BL4DibHaxm4nfIkEByiAmwE+eA9UreUu4FQ3RIJUskWKt8ZagqUnGwhVdO365sldghr+lYWnReV4joAOAvD4Den6NQD5DwHSYf7hNko7bzZPg75hoBjFfcMtQt1jJgJCsOlmcHC/JJVSFbFEyyRCXYTKGE9Fv523nj+8cFPZHwsCwO/cODCsLFUdlP9nNRVU3dO9eQt7v93ecWAh7EERYLYzOzMiZkwzihxtMXXJfne+iLkNvjiXckrgP08qkSBBFN54eey7HJryO4k3Y3l/fK3jMul5Baw22JQCNN0DtlHEYyyBPUhWVKRGgk2USMS80mJ5g01YvqbjRET2wcyObQKggR/Iw4FWSgpHOy7x5uf62gAIkY1ne9zLy3gRtgUZAI5CfEGg1N1beAtjmcgoe01Bf1mzmsv7C/1h5EkYk6u+QoE0kP/7RyypkLokI7eR9SKmSSYZkxq7c1YupGBEPIuYfHMxHmMjriXPU0FC8uHMQO31WE1MXhshNqBOOU8IwetSbuvgL8Dmatg7uUg3T9yE5sTKCyCZI3k+n3DziIiPLwOnft6Fn8GKnzdyHud9k4jYovRKTNJNwgENuJYtn7LLwRAQvQ512Z6X282O7Bcxf/nH7RTF7/C6Zb6NnHasfOKKlzHRRcciUXGWoIKGtJm7TzIntGjhhSVjrshDplM8R0AFAPj9B2jyNQF4gYBhiqve86nPeoKpSJn+qttnMJYuaTl/6fNOZS1v62Fl+8D9AxL+h32k4ApJErgMykpSSsWLZ1e6uyLokl9iXiHFLgIlZEmoMMsREIrqZrjx2GzbRqcFvC6OubMp+iY/TNgJa7TAJhUycLAT9Jrmcprh27Xw29Arut7F38K8+vomHmfkbMjgc83o+zznFMPKwHoY2o/1Ng8ygPWWqVwuYH3t3+/nLf+s4Z5X1y4JQtKZ7kPx2w6iUwbTjosOvZzIbDZj4ayJ2Eg4GuZObZ+J7/NhvS3TXjv3cbbq8EoH8IDHygxHaBo2ARiCfIeAU090WsWTgMcjkKpJNSw3+iPq76Yxl3zSZHjX00FmqhK3xLugjf2AonkmYyolYSlJYdHBXZJMkKbKIiVkSoaS0B1qImCiFmGKdfmbHulOWyJ0LyulDjB1rYKfhfmUAJlO2CJrfaEaUepMiRDmSNvQMarSpb+jbvtWK/80G4/zwMMzt756M3QalCNxcEpMxHwHK48zOOu3mxbZoOzf2xTbzVywfNmWKcuTkdah7+UJ8zSQVIicSbPCD8oeHghfEHgxctHykYRry3QGzSB6qi2RSUXVDiOnYDfghLrJdmVQtupJvENABQL45FdoQjUD+QeDoRXs8rDmvPtuVy5VewNoBgPyqCU7C0WhqVEzjaVGvgAJshl81bC/fJYh/hi5sN7uGooIkPYxLIAsmZkmST02MqpvIzVilQ5CY5pNolECXXEm71i3rg8AGV8KYzrKB2BC/oJbtafnQTsU29Qu9a1O/kKWGzbaNhHiOBVVWE8m5FePKUGcFjqpfhI2/k6A7nA7/ym3mRvdoNy/20zZzV8rbBKrD1TKbw3gfbbVA7vRVh/nL5a9CuuvUYUnslo6LVvTF/4qumGOzu4HdDOxQvKA7E532tcu7durgadIMEeUPEHQAkD/Og7ZCI5CvEJCOHA5kJbH6GFe2YctY3QJQlQxm9afOP9r4z6gfG/+55I4GrUOr4sq5Axn0KtTK1+W6rj4Z00hKrZRRVaQydwUlsfc/u0HG28S8b/eQiPi9t3QdkzA4LOXBNdk9u8mgZ4iY5CFzrOVCop2myXp20bYBIS229g35tPQln4MsxEQ4/RBi/FMTeBhXTRUyOyMM+glBwhCH/VKl1nNib2kzL+bngIULz8jGjFBcj859iPk+d18mOujj8BvjrqctOy5atcTnTHJbyF8AeZ4PIAxE3Z3qCmHGxIQFPisoTQvpIy8R0AFAXqKv59YI5GcE2Ih2myc/zwWlfwvA3ed6JY8dazb6Y9Gahn8s+U+DP5YE+SYlV0IwcCsRf4urSM/9ZzmXJOUqFEM4GFU3oeqdGBUQHHFbQfym3bDt33NL14V7h3S9XX5dEK3ZlnYPjmiPeUJB0IlJkSNNaj4l6jzKG0rypTpb+ocO3dwvJMo0eaNgfhQzlHUrBe9mUbpqTGeZeCKb3MdW4kTl1rOi72w9N/aPgBnxKc6YMnas7dWlEs7DN0yAmqxDCH68TVTUaauWfh4QH5/cafHKtwy72Rw9Ur0HAbogUskH/DuxYYEzovVbBEkhkg8yHQDkg5OgTdAI5E8EhHqnPT64lXlwepUUk01Z7Vkxpxr8vmQys4iGyyku55EEnhQRoWAXUcrBYEGwhxRZVYJIEaoGE0cQ888lxMn9+26J+Pe+wT2qQX7DSZD5jFuJnJuICTsQ4+kGjs29w6pu7R/6ryqlxT5c6U82iEM96jAJeypEqBIO6dyBmzG41AVblRazl93dcu6y2fLhTLRlOQnT/BqDrec8MCkTT+2wMNbzlVC0XTMFzl+9F4FAHyIeRkRH3MaCtxKrog/bk9Ysiwi8od+KUJp0dsMIGDesQSvQCGgECiUCvg6xyfrMxvIspjS4bE27h3R9AQq/hXrrPfRgUCd2/ZO8IkYOkg4QBVpRv0Zy90FZVRD9SxiOPXtuifhsz+Cuta8x7JpNCUPCmzHxLezVC/asrffHojVeogyzO/qFtt/WL/Qnm13sh85/g25yLwx8Wj1JEMyA/A4ublRpMWvZrS1mLp1aJyp73nUQ3z34QVz998ccKmGeM3AOj6lKJrPOi1dMcST7tCDmq9wW4XqGk5ZHh3a4PZOqC0n3/LMMnOP8Y4y2RCOgEcg/CDSYE30MjuCo2yLwPnvDwjxPnbvlWSnlk/S7Bnf9GE7nDehlYrcWBstOIWiSkjARSyIiFJT2YGZivpIgJDcxq3Z/g/kRw2Yk7BsaOW7P7RHWlS5l/DCI/0tMNpBMpA5BX6gyg5kg4p39w/ts7x8WJQxezQYPh0h+5ZE8B1ucq1gjDONxHzZuaj5zWf9mM5f9nB23G6wZrHxdt5AGxOJ9a1GuWZlfaLsg9qDVI/N5SHT0sc6LVgxkwSOh0XN7BLxbWQmclp+Xhbd/XWLiFuoydxEwcnc6PZtGQCNQkBDAh/NW6RjcH9zOcr43vAuQ0KuX356NyyZB5+MKCzCyZEzERMlEcIo28oeDgIS8D7QRMbOHKPOHD4Y8bDg4Yd8tka/svSdjAc3eIeGBmHUAEZM6UCCdvGw3M/T0v1zz9kHh9+0cGLpZsJgJNaFKDzIsB7mVoFMyBxAAveE0RdNmM5Z2aD496tOc+oqhfO7ANJw/YNKUb1EwxbTrFPslZDecOkWt/JqEIV9MtFIpcy1Q8chY8IuxIe2nxLVrVxzVIpHy0yJ1AJCfzoa2RSOQ/xDYmmISkxCOUin1zHO7h0aWYf/LczFyKJwgKULGICJKZOahhrBF2wT1Rd2T0O6w2UQTO3NL8E+iQT5slshg0iUI2Zuu7FcKU/6HLtg37hva/fo/ZsPG61IFVGKYzGVNfHq9q3E4/tI7Boa/KPwu7zUEfUNkNIUCmaAgVbpMxD+xEBFN2i69udnMpS9hm38b5fBR1s8xlokC3dOAT8RJHsljyXTLbrTsHLViV5Io1gVBzbvQJUCuxKoUzEMulbQtjQkKqq4EOss1BHQAkGtQ64k0AgURAfGX9TFt2S7ILGVxmc+39+9WXTjNZcwcluIB2c1eNlgMqvPbwmm4X38PvITdPQP6EzpNrvXr4t01pyzcVHvKgo9unrKwT7KvT2U2xO3Yvp6BdgdI9rOI0hyMehqSVXwANmAyF+4bFvltwh290t3d2DM0XN4b76r0Q41MTHzR4Ss+kXx6tGVoj/IJg8JfI//L+5npdfSpBnIlJqkLOe6AiK3gnzL9/G5qMj3qzsYzli3msdnnfOkax9oewZGCxIveXXBL4r8B81ds95ZlBy+/Vhocteo5ZnEr9HluCYB3pwDTnrx8SVg7r9c/u5sKU5m/1oL///nLIG2NRkAjkH8QYDKOkDpY5WQa6TpJq/Hq+d4hYY3tdudyaGkJh+fqyG72gmCj782/LZ4jCCJB9xMOZrSDwArTFG+hTJUa/DTnbK1fF02qPXlRf1M4ahrEYzACAQtyqLl67lLDKC2CX6J7fZOS1+0bGtEJUk+Sv1DIwvhYCmRXqJUsIej4ptEvV775T/5QUcKgrm/4OZLlC3deJaKy3uMUT3QJ4yeSQV2aTFvarPGfUR82mzLvJOXisSkisArW8gPIcE/LxKvPXLa/6a7nRNl58eoppo3kjsMOqZ89GcEUqm0Ttpjo8I6ynfSR8wh4Tn7OT6Vn0AhoBAoaAgYJVwBAJH2x0yB/yuSRMCiik1MYMfiw93oCn4ktPeew5dy73m8LFsnqX7d064qGesyuVikkDTXlrAAAEABJREFUml3390UbLTb9vM6UqMM1Jy94u+bR5HrEjF0B2kxShTd5hjKa3OQSMkqmuky8DLsBz6KmUrL/pX+B8djNqGBwIq7R35Osm/YN7lJt96Dw9wynz16Y/gL6YKdE9XZ3keVuFvS0L4nqjaYuvbvR1KgYKcxtEmPJcPj4ToR1Vd1zg7/oZDFCXqm7ZTlVhixatdVejDqQoOnpzFEB0d6imNCAXum0FXhRfluADgDy2xnR9mgE8hECDhaHCd6MXIdBTpuLzVCRMKRrP1xeL0TnCiByq4LDIRynWXD3un8s9rxm1iTzAWZXKzrIhFqGr0o5KspR69f5k2qaZVuT4PtZ0N8Yr6aVaiVZFalZEqMqSfIgJjvGvLPvlsif9w/t3k4QPc3MaEhJaP8CNu+Xkr8HRVTYMyTibSf77CLmpyHzPExnDWPBghayyf0btA5t2GDakg/q/HntF+tAR46mdSuDnicS3VNNIsQL7eeqX4FMJc6pSsc5q84Gha8axCQ+SmeOEqYwpkWFdhiaTpsWZSMCOgDIRjC1Ko1AYUPAJijVW+BMZhtl8Ng9JPw+OL8/0F295IdcfpQt5oRpmJF1/li4Eu0qSWfKzINUxZUxUUztKQszfaXMU6Y4a02e/63tkn8jFvwS1J0BqQSdygJ2My6prLpYQtvtRKa0zVfKmD2tZx2G7/+29w8qtXdoxKtJBu1G+3Og4uTpQpK9QCTGkyFa1P9zSbcG0xbP4LFjs+3BOsrisa5PSGcm/k+q4QYtaDN/+aepZLlQ4bFkBkWteVJgVwTTpcXGh4X4eWlI+zvQVkhS/luGDgDy3znRFmkE8g0CLOzyBTTk9n/s5Ax9Zuwc2PUVIfhrLMTzMB94JAaRfLdA1/pTlsTLipuSDR4B3g+kkuwpiDJ89a8Gpcmqz5hxscbk+W/YTXsDFvRbmmaSc1iZbGGwLBkCQzjsrhpYImZcrxJ96kNJd/n7+u8Rgl4jItcv3Xl6HkGvl+yJSTXr/7HkoQa/L9mCPvkibewTXM4wzV+IKeWcCD5tI8d9sB5QU54cIUtXf4CJbwNdBnknaef3UaHt7/UWaj77EMjQH3P2Tac1aQQ0AgUJAZuPPdnbXmbT5l1Py4uhQ20Jg7uOMwySV5nwKwR/Q2RlqjhkmByW3j19hBYPkOuQA+GRNuLqX37dzyXNelFtypxjNSYvGEps3MFMqR64k3NB5lHOXsZ6hC7GIH4Yjv892FaRpUxlJEfsJRaP+tou1an3x5I35GuOKR8dsJdNk75F6f0rf8SGeKzVnFV/57WpXZaunkLM3WBHqh0n1G0I3L5e0qWD5/8GZAUy5UejjfxolLZJI6ARyB8IXEy6mCoAMBmu/SqmJfTq5bfLcfxnEvRw+l3EAUFG6M1TF17x/fb9w7oFYUxTELl8KhnMb4KHz5LS7KGak+b97MNmU2ZjOnSnVuol8LBgkFL6MZVLqYBjsZmY795/wtmw3m9LxtWcsuISpPkubejV5TEYNRBEXuuZ2mZO7E9Slh+oS9SqGCHMrrDlhDTSy07DYDF+SZf2d6JNp2xEQAcA2QimVqURKGwI+NqEw3tNuIxM9zNjP7aX2f/SAvSVPwSDIm0Se22GT2i93xckpG1RdWGmvsIzaE9NUXayasvmTNht53FVeZSYib10K15lUuhhZCUVeVqEeLPOlMUt6/62cGJuPD2fyohMVNb3CmkDm99JM+RQUnLSyDSyPK+GLotbh0v+SBhyHOSdDKxhwuIuAUO8hQWHz5+WpvvHnD9N1VZpBDQCuY2AaTdKpvKSwlDPBHjbkTA4rEair0+0IO7iLffiE4TDJ/TmKfP3esk87O6hkWUwNlXgwILfkQ/yeTplE3NgeI8OzmRaJ1hYAUd6QYBrLjgcF0epICCMIXkwP7f/lq7/jnuwnXy9sJTkO5IPKzIL+bsKfl7GCSLxQOCi1Se8ZPmGDYpas14Im9wJOJrGKLtB/PPiLh36pJHrahYRMLI4Tg/TCGgEigACLHxLeTtC3OdO9F52Qr/wZkKwfMFPM7fc7R9d9W02Sg6tP23+AVf9igIfQsMhLA4i11yHncWTv5P17CL5bMLB27q/YhNCfqOggWseS32qCkSeuotxFWhJm2yC+JXyJ8vG7B7SrUHaxvxQv+w0PocdDUEpienLNnNjs+XZihSl2cuFLluxyXBSekGAr0FiyqKQ9p2zd8ac1ZZfteNvL7+apu3SCGgE8hwBYZbytkEY5HlSe8egsGBho2i01wSllzaSsIfd/Ef0ofQa3TL4V+tq3CPgD+t8F+WZxy3Oann4ru51DtnOLUV08R9B5IPyaqr2XK3hOvIOTOba3bdEDr5Ov1xt3tg7ZBQLSvs1up32i3bPi45y1aBMThYcu2YLC1O+EOhsmqHFEMjNWBrStkkaua5mEgEjk/11d42ARqBIISBSBQB2FmoHYMfAMPlTr/MBRTlQeik+WXDX+lPnp93GTdV3/9DwdhC0BbnTmSQfu7xqdddvqDw0vMcI08nrsXMhHzK8mq79RHwnCPEBZfUoyUL8tmdwxL/F2LF5/rm6qXdQALb5075k57Jg89bmUVHpvYs/q+vO0XEh0fFrBRvy4cVE74lwosoL05i7qFOnm7zl+ZPPv1YZ+dc0bZlGQCOQ5wg4hdeP2MAap7i8c1DYQ0Qsv1NfjNI9eKXNNCObTF103XvMprA9QPg096hhHtfgpzlpr/g8zRll9g/vU+6f23v8KgR9D/2l4QxThqbM5yDm932dyc1JCDgZUS+lU5Y4Fiz+tXvzsqkJV/lhoSxpzeSgLT06lRdkTMEw7/v+WCI902b28vWQF6gUtnTVEgRXcifD6W24IKplsyXPjgkKShWkevfR/LUR0AHAtfHRrRqBoo2AwbXxQevBwCTbc3Cq8god979dYpHKvS5zOC53r/Pn9V93i635Ehg5XMBDuzRdctrMtFetrqaMF4eG9wj3EckbmMQw6MdAawaYCd5KkKxhMjvU+GXeM4mG/V5iusVqQe7pKCAWU2Fe2u+mo9PVEwvqb7uUGLWnf0SVq/fKmRYxlgyn3T4R2m8GpSTmKW3mxoxLERQsLiQ67ndEMI+ktVoQtUzixF8mDx16zfdTpB2Xm/X8PJcOAPLz2dG2aQTyGAEhqDbhU9ZtBq5wb/euu+WucmmiXfRpPD32nKt+zeLyRfNWdMDVOXKZhPi27i+Ljkg2KySfxv9nePexphALYXJNkDJVlkqfZARdMIlfuMlZttNNkxau++u2btgqZ89X5GQX1ReZYPqh1uRFgy8lXqpFzC9AdAqEmMK7FyRpqpDIedsIu7li19Cw+rKeW7R5TfCLmCvtU/J7kpN8R0JeoFNYTNyX+P93xa9CYlF9Khzal54cTTpdCwEdAFwLHd2mESjiCBhC1EofgtRej0nMsZcRPZtPyfj9ZXyYq5/9denHdrztPRef6eLQ0F5Nq56psJpM+j8SZIDgqCk1EU01nY5GNSfNe0t+xXDvwLCyuFqX7xpQW+UC3dU4WRKtNos5HpSsDGhqT17wFvaf6wgh3kI/z1chwcsuijw8GCSo4jrkNJbuGhTWXHXI4WxLr5CuRPwapT4SDTJvDVi40PNbCKmbC1YtbFmc/F2HmWmtxv+/Z5YEBXj/f0rbJY/q+XtaHQDk7/OjrdMI5CkCgvm698WZ+M9Ee6WBdTLx5H7CkPBmcJIpX+USYtLV3hNwLQCgg/+5NfIxp80ZR0ytUYfjpbT0FyQDbpo0f3DNKYv/kfrQj+1+9gng64CsBKHF8GEWzsFp11NvysIzdX5b9IIpjOboOsvq651D6l21+OqIR5bI9VrVnMnX9+16k2mjX2CBZyscPHDgJ1rMjo3LmVlzXysTmReTjDtYiK1ydrlGWUoyicYtDm4XKHlNGUNABwAZw0n30ggUOQQ2dO8u79FfcwsbH8CTz1Q+M6z5lCmeq+KMAGWwzfurf8LhtGV6C3fv0LCqf9/abZZJ/AmuzIuRgDVweaRIWeFE/oGvM6nZTZMWTAfvSQganiDigYRDjZIZeKQk03AMcQcKqF+R5NsM6/62qK9gcwCmUl9x9Az3MKmGVcTOxMLdgyIappJmUyWuXTsfm3D8Clsqe6uEKRNaz1423ltWGPjeq1addZrUHwFfykOmWCzW5ov/Aj/PDgxMua0EYV6m/D63DgDy+xnS9mkE8ggBX9/ElphaXVHigxWsldRnrcroh4Y+FYcHfBmfbLVkLN97T5g/ruDugsOSifBBPrP+1PmbKRPHX0O79bcZPhsxRH5PHIXl9qWdFok4FtyhxqT5T1dOc1viwG3dAwWxCjiEHKkyizGZHr150uLlsnY9qjtlyXRfk1pgvknW7NYIjzpU0SZzEFV1krloe7+QlB0HKc0G8q9SXP5iYpDHBsuA+DIXbVc8NJcN0+WZCvm0/7IugU0XhbTrbtiMLky0Kh1j6vrbHQX2Ycd01pOjIh0A5Ci8WrlGoOAiIAxqTVc/vm7YOvQeeS/96l3SbzHPGYPQUgGkEoIB6cAUf71MfnPgwK2R4xE0TCNBlaSDtfyde6SQDyA+WcMs2/GmX+etdUvd5YGhPcpjp+BXjPGVY6HD1STIxBbyzb8u+NolyFBRY+qiE/X+WHQ7Mw2DruvdZ69h2Gzzd/QLq5gh5RnotLlflyG4TfNUqq6CTtjJOaROVFS2vUwplf4cqsR27lw5Jiyw49KQ9ncs69L+X1Gh7SeAnw/aEtWl/VmHkXTWJHOLIXgezuEEnL/e6ZmCc3vHgqC2HdNry11Z/p9NBwD5/xxpCzUCeYVAG2tifKRajMpR+6zhtKgHeexY+Ewlymw2UrhHCFp2828Zu+L+69aI9pcTzbWmoAcFvK1bhWThDOATxJ9s92la89cFH/GUKXL739NFMoIImwLmd+jr9c0GqUlI57/0eNlTT1IWj7q/LZ4ibGYAANngVoF5wGJWd26x9dnGUxN69VIPHqIpy2lb7+CGQvC3UICLYc/1v5PZuL3p7OX7Ic93aUlYu4qxXduHRIcHPghn/05MaODv0WEd1keHdjhr+jiOmEKsYOYfifnfLOgeIuoGagrK1Hf9WXDK8yUYrFP6COgAIH1ctFQjoBEQFGz5LAsKgYpg8X7jaVGPw+OgZskzk7u+Fhcm3ZVUYLC47tW/fI//vmHdXjJNjmVBDaXDl3MKMJKg6wBc+8BakxcOqvHTnL9lW3p0YFjkM5D3Q3/XSGs0Me33Ez5DM3srA7pSpfpTonb52y51wromYAK0gUOeNkEaLHwvfYMSMKZtzVg9rl+74k7DmIJ5XPe7oQ1D2eQxLWYvlb/KiFrepRVhHW9eHtGp54qIjk+vCO/45fKwwGWx4YHHfNl+jExjKc7jeFj3LM6bfH1yK/BpHLy1Hsgzmk5C1zYmsZCJXxeJ9E1GB+ZUv4KgVwcABeEsaRs1ArmMwObeYVUxZWOQK6kPZOkxA3YOCP/XjkHh8mmnaHMAABAASURBVEPb1ZbxQjiM++G02DVife3fFs918ekWe28Lu3k/nYrC5f3/0MFHWiEJOqQfd+JD/6OLly81q/Xrwmlov2r667aILhj3hlwASqufZARdFA4aVG3KnGOW8MbymlNWXGrwx+L7MM/T0IQNAWkmODlXSkGC6Y6EAWEvQZSl5E8lxmGgfEYDhTvxty3mLMvyVyndWjJTLu/UqdiqbkEBK7p2fGBV144fr4wIXLqya+ApMmgvztkcBI3vAYuRWK/8pUh168MFhZpG8Spz4SSlrrpkXSTfDbEc53oibheNRc+RTNxfkOhoM7jW5VKn/bvGxlWIiIlv2jV2bTfwL3eLj7/e7RiX6qJd6ACgaJ9/vXqNQPoI2EQ4GnBBhY9bMK6EOofgg/c1YYr12waEbkEwMHrz0LCSrvZrFvJFPcx0j/p8RyaY3mIicOkP2zMk4k5y2NYLIYLT9sIg3N83Amv/uuhJ+T399DVY0j23R1QRTp4EHXaQNSMUyGSSuO/m3xeus3pmX95g6pIP4Kxwf54uXKlVzkzytsNr2/uHSpyv7HINyea+oSOxjrvhXD29wC81ih9/2CPIAWZlr8DSK3sEha+J7PTc6m4df1kV2WmrrQSdE6a5hpm/wvl8XJD8/8FlszD9YYxZjP9bX2JHZgyCh1sMk1ubxoVSocvWVA2LXhMUtizu7tCYuNfCo+O/DotZM6NrTPwqtB3oPWdXqt8JgJ58kAqGCToAKBjnSVupEchVBAymdByTUDbA2aiSiZvCgX7km0R/bR8Y/vzee8L8VcNVsrLHy/RFk9xZgP+iXfW4vHxfPUSp096BYWV33xLxCzP9gJYyIPSHa5ATC3EexVO1qVyH2lPmx8u2a5EYOtRmOFh+P766QEdvIqb/1Zmy6FeIcyTV/zPqT5NFGIxXP4gk1CzIrSRrNmL+2bXbIuvXpa19u7QlEh+n7ih2+/j5Dmk+ZWumvoqZWkfqmrzFsKZbx6DV3To9saZb5x/WRHbebjhspwynCSdNbwvBt2FEE6zNhhIJi0KegXQSY5bhav5zweajAvj42qlil6Wrq4UsXR0RunTNKJRvy1f/dolZvSE8amuB+eGiDKw933XRAUC+OyXaII1A3iMgBHXzfKSDQXIZlcK5BPJKthwL8VbSadq8Y1BYsFuetoTOkSkyfje9B/USbokMEzbbRtwjvg394StSRhDxdIfd1rTObws/TG8spXP8Raf+C3F6wczU2k2D/w9tOZoa/x4VZ5qEXRM6cJWJqtrs4icxdux1P4s39gkuZ1o/wuQvsXHpw1Y392sy9fo/vOTqn26xvndww7juQXfHdw/6AuUGSvQ7S2zEIMj7EAPuxNV9IyKhbPT+H3AFnyKQXw1di+rXxPSUIbib0+GoHrRkVYXgpatCg5esfqTLkjXjQpasWRq4aHXK9/kxWWFIBWUN6oQWFGO1nRoBjUDOI2BdZVLqH5MhfPyD3MnLASkRPuhlh3rYul2K3YB/oc6qwZXtHhpZCx26YzsfBR8Sl3y/czWpYvPQob67bwl/yxDmIlzr11RCmUGRKegfZjEYjn9A/Unzr+ZIZe9UtH9I136YbwwIZkErjHbxG8+TcwSPHWumGpBDlcbTl+wwSYRg4btkRCO85oFJqHHX7WuXXPMbCBjDBhvfo3Md8ChUSibBQ1vMWrZN1TKYyav7tb07h6ztHvTC2h5B0+J7BB11OsUOnLDvgNIo2NkSqmzkNRHqV00Yhy14jmMS4xEIjgIFlKpwtmTnxSvbBS1eObLz4lUfdopauTAkOl69NOmqinRDriOgA4Bch1xPqBHI3wgIwYPhMZWRHh/gYqzClVuF6ufJBBtwBP/eObDrxCVhYXa33OE07wOvtotNMj9oMGcOnAYkSDsHRTbxd55YSSY/D6ejPpPgiMAKJ5o/Tk6+3OTmKYungs9w2j84oq4JhwkT4Z+8h4ljZHcOyMxvFniPzirf5M+ofU7DKXcCtrt1wDYXq7j/bu0b0sAluKLY0jdkDIT9QPDP7lzcl5En/uMiI8us69Glz7pewW+t7xm8wkj2P01OXoor8zcwc39oqwQC3jK3CHKLQe7hLeayYFpNxJ+TKUaaTG1tp5NKdVy0on3HRase6rhk1Zeg+Oy8HUEF7ig4Bqs/toJjrrZUI6ARyGkE8AE/2PqsV/kl5OoedioP4aoINLrt8bCKMe+sVpa/F7gHL4lNca8SE502nUlfyDGoc8Lg8EcMNuW9/DaoW1rBsKB1JLhT3d8XPXG9h/ykLm/ae0+Yv2mjKUSinFsuwICSBPGQOpOi9qGa66npH9GHSPhEICLZpSYXMlcZIS9GzN+KsXTFZ/LmPqHhGPNf1VvInNCVX2gxK/pHSueI6xdWcV2vLgM39OrywfpeQWttPpdP4J77TEzyPLY85AtyfK4YpvSqzGpKYXeB/YGYHoUNbS84/Ep1XLAiMHDh8kcCF6/8uvPCFesC4jP3JkhrAp3nBwSu+M+WH4zSNmgENAJ5g8DmAV2aYuYmIPhPlS9p2m5pNSdzeziR/8KJnIBDUA3uDmmDANWOjEkM35l07L87k090x4BaGIvEn0mHvqd/RJWEgeHSKX2G8cXQ7k7nTeZn9p80O9T7Y9EatzAzpThnfCxMagu9aiNDlpiYyKRH6v62KDozurK7b+PpCw4mO+0RsAlBCEDCBCpXGQVviw99CCJP2t4/qDpwlw8x2qwuaGL6uPnMpW+DUymhV2DpDX1C+m/oHfLRht7Bm+wOx1FgPxW7KLitwG2wdrXzojqjIpPkPfpQsXhxAU5+KZF4g4gH2Oy2yu0XLG8QuGD5iA7zl49rD2cfHhXlIH1cE4GC1KgDgIJ0trStGoGcRsDJd7mnkE5BmGIZjyWzxfSouKbTl/3LYEcdOK+XBdFZqx84MJAhT0lKKjMmbF2LTySL1osG2T9OGNC1n8NmbmQm16tc4aqgAH1msM1o1uD3Re9n1dHsHdz1HiL2etiQ1AHdH9X9Y1G+eDlM85kL/7I5HREw7B/YhSIlof6fbYMi1GuS5S0Uh2mbhNYqIPhlwoU4TTlXLPkFuSuwqU/Ifzf2DllxkX1PINKZhg6jSXBzItmN1AFYVSkz6JaFIhe/mwT9SCY/Jkyz7bkkv7Lt5i8PC5i/4qX2C2Knt50TnS3vRlAT6ixfIqADgHx5WrRRGoHcR0A6HDiMu71nxtX4Mu+6vHpvNmPp6+xwtocT2WS1gQODschTkpIK6YxEPTgn2TDJNJNeEyymwfFUFpBIQvEPxt7S4I/F/etNWfgX6llKe4ZEtDSZPkM4AfWp8vl/nXA+myWlOTSo4ayYPbiy7wX1p2EsChdCROVFcvJrUlCxpCnfkihfoAP/LiXkBF5VSl60nzDJXCyEeBmj5Ja+9awFGuWqVU9kqCL3JBNK1mPMRyyMQXYhqrSbF1u/3fzYu9otiPlMX917cLpBpmAN1wFAwTpf2lqNQI4hUKmkkA6pGpyxe44LSYfOx7kr3mWT2TE7L4rz0vlMseSWu/Eaq8RKKjOQIPMWwfwQWHY1mizEp3TZv2nDP5f8rmRZzHYPjSwD5/YbCSoOgl+EIkwEfqf9ctJtWd1RgJYcS02mLdsknNQfE8jnLFAgAUDcpx+1uW/IKwDpaUjgt2WuCLcBRAi4YlgXCmuZikEm3ELwSE5U4wHB+wZTf5uNKradF9um3bzlT7aZH/1nq/nLrec60FGnoouADgCK7rnXK9cIpELAFOb9bgH8EMEBRV3rAa+AGfEXL1Q9fwfGzIWjQeHKUcjxEKiEKnwRWMGlLZelXNV6QdypwZ9RjzeYM8d1OwF9spAE4VraNL9F2QCk5nKVp9km+teeFXOK8unRbNbSaMFk7boANGk3TJVX9P9BifgIuSe5WlMXVqsQDpyw1cziHWFy38uUXL7N3JiAtnNjnmk1J2ZGy3yMgbWAwpEXtFXoAKCgnTFtr0YgBxBYKx82I+qjXLNLv5PoFxd71UL+gE7SZb9bSNBqyy/JXBJcvVV4xsoqfNwFFvTcwdOifaM/F6/2NN4As3twxNNkkvxRGW8tTtxquK3ulCU7vIX5hT8wtFOxrf3CBm7pFzoR2H0pL/MlPt72ASuvquvMuDqhSMa4FUwCtwlELz8fUb717JjAVrNjn28zL3pWxzmrbiio8ppYs4UYAR0AFOKTq5emEcgoAvZk22g4FHnliQLuheiCUcyYlpHxPv7JYehXAwNlAiuT0iH9miIpsUicOVvl3EfZtSWfMCiikxDmG9I9CnhMDxE92+D3JfOsOfNHLl/As61vaL+tcPpnL/segc3y3QZ3AaCyFlopdmIpKRWgqtoF7SHBX2K/Y1hykl+lVnOiO7ecHfNiq9kxc+WzGV4DNJsnCBS8SXUAUPDOmbZYI5CtCGzo3r0ErpZHKqXK0+DqncSf13tZzrqBYWVxBTteCHMmhlV3jwdPkqQWi5BDgIQuXL3k4ZIDwdxw2tM/ooogUz6DkOp77Zjn+wZ/LP7whifIBgUb+wSX2zogZAQc/+TiVPIotvunwz75TYtSSj08PeqKdWcQudnjuA0zRZAYZRfOm1vOjq7Xcs6yUdjOnxKwcOEZdyddagSyioAOALKKnB6nESgsCNgvP4CllPc4IsmY5k+QXTVt6tOlj4/D3Iqr1wfdneQwxUsGhOQkwffC/W8CWQlCYn5c9buBTH5jIdnm/IUE3SQdphfFJNkremy6gSmyPFT+uM/2/mEPbe0fusBusx0lk7+H4x+KpZcAWXpdBnvqlvQy1rMIshdMFu2at19WpfmsZcPg8L9sOnv5fquLzvMrAgXRLh0AFMSzpm3WCGQTAtKREplPuNXB+Uh2Z4vA2HS3z+MiI8ts6tvlW2aeiY7VVH/pzOC5UFe5khFCAxIPNpkR9Z2TzdvQdhEiFLieFdRlR9/wVqhkOVUvQ/8hweHeCjDvfoN9hjSfMiXJW54b/NbeXWvjnv6TcPrRhl38Y5L4nARFgly3VbysAF6wFU1KJoOj99k0el3mCxXg8CNbzlr2VquZ0Wt5LJmqh840AjmEgA4AcghYrVYjUBAQKOfvlL+6V0fAKbntBfthes5nU9+Q7n6+SZtIXdW7e7vcukAdA5GrBPbJZtOXfSsrzadFb4Un+0h1kQIS5DTMUYrNQra9f3h/YpIvGIImBBQqp/OQDag/df7RLKjM0pBtgyIabhsQ9sK2/qFr2O7ci3vzH0BRMMwxQGBd2CgOGUBBWHRKEMuX+9xtJIvqzWcua9l8ZvQzzWZHzZXfqkAvnQokAgXTaB0AFMzzpq3WCNwwApOHDrXBab3iVuQKAk6Ss9hEt0yW8uG1DX1DPkL7XDhZ9Ut9li+TrSkkJCsbTHq52cylH8uqmwyb/T04xXMgmaR4IPqzZDJDWwd3rQ2bv8U01lfkoAQKUaX7G01dsiEzurLSd0u/8Ga40h+zrX9IDDkdO+DQ34AJASCGHZbHh2Jw0lIcAAAQAElEQVTUVRUsktiDfh+zMLqJYserNp+59PbmM5dNbDov+hAaddII5BkCOgDIM+j1xBqBvEWg/rmD98BRNfK2AtfT41rNn3/BLVvfJzTc11l8C5tiNGSMdhQYhVwm6XlTaoQ9a36j2aylr8s2b2oydZH8QRrruQI5QFC17QPD23r3uR6/NyzMn52mfHJevSpX9hfIYMOrjf9cMhlstifo5x0Du3bYPiDszW39QxMMNjczizcFcZDAbJibSDGoILnYJMgWot+TpsNWv9mMZfWazVz2RNNZUQv1r+QBpEKYCuqSdABQUM+ctlsjcAMIbB7a1JeJ/wVHhYtTj6JzDpv9I1mT3wxY36fLJyxM+VDazVIm+0qynJzMlVQ5QOkIBYtPWsxc+pJLekXhNI1f5ShJqtHh7KvKDGaJpegTzN9GzZUy5tdG06P+l1K9cU7+euHW/l1DtvUL/WhH/9D9pulchd2PMbC7PggmYA4PAx4J1aOgCYKMW2zsqNhs5tJuTacv+6jFnMW70ayTRiBfImDkS6u0URoBjUCOIpB4trz82l9t9yTSqWJ7/6OAGVHH1/cMCjZtFzeQKR5DO4OU04ODk6xy+JJJtRsgxITmM6I9DxPK9rTUPCBK/q7AUSmXupxM/SSfEdrWL+weBBgPWJNjNBKMWn/eLHUfDJS1jKi5ap+4B9v5bOsb0h1X+eO3Jx79h8m5VDCNNolqSuUKH8VAhSytYp3J4r/CMDo2bbe0WrMZS+9rPmPJ742nx55Ds05FBoGCu1AdABTcc6ct1whkCYG4yHZlcMP6VenAXb6M4ExPm8ni87U9g98j5qVwqvWkclz5yjbJKvLqr+SyLsicvK1E1ZEYI6uqX3oZjyUTjnSZ2nIAw8RtE3p1qZReX2/Z9v5dWsL5jxMQugmTHxMGDQqYMeMixFlKe8PC/Lf3D+m/tX/o98UPlzwiDJ4niB4EVYF5mAJqUQE2YIjYbnf63FRzqyDxULKDa8Lht20+fdm/mk1bsorH4u4H6UMjULAQ0AFAwTpf2lqNwA0jwHb//4OSypZjgzuTDPNytvFiJnoazi/V54LqASHGqCSQS0IhffnMpMOX7hw2ZYpT1q9LwoyVYxUJwYkGXfM5gO39g0qZwpgME60fwJEDTUomk4c1+TNq33XnS9Nh89Cwklv6hQyD0//1UmlxzBQsf5lwBPSXA5GHXOO4WHFROjSSbnrh39Tw55m2+p//UKXZjGXjW82J+tvVRRdFHIGCvPxUf+gFeSHado2ARuD6CMR179QYTu4x6UdVbxcjyOyNeiOQSgJyJMW7syt2A5gWlb5oG3qtHwxyj3WXhuC1bl6WzNcOAExhHw87GoFgtss/Mz3TZGZUlByfEVJv4+sbIt/GN824LI4x8a9QNgxU0j3eW79RoqQo07Un1XjldWr04zS+6ZlXqHTnEDL8/WX38sBBMbKiSSNQkBHQAUBBPnvado1AJhEQZMjvqqtX57qdHhyh8qwCjJR5VKIiAwFPHYzqI4WCV9ou2AbWiYq6DHGGk2F37lLDXSMEcRsXe0WBK/VRcLa3y20GdyPuy0/E1vsn7vrVym2DIipshdPf2i90hs2wHRbM35tM/QWRPwgrVUv2lLZSpalMeHeqCaff8IepXP3JF6hUh87EPgoq72kYlSognTQCRFSwQdABQME+f9p6jUCGEVjTLag/k+gpHbDyfNbIZOkQFasY5eJV1Z3J/qrJLSCxzvQzejWPijrvEWWQaTQ9Vn73/YKcX+kVIt1bAJt7h7VG+4dyXkWomEKs9EsuftXX/G4aEFJzS9/Q0Vv6hS41HY4j0uljbF+Y5gtyJUhck9vLlKVyPftT7X+/Rw0nTqWbnnrJcvr2K5y+a6ynqObhNKMRKMAI6ACgAJ88bbpGIKMIxOBeOrP41OovnTw4+EL41VfBbQYr3aLnslj2kIQ2K6ED+so+W00yerT5M+q01ZC5HJfPUCN2WRPJsVw3oVdgacm5SdUNU36v33ur/ZCP4RzSYM6cRHc/WW7pH1Z/c5+QMZv7hqxiJ+2HzfKFRSFCCBsImweQyBldZCtXgcr2HkS1Xv+QGnz/B1V75Gkq0bodsc0m1WWUrB8+ymhv3a/QIlDQF6YDgIJ+BrX9GoEMIOB3yXwdPlB9pc3qDsdIYuWeMtXfgVP+w5KluGXp6SWpXu5Got3CIbq1nRN9LEWUeY4F7RIYZukWfNnH13rPAGQyXTb8xsHWBiA4cNgkKNkp+NbG02MPyvYt/YKaKaffJyRGmGYCMb0JeQcQloI8TbJXqETl+kin/xHV/+ZXqvrgaCrRvDURp9udMnDoHYAMgKS75H8EdACQ/8+RtlAjcEMIrO7eqTMRP0LygOdFktwlYfA98ul9hymmSmcvhZJkuyTJW3Llqg8Q2SPbLrCcsGrLYgbdu5VeMLIUyeZNblUb+gQ/gtnugNt3i2T5sCH4Eq7y34Dj32GaNrlj8SaGBwlk6ZGtYmUqO2AY1XzzE6r75c9U6f5HqViT5kRskDzk7oAsM0Dp/bCQDgAyAFzh71LwV2j9NRT8degVaAQ0AukgkNCrlx+c7Ffwkyl/66gIU7zUfm7sDjmkw4Ll6wWZe6UjRV8pUoRuVlXQEWyQd2szNyrTX7tTitJkgsQ/bt2yJDJqyC4b+nZpy4Lfl5NKOfqBFedMEv8S7FwDp/0CZA3TBAdyqCKjVGkq3b0PVcc9/ZvHTaSKdz1A/g3klx5Ytbsz6HGz6ZXyRUXylw5fQGMAKByUNukAIC0iul4gEUj5UCiQ5mujNQIagWshcCr51Cvwok2l07ScKnoLWhIQvCLVj/VgO3yq1QcuVnZEN5ngOk8KNrq3cgULUnbjxP+k0VFD/swwmTQZU/upNjCwW5pUigXVJtRlgIJCsiDYiZz8/KhEl3Cq8sJrVHv8T1Txgcdxpd+MsB6ShxwjlUhekhwvSy+StvyEuvx1wibMXAXUD/QWKB7ydSAHyDvpZwC80SiifGFYtlEYFqHXoBHQCFyJwOqunToL4heFbJKZ8obimI35Th4LdyvlbnLyVDcrHabVlc45yezVbm70xpS2bOCE+Y+8CpckfTgR1/DxS/yaiKy3D4IRaQhVK6GBbT5UvG0gVXz8eaolt/cffZaKt2lPZLeTtB2ZSuiK0srBWEkI+S2EKZh7FBx8c1AN0J2gL0HbrU4pOWSXUEsrrwCZThqBAo+AUeBXoBegEdAIXIFATFBQKcH0AxpsIMvPwjsKwfemdx+/XXDsckF8WPa1SFx0CrNf+3krVlv17MsNp01edSuF8jreJHMYbkncAqcMCyEWoDRJinzqN6Jy9z5EN437nio++y8q0SmU2NfaMFDdZSfFuDKhBHtQkziMcjgcdX18fKrb7fZhIOnwt6AtIynVy4swoCxIpyKNQOFYvA4ACsd51KvQCKRCwO4vPob7q2v5QKsJ9Q8DFy6fZdXS5GMRIwhznewviJKYxZAOC1YsTdMrW6oOw1EVc3jr8nojnwwJQDBEBgS2CpWo1IChVPWdz6nK2LepZGRvMkqWsgIFmOxWgu5glVaZ/Yqxt5mmWd3f37+en5/fCF9f3y+LFSu2F52yktanGaQDgDSA6GrBREAHAAXzvGmrNQJXRWB5106DiMx7yOUglXMUFF+i3JkX0hu0MiKwyppunf8k4l5EhAt/vqvdvBVzwWdb2tA9pM76XsFj1vcM3kZkrJamSbs85DUT+/hSsQ6dqcJTL1GV976g0kPuIHvVlOfu5Bj32uSwNHVG/RbIH8H2/R2XLl2qA/5GU0IaBToASANIUasWlvUahWUheh0aAY0AUWzXzrWZxNfyMtjCQ3GnnU66rfmUrVd8pW11ZMdhBhtbSIj+6GmC7umwMHayNfbGcun01/UMenFtj6D1TsO5xxTiTZNEY8yRjmKDfJu1ojIPPklVxk2kcriv7y/v67u+tuceAOcuh3uu5FFHkxShQLI4IW97hCAAeIeYd1++fHlpUlLSPdgV8Ow0oGtm0u40nX2gq0Qama5qBAocAjoAKHCnTBusEUgfgdm9evkZZE5Ba3nPFTaRg3CPvXPUil2Qe1J0n+ByqyI7/SyIfxVEFdAAX2o+2mHB8h/BZzmt7RZUPb5H0JOglQ6WTp9eh/5W0p4UwhY/KjLncuWpRP9bqNJbn1A53Ncv1qmL5/37GOeyw+KsnPaUK1e2LhEFmETymwzya3uoEjSiwCqQq6T6C8GohMBhT0hOTj6IQOAj8DUhy0ySAQemSzVE7wKkgqMoVQrPWnUAUHjOpV5JEUeg7OXT78HptQd5kGBTPNFx0aoFHgEYbPl387ns3AiPeTuqKsEpvhC4YOUXqpLJTIwlY02PjpFx3YMmm0z7hKAPSFCgtxqBipvYMMi3SQsq89DTVPGtz6jkwGFkVKpMGOPq5c3KUSl1ZlIP5JUtWza+XJkyT5QuXUq+Q2CAYJ6F8amdtDUUOq2ENZYCN9rhcOxyOBzfop6hQICZ5Q8eeR5chA6ZdAAgUdBUoBHQAUCBPn3aeI2AhUBMeMdhROaj2MpXAun7QJ92XLJqnBIgW96pU7FVER3fJOK5RKIG2q3uphgbuGjl25TJQ17tx3XrPCZ+eefdLAwEGWIo9PqASF7dIxCw9MuJoNtWpaq62i/75idU5ulXyC+gI7HNQF80uvqA86pbQpW7Mjht+d182U0RMyeXLl16eumSJfva7ba6aP8vGg7JucnShCo4NV6xMvNFv3udTucO0P/Ap/otAtkhHdIBQDqgFEVRYVqzDgAK09nUaymSCERHdGjIJOTb/iyXB+8nTFqQaPo/5QZkRXjHQC4m1uMm/xj4QtffPTiijwIXr3zN3e96pRiLq/2IjpFrugVNdpLYL4jexHQ3g9TcqHupENjOt5NPu0Aq9eSLVO7f71GxfkPIVk7ecZDdhBpjZa66EOtS6lIGEiBXgrNWOwCuaqqiWLFi+0uVKvWv4sWL1xbCvBvBgfqan1DjVab6W3XFFkP+kmmaW4QQPcFfK51K06h3ANIAoqsFDwHXB0HBM1xbrBHQCBDFRbYrQ07+E1h4rmLh6rYn0eVh4VFRjs1Dm/oujwh8XTDFok9DEC6HkdAJ+fjARSueUrLrZHGRQbVWd+v07zUxnf4SBi8QZA6FCjsoZaSsgKSDNWrUoWK330Nl3xpHpR4cjS3/5iSYMaW7OzpK1ipOoukTXI23qVatmvx54DPujlKX7OaqmzabLc6qXz1n7AqULFlyor+/fwuTuR/GyrWrAdZ0Vi4FLq4GAoDZoC9BV3u4L20AkNUHCuW0mgosAoXLcB0AFK7zqVdThBCYPHSo7bLD/gvcahPlKC1vdsg0nH3Co9afXh7SqcXZ46VWkUkvAhabbJYEXqYfA7usegRjvURSnJpWR3RuvzKy8yQnmbsxx7/Q+SZCZpHFWDnGFS9OfiERVPql/1Dpl/9N/qGRxJChJb1k4oZ9rBA8iplqSabdQAAAEABJREFUwvGPrlGjhuv79kJtt0u91kCLQ74V9/7TOmKrSzo5M4sS/v4zixUrFozmbqD11j0JcO4koNXiAQWNBLscQUCqXyeETKa08/pKoSaNQEFGQAcABfnsaduLNALVju5/W5DohStchQN82Ul2Gj0Ola+zPza8w/PC5lwD99YahC7I0UF2BDf1sul/L49FaCAFaUhgmx+3DPqvjOi01CSxGk7zVnSR79lFAVXIhYtkIGCrUZuK3XU/lf7fR1TstrvJVrM2WpFkJxRyhGKRMdNfQpj/djgc9WrVqBFcs2b1L6tXr35RdUvJDqKrHAaJ4uQ0xETLIchSwm7AQl9f33bMfA8UHABhWZZuyUsSFj4twa8E3xGldzrtXQHv9QpC1HQqEggUtkXqAKCwnVG9niKBQExIh7ux0KelZ1RuTIiLgmkAG+LcTcf2LxKC3yJij5OSfRSZYsFpv3K3y9sDlOaQXyNcHt5pxMrojpvZoGnwwCEg1UtgsCRCqQQ2O/m0aU/FH3uOSrwwlnwDuxD7+qIJIQlyTz8wGJLERDOZaVjNmjXr1a5d+//q1KlzrV8WPIdhUosijFdmwCl7tvJVQyYzZjYRBHzv4+PTGPf9gQ853Sqg283KsgqyhZBh/eDST3Kx6bdoqUaggCCgA4ACcqK0mRoBNwLRYYHBJtOX7jqc5SXB5gBiaoqt+k2COFS2SYctSfIuWuZXyjGw95w5ia66KlZGBFZZHtHp3+UST/3NLL6HPnVLQaBVkvK+EMqSy5Ql314DqORr71Cx+x4hW+OmUoyeVlL9VabqmwTzk74+PtVvvvnmfnD8U+CEHarl2hniBdnBpchVwGlneQdAanMTbLjo5+f3Ahx8MPgtaTByd5PPAsxAH/fXGT07IK4Ovq5SF0UGgcK3UKPwLUmvSCNQeBGIDu7QUJhiKlboK/0i6BIRjxLCeIpMMR71ktY1ODiyDgEWN9xXiyR734AZ8Z7t9uiIgLqxXTt8ZZpiP/bD5f39iuhqDZK5rIDkeKNuA/K7ZxQV/7+3yLdnf+LSZRASyEbZ0SI1r6CzzDTeMDiwXr26LevVqfNRjRo1Tlg9MpbDVgQA0I3ucm4USOLvypUrp3qZEYQ3lLAbsNIwjHaIYK72/oPSmGA6goCaKH1A3kkHAN5oaL5AIqADgAJ52rTRRRGBZV3aVDINMROOtiK8L/wW4Uqef0X9feDRGyRliqT7hBwiydEmX7voHRwbew4Cio5sVys2PPAjwzS2kuAHBOFWgfS0ktBBuEj+vK4toBP5P/sq+Y8eQ3Zs+ZNNvmVXTiF7oaOVMFJEI4i4u2TJEtXq16//UN26dVdbTZnPsQuhPpdSZlBcVOY1XX8EMyfa7faH4eTlswGXUKYdVBmC30Bpn/r33F5Bm05FAIHCuET1h1YYF6bXpBEoTAgsCWtaUrB9NtbUAETSuYPOwulKx1XRkknHLDmQ9JkgpB12G3ULXLT6hPydgOjwwC/ZYd8Fjz2apOMn60A/6ASPBi5fgXz6DSH/sW+T3x33klFDXgCjBxJ6WP0s5hAzvSWE2bhxo0YhjRo1mpjOA32yZ2apnJoqJcMyRY4EAG7DEAR8z8ydUT8MSps6QCCfuUDhSXoHwAOFZgoqAjoAKKhnTttdZBCQX/djZ4mf4JsDQN7rroQgQDpHL8+fij1gGPYeicmmb3Ro4Eem6djOQsivuqntbKlLklsh31yPfEaMJL8X/032sG7ExUu4nL3wVmoKEgsx6bCLFy/Ubty48QtNmjTZ6daRHSVmq+yaWKlDnUzTXKIqOZghAFgPks9P/J3ONGmv+BWG6fTTokKJQOFclA4ACud51asqJAjA+XHlI3vlA3/93UuSTluSuy5LOGU4afRGctUPCkPcZTqdzxvMCWgcDafqL5tVX1RkP/b1I6NTKPk+93/k99izZLRqS8TeHwsYgUSuA1f7j7Vo1qxbs2bNpgQEBCS7xNlbCFI7GrBZ6WWiA1WrVt2jKjmcMbMMZmQQsP86U6V9KPA63XWzRiD/IeD9l57/rNMWaQSKOAJLggLeEibdJ522lx9WqFwZBEiXiV7w0iR4O5k8D+MegSTl6hUVklS6DNl69iefl/9D9kHDiCtXUWIrU+otVva1qqjLCr+6ZcuW8i5RthebN2/2hdJyciUoMSc4wTm6/S/n8SYEATLY6AXZWdDVkucrhFfroOWFB4HCuhIdABTWM6vXVeARWNyl/avE9JxaiPS98Phw6KrqziDCbry7ZpXoaqBfVzT4KQ8KMWQWW7Ua2QbfTvYxr5HRtRtRseJohZP1yiUr+0spM6lX71p12UJVTZPeVVwOZGXKlKmNeVmqVnMiYxY5vv0v5/MmZt6G+ggQLEB+ZcrI1xmvHKUlGoF8hIAOAPLRydCmaATcCCzq3O5xOPDXZD2VB0JFCEHyn2xzE0To7q5ZJbpa/dDIteuSDff37U+8QBzYmchug59N6acqcgBEVoFc0JpLly5FgDvs3Y6g5B7sAkSga7Ynm81WVyrFnGpKmZmmmas7AHJ+SQgCpqGcAEov6R2A9FAplLLCuyij8C5Nr0wjUDARWBTU7gE42Y/gt6X/U4uQDlGSqsgMFRkESJJVN8kxklTdZiNu056M0WPIGDWauInrB3lkI8a7igtqkpQ6xKgI3EBgeqxjx45nBYn/IJKA3J0EY47xcXFx1vaBW5wNJZx9XcyuTHKp21+1atW9Lj7XCgRZTUG/Y8J7QeklR3pCLdMIFCQEdABQkM6WtrXQI7AoOOB2LFK+mAbb4HC9qCjnq7yi5RddrKcie0mSXRXJV/J2DCZ66iXioXcQYdtfylPGSU7EEvFwJn5P6SevQzYTT2jdurX6Lr8zOfkrIvkgoZwSjUhEVM/fv/jnKLM3GUb9FHsE4So8V7f/4fRvdjqd36HciIUNBjEovaR3ANJDpRDKCvOSdABQmM+uXluBQmBRp3ZDhSkm4uralmK4dO2SIBEgV5KsJFWVDEj4+xF16kL81ItEfQcTlysPj40GdLJyugj9X5um0QZX9sElShT7XQhTfi0QPdBV5pgcxSkiE0rAIVlP+5svKStciiAmYjFi8+ZtD1I2HkKI5pY6ayLsCOTK9j/mreJwOD7GfDswv/zOv9c5gOTKpHcArsRESwoYAjoAKGAnTJtbOBGYL50/089YnR2k7udbvljWJEn3C5J+UZIUgSQrSpQkCu9O9MwrRL0HkChVGi2p0i4mfsZ0OmoEBXUaGRTUQf3s7vnz529Fr2og10W31KZqL7Zt2/aY5NzUqlUr+TY8eU9cidw9mcVHW7dubauE2ZCxoFZElnaZwzHnaAAA/WUTExP/B+e/G+Y/jrr8FgLYVEmakpRKQik/JJRGrquFCoHCvRgdABTu86tXVwAQmN+pze1M4hd4GTsolcUyCJCUIkQQAAepZGXLk+g3hMSzL5PoigDAzz+lG5GJbrOYqXdQUOdGcPzvd+nSBVf2KV2Y+SlZs+ZEjoT6Ejj/L1FekWyG8RCEJ6xuyJFQ9xeCp2zcuLEc+BtKe/Yckb/CJwmmQ5WgPdWrV7/e9/HRMfMJjt7/8uXLzyUlJe1m5pegoQRkKFIS6nKF0yFpB1JBE0p30jsAbiR0WWAR0AFAgT112vDCgMCCjm2HEfFEIrK5L/ul15EEmScJCCQpQdlycPyDyBz9HImAQIy0kxqrGukkE71rMDUICQnuGxwcPAcOzrSaUvLly1dHQF8bqLWEFnMRikaiv1WzWjx58+bNDwvBj6GPSp4GFnXtdt9pBw4cKOaRZYGx2RwtpWI1OTJmyvarfzh149KlSyMuX06UW/1vExHuk2BWzAfeO81k5vagAaB1aEj70qNEyHQq5AgU9uXpAKCwn2G9vnyLwLyObe8Qrm1/6X8kKWMFOBBy60pYCZFVqkzOwbeSc/QYEu0CSRiuP1/ZkXitEHy/r69PjdDQkOdwtS9fZoNBV0vm/6lhslm4OX4Z9/vlVriUpkutWjWfhABjkrtR7kdYRoou585d+AUO9nr3zt1DryiZna2UJSqTTllk6wOAuOXRHc4fONH30F7LbYBQ86lMimY7nUYHwzD6wfHHS4GL0t4COOuS60IjUGARcH2CFFj7teEagQKJwFx15U/fwfngyj9lCdINSVISNBLIrFTZdA4YSo6HnyTRvA0RPLCrTyKc709CODt37RrWrmvX0G87d+58ia5zxMau6spMXVQ36Fcl0YqAgLYfu/hrFqZpPoAO61OcP2oysRiwffv2LH8zgJmxAyAVSRLy/f/ZsgNw4cKFNnD+86F/HnDzPGNgzWLlCFzmgTrZ7fY+vr68RkrTUNoAQP2yYpo+ulqoECj8i9EBQOE/x3qF+QyBOR3UPf+fiQT27pHDPuWH4Z3AqiRZs2LlRMctw8kxarRhtpKOH54fHh9tB5j4FSZROzKy652RkZEr1KAMZszi/6ADva0czEXD4PvgIK+4VYC2K1KrVq0u2GzGQDR4HhQUsAt1JB65bduO94TA3gZqmUmwppVHDVFCjRo10vtRngyrPHXqVO2zZ89ORMAi32bYDfoBtspTdAgxD1f7QX5+fj19fX1XpjRcl9M7ANeFSHfI7wgY+d1AbZ9GoDAhMC+wzS3MNFEIslmuSOaS4JuwUMhJlC5zztl/iHT8fmaTZkQYQGgWplhsmjzE18det1u3iP/B8R+BPFMpJiYmHM46RA2ypiW46uew9b9dyTKYNW3adL8wjVvQPcmlBhaihgRzn965c+cXCAIy/PmifgNAUGMMR1Ias3z1f/r06XKgdwzDJtd0FxRadii1qMFS2DbDNI1Af3//nj4+PsuV9NqZCta8uugAwAuMwsgWhTVZfxhFYaV6jRqBPEZgbmCbISbRLzDDciZwSMrhQwCfROTvf9rRq29y0mPPlHK2aCMds2w5x0SfOR1Gs169ekT06tXtj/Dw8Cw9gQ6nx4KNN6VSkhODgQmzA9u3z9K2fcuWTZcJYd4O2x0ERVCnEgIMqf7BHTsSfliyZIldCa+TlSxZEpEO+UKXUmWavOw6Q65o3rt3r//p06efRcNuIkYp/Ml1WMsVgJ/+EEK0K168eP/ixX1Xu5ozUqRdh74FkBHUdJ98jYAOAPL16dHGFRYE5rRvNRiORzl/6Ssludcm7PZjyZG9j19+ckxZZ9sOPkRw+SS2YYv/MUdy0k29evV8rG/fbvLHaehGjujly2+F5g7SO0s9sOEo5pBb/2ClJPPUokWLP6BP/miOejOedP7Kg0MVdgKGV7/pptlbtmTk1wMN3ONQo2UMQMxmhp0zcDVOnjx5Z5kyZbaDfwfOvpxSAhtkQh2OX0xCW6sSJUoMAcmn+mVTZihtAKB3ADKDXoHrWzQM1gFA0TjPepV5iIBy/syT4GV94Cw9vglX4yeSO3Takfjki5Uc7QMrkoE/R3SCqTP69OndrE+fPp8NGDAgW640Z8+e7YfL/9fV/JhAJhp/sEoAABAASURBVDj/Bzp27Jjp2whyrDc1b978FyH4frhvFQS421CXbDcfH99VCQkJTWXlaoSle79M6ORNN92UcLW+3vITJ050g/OPh3P/AfLaFnzgrORAHXLRrFSpUreDNlviLOUl04zSAUAaQHS14CGAT5yCZ7S2WCNQUBCY0aHVIEEsvzaHK3u37zcvU/GS71x65sWSjq49Ggl72m/Omd8ys8jONZYoVUp+f7+OW6dJPL5Tp04z3PUbLZs3b/I9dhduwdX/RanL5fzdC64P2Ypdu3bJNw+CvTLBgVvvJFCr5jXXW//Ro0dbg+aZppiPsa2lRjXUyuR39r+BvHGZ0qVHlC5dWj4LILvcCGFXwTM8GfZd99sWnt6aKXAIFBWDdQBQVM60XmeuIzCrQ6u+hnBf+VvTC6aFDuaWlx5/6iey2f08jlI2w3mhnnTp0qWFsppdtGzZskpM/LL76h/T7LhQotgz2aXfradp06Z/wuNHoH4MBFblyLAqotJC0CQEAROxG5DqXcVw1PKByFYIHtCXsP0vrrr9f/jw4TpHjhz5AWuIR8/u7klQJ9zhT0RdPs/QoGzZsg+AdlP2Hd4BQKo3KmbfFFqTRiB3EdABQO7irWcrIgjMbtuyKxzaFDgkX7lkOKiTuFod1XvV+u79Vq1PEMJWRrlF2SgJHay62Dhs2LDzUpR9xG+REMqBYZpkbP3f1aNVqwvZpz9FE4KAlabp7Iy1b3JLMSdgcNfoLjaMjXv27Onvluzfv78h+pew6oIcRKssPiXH1X7VQ4cOfwLJdui7E/29P7suof4xkVmvfPnyj5QrVy5bXx+MAMUH5H0L4DDs0KnQIlB0Fub9R1R0Vq1XqhHIQQRmtWsZaBr8J654/eGsBLH4wTRtjfrGbfiSCa4Kc8OhlEFhJSELlREuf3dRNh5Lly7tjLnukSrVDEyvBQUFpfeiG9klW6hZs2a7Llw435GZvlNBjZrYUq1YQbWBzbQ9e/ZOh/NvihbX/X/Vm/xsNs8OwN69e8v+/ffB/zkcTuAiHkNfXwtBcCRkoPSu0+msU7FihScqVqz4j5TmAMngCafOo/mGn5vwaNKMRiAPEdABQB6Cr6cufAjMateihck8GysrBUeVYDhFZJ/VG0b0i48/DpknCcNUzwSgj5Ipxyg5k+DoJHPjNHnyZBsc7WfQ5H6gIObQP/+8iXqOp4CAgIuNGjW6FwHNfZhMPchouXfUXAn1fk7T3AQb/+cSyWJvtWrVjh08eLD4gQMHxvj4+u5BIPESkVA7BC6czgthvuFwOOpUqlTpuSpVquS0Q5YBgLTNTXoHwI1EISyL0pJ0AFCUzrZea44iMKN16wYmGfPh1IsJ4teMMxda9F67cfFVJnW65XCEbpaEENm2fV2xcuVHoVg9IIfyrDCdI3B7wTMvZDmeGjdsOAG3BFoKYVrv9RfuKV2MIPkZVBsOHrChTYi1f/3118O4qt9FzG9C6HG+GHGBBL8NfXWqVq36UvXq1VMFVRidU8ljg2sCHQC4gNBFwUZA/vEV7BVo6zUC+QCBP9s3ryls5gJB5nYis22/uPVje+/alXgN05wEjyZk5u4k6wbhFrhbkPVy0aJFtXHZ/1+pAWqJmB4PDQ3dS3lwNGnSZF/Dhg0jsIf+CKY/TVizskllkKSq8yBIxqGpGsRgZRIXkb9vMNetVq3KmFx0/JiWCMGI6xcDYZWSUE7vOFiz6DwPEChaU+oAoGidb73aHEDgj5YtKxtO40dmerVf/Kau/eI3IQi49kQ2IscVzt/yeGi69tjrtQohmNkYj36lLJfFk0O7dJmIep4lGCQaNGjwuc1mNIZNE7FUFNIcFwquGoIDQ7Eqo0uof5jk41MPTv8ZXPUflSPygKoDU+9p9Q6ANxqaL7AI6ACgwJ46bXh+QGByu3ZlDLu4g9lnSL+4jRNxlWu5rusY53DwSU8XNUJlZAi+4b/JxYuj7obuHpZG+ttm0EOo54tkmqYARvJrdPK7+ogDYJbLUDh7dz1JCPpECLN+jRo1nqpTuXKeOlzBXANWeqc8tcfbEM1nLwJFTdsNf9gUNcD0ejUC3giUSU52DFy76YO0D/l590mPt9lMaxvZ5fxchXwGoFJ6/TMqW7JkSVU40veVPibcLqe7u3TpIh1uRlXkSL/NmzeX3J6QMMYUIgHO/QlM4uu69gd7RfIxDBJnz57NrXv8VxjgLWAhanrXwesAACDoVPAR0AFAwT+HegV5iECPjRsvZGV63Ff2bGendoSiUVb0ucc4neaXcP7qoTUW/H5EROjVHkJ0D8nRMi4urvj27dvH+Pj47IcjfROX+K6XAMFKObMg9Q0BBC1ogsASo6sYXbpMmei//vqrHqR5nTw7AALRC4y5oZ8pxnid8iUCRc8oHQAUvXOuV5wPEBg2bNglbIUfT+X8LefXMKvmLViwYCTG9gPJtOHSpQuvSCYvCE6/1LZt214oUaLkXiJ+E0srb3l4wqHc6Fxsd/Rmpje9nL+6LeBV78DMa//++++7MCjPEqxVAQBKacMJ2HRGMpo0AgUdAR0AFPQzqO0vsAiYglJ+nAYeUgYDKJpiG9+e2UUtWrQIV8psbf0TXWYSd/Tu3fta30LI7BQZ6r9x48ZyW7ZseRU7EftwsfwGBlWW63I5/3PM9Cl2P5o0qF+/V/369efAqbbFmqXPRzxAL6H9BdQTXf0xnEqjPvHvv/+Zf+DAgQZSkNvEzDWwFve0CGjcrC4LEwJFcS06ACiKZ12vOV8gACdtBQDwcF4GlT516lyQV/26rHzhDxzu91Bjva5W0JiuXbtuue7AbOywYcOGyps2bfkfG4Z0/K9BtfXVOenJBf0DDz/GbrfVbNCgweONGzfegXY4fMGwubPsYtWNqNq1a79lMAcQ8TqMIXWgE8puhmFsPHTo0P8lJCT4oZ4rCQGKDEBw28IyAvU9uTKxnkQjkAsI6AAgF0DWUxRcBPCBL+9HY7c++9eAq8rNHueXwpDNxr0zM1uZMuXkVbMVNAgxLyIiXL4zPzMqstwXV/yN16/fOJ7Z2I8r/ZegCM4SORLqmwHcvU6noy6c/tv16tVLtXW+d+/eFuhWDSTT6b/+2r1eMrVq1dp87NiRQGD/b7hdz20BtPmbQozFbYWtCARGoP2GvzIJnddMSUlJNRGpePfRAYA3GoWGL5oL0QFA0TzvetUZQGDixInq9bPYAoYfysCATHYRwhkth8BRysJDQpj9hRDwnR7RVZl58+aFYPxYV4fjcLb35pS9rjlUsX79+vB169fPME2xlZkeBED+6oodDBFHQdanaZMmLZs0afJd8+bNkyidw2GaPTxxjzDnhoeHe16CFBAQkIzdgP9jIuwG0Eo5XKlWGdVF/fvDR45sPnTo6DBglWOfYzabrRbm8iTMpW8BeNDQTEFHIMf+cAo6MNr+oo3AuHHfqKfxmdlyOTkAx7Bhw7bCoRz0qMZMAh4RRePp06f38MivwsD5VzYF/YJm9cwAbik81LNnz0Oo50iSW+9r1669Kz5+3VpTiMUwtS8mcgEknCR4CoKA9s2bNw1v2rTp7OtiZ9JQjEfCiolmgLki1axZc2ONGjcFmcyPQb9rB0GihK6CGuP0/Hr06NH1h48evf/AgQPFIM3WZJqmJwDAucJmgNA7ANmKcP5QVlSt0AFAUT3zet3pIiDvp3/xxRfdbDbHgREjRmTpK37pKr6akNn6mh58oMutqZ5CGM8r5irZ2LFjDTinH9BcHQS/K37r1q3b74rP5mzVqlV11qyJe/PMmbMHTEETiUUbgr2uaS6SMD/DlXrDli2bD2vRokWcS37NYteuXfWZqb3sBFWXUM4CpZuY2ax1002fmaajKTP9hv5Yr7urqrVAFPK1n5/fgWPHjr116tSp2u7WGy3h9FUAINQ0RHa7XQcANwqqHp9vEDDyjSXaEI1AHiMwYcIE/2MnT95Svnz5xaNGjZLvn89xi5jMGdKZuvyLNZ+qmOHTpk2z7utb0lR5hw4dXhTE3ZVQ0AmbzZA/lauq2ZHB8Rlw/H1XrVozC/f3d0HnGJD1kiIBjugYEY91OJJrt27d+rGWLVtmyjE6nUJ9tU8GPcKkP9I+H0DpHLVq1TpYvXr1ocLkrkRiA0j1ssxRbAXkzzuczt3Hj59YdOLEiZFnz56VMoizlpi5lqVf5fIWxYGsadKj8i8CRdcyHQAU3XOvV+6FwAcffFD24sXLD9uZ/8DWfK79Yh6u4uXWN7a2lYNx+zQZE4D4G+xIXLGtPXv27FBB/JoyX2CIoCcjIyOtNwsqYdYzOP06y5evfHXVqtW7BfEMXO3LBxLV54RQasVuIfhR03Te3KZNq9dwrz7Tb+tbsmQJYKb7pfOXKg2DJsgyo1SjRrUl1apVa4cg5SHYdIyQAQU13MXaUEeQQF8mOxyHTp48Pfv06dMPYGfgZtUpc1ktEkorCrGbmV0PJWZOie6tEciPCKg/7PxomLZJI5BbCHzyySfVfX39X3Q6k8fhyj9XP+ARbGD7W/zmvVa3Y4Sskb9/sTdRepK670/0MwRwcnBzQszs1av7j6hnOa1cubJ09PLl98UuX7nU6TTh5Og1uDw4S+RIUrEgXsMkhu3ZvbtRQECbcXD8Wd4hwVV8P1h+k9SLWwf76tata/1UsBRkkOCIndAz/vIlv4bM9DaGXRTI0gkGfIjMXggWviLmvadPn0k4c+bM5+fOnbvl4sWLantfDrsaYZynDzNvvlo/LS+4CBRly3UAUJTPvl47ffrppw2JbePhJP4zevToXH9xjjwFpsnfyVI6Ly/nT7JuCvH4tGkz75Tt8r5/crLjR8hd9/3pPJH5sGzLLMXFxfnExMT0io6O/TnZ4TyMe+jfkDBDoAcscpkEmcw03ckU3qF9uw5w+lMQsGTH7sizbmctBH/HuMcvp8sK1alT7nSVKlXGGIZRH7h8JgSpbxy49ROEHr2WsD7qD8GxT3E4nPsRCBw7f/78PAQDb54/f3E4yk4XLlxQX01EHxlkqUAFYwh1HQBIIDQVGgR0AFBoTqVeSGYReP/TT5uZgmcymc88+uijcKaZ1ZA9/YcNGxwD77JcpHFWrjoTm9/OmDHj3nbt2r8EH9ZNzQqGyPxv7969M/xe+hkz4oovXrp0cFTUsh8uXLh4xDTFbMxxO/QVw/woyG3BKWGKd5mpfocOHQZ0at8+SjVmQ7Z9+/auML2zayLT4TC+zwa1VKlSpUNVqlR+zDQdjeCov4d+eb/eoxqBAXjMjFwmr3pF1LsDizHM4ifwyxFMHLx06fKlxMTErahjBwG4YCgz5+rLlTC3TjmOQNGeQAcARfv8F9nVv4crf5spFsD5P/vYY4/tzHsgbG96bICz8fCSEewDh/UtnLXnvj9c0k5cuX4gm69FuN9ecdGiqLtQ/lGi1PljuLyX3xSQOwrlPNNAudSB+iZEG6N8few1Onfu+FxgYGC2f+cdc7wM5yynw448TW9UbU7TAAAQAElEQVTSpM4+VcmmrFq1avsqV658j8NhawCMPoFa69YAGHeCDWCtHIzLnCvq/mhrCPK0O51OvQMgAdFUaBDQAUChOZV6IRlF4IMPPrjZ5hSLBPGfjz/++PSMjsvJfkOGDJgJ/Rtd3gaFQBUpdWGgQQmZ6Ulsx6vtbgg8aeHChRXmz58/aP78hR8tWLhoo9MUR4nMiaagQRhb3OqIUMJiZH4Jun40TQ4LDurcEo7/S2z1Z/n+vlR4Ndq2bVtntMmH81CoJO/dKya7s2rVyu2rWLHiaB8fn9rY3UDgJNTDigpOlVkzKlZl3nUvgRRbAVKir69vgqxqKjwIFPWV6ACgqP8PKGLrf2PcuHKCbbOwbB/hTJavrgWb94mx/2wwPSUtSeWeIbiizjQDW/9zcFug+KxZ8wNmz547cs68eZ/NnTdvg9NpwuHzH8Q0GkNbwPkxypRkOTNCMBAPvY84HcnVg4OD7woJ6bw0pVPOcILZc/UPM5Y2aNBgRc7MlKK1dOnSxytUqDC2XLlyNXBrYDjWjdsZmN3dRfl6lVkSL1YKvHruwDlKdVtBtmvSCBRkBHQAUJDPnrY9UwiMHTvW1y/R8Qc8YlPB4pmnnnrqdKYU5HDnwYMHL4Zdkz3TwBnBSXuqcF5IStho5qzZBw3DfoHZuQbO/ks0PEKCW6KzgR4okFyMq4DTF8fh0D4xTaN1WFhIQFhIyOfh4eG5gsHWrVs7kil6wSqVEO+8pZhcyuC8E8uXL/9LuXJlw3GPvwmCgbeBxR6A4rEAdfAetBA7oUqeut7+l3AUKtKL0QGA/j9QZBAoWbrsR/jAD4NTXf7k44/Lr9Llu7XbDeNZIr6c4nfIOpQfUpmsN0R7NawFhayCVBNWBlYlT10cQqdxJMyI48ePVe3aNWx0165dNqg+uZTB2TKcq3xeAbGXsnpDw4YN5+bS9FdMg12BHWXLlh1TpkzpeggGWqPDa4BrLSzzXOGjDrGVgyHsXugAQAKhqVAhoAOAQnU69WKuhsA7779/L7zPQ6rdpHdxRZjy6a6EeZdNnjy5/uTJvz045bc/fnU4zXgSQj6ARh537rLUVcBPSVs9renUeR+c7odo6BIbE1MjMrLroxEREYuHDRuWHV/hk5NninD1PxwDOoKsNQnxdn7Bv2TJkhtKlSo1tlTJku1KlChRFgFBGJz9XJwDaa6HhNOJAMFT1UwhQEAvgUgHAPp/QaFH4N13323KwhgnF8okdteoUW265POKfvjh92o///rrnZN+/fXbSZOn7MOfYQK28cfDYQ+DTZVA5OXeZTWduhK7MvG3IJ6CtT1sMDXs0SOyTo8e3Z7q1q1bDG57mK5OeVLExcUVx9W/+oaDsCzY2rhx418tNv/kp06dKnvhwoWRCJzG41ZFT2/LIBN+fn5rvGWa1wgUBgR0AFAYzqJew1URGD9+vI9g4wc4V1xVC3ISf5TbV8I//fRTuR9//GXQT7/88snPP0/aarM7DrIg2MT3oqydytnDS2aivh9Ov2bv3r1q9u7VY1jPnj2/6N69e8JVwciDBjjO5zFtDRASVmbyS8zsRCVfpNOnTwecPXv2G7vd/g8M+sA0RSP8XwFrJQQvktkFm09KRlNhQUCvQyKgAwCJgqZCi8CZcxdexOVzW/mhjg9zJzmTf8npxSLoKP7ddz92nzjxx7cm/vDTGlPQMWLxB5n0GPx7E2mLsgEVJMWqDBUkxaoMFbhMxarsynpt0+Qeqi0fZps2bapJxM8RDrUOIWKbNWs8DdU8Tbii9zlz5sxtp0+fWQXHLq/s74NBcqcCBUBGLhP+v6CA5UKsBqOTRqDQIaADgEJ3SvWC3Ai8/fbb9XAv90VZVx/mglY/++yz6vvgUpZdBIfv88033wd/+93EVyd89/1SP/9ip5jFPLgSXP2KAMxjQxAiE1hIkcuKxVk56ifBzYK72SCbUVeFJ0OjJ3CQQnedxdvy9wGkKB/SZ7CpONakTIfjfQH1PEtym//kyZPPnz59ercphAwEO7iNUXB6ge5ddwUJ7q66LAQI6CVYCOgAwMJB54UQAUHGh1iWPxwPCiJmmkPZcOC+uvH111+3+eqrb575+ptvZ9vtfidxhR+NYOM1qA+BH/G1HAhqMqGCBM7K0Y54RGyHY5wgmB7ANn6zoUOHVKxUsfxAg6g82tFX+kxPf1ddFbIBDEYjRyqfnGy+jzJfpY0bNw7HIvu5ViBtm968efMYyeQ2HT16tP7x4yc/MU3zAOZ+CzbVtDAGB4HKVYYK0UawqR4CxDi9A6Cg0VlhQwCfN4VtSXo9GgGi199+Owg49IVTRmElXJVnOQAYN+6bRrjSf/jLL7+aUu2mGkdNwWuJ6V1o7gVXXBIlElyHJwdjeRmZX0S2lIlfFyb3S072rTT89tuaDL/t1vtuHzbsm2HDhm1lGHf0xIm+0IBtc+njwUkVFm1ALZUTQt1qQc5Md8yePXsE2HyRNmzYUFkI/siyEblgJ2zM9ZcuHTlypPOxY8emMhs7iMzHAE5JWEM4F2AV52aThDAnCSG6lCxZshUT7UEHd0ouVqzYendFl4UBAb0GNwI6AHAjoctChYBB/G/5SW99zKulOc+ePbtRcRnIPv74qxqfffbFiM/GffH955+PP8CGE1fsPM4UdAu8RgWpW6oRnglcjFUcQOAxCYHBEyTM9jVrVC9z113Dw+644/aX77zztpl33z34hByblliIR6AbyVKi2sGaJr1sOm3DiOkkGpEgVI3IwGIeyPjzWbNmtYAkzxMw+Rg2VVQYSfuE+KJZs2ZbcsMwOHE+fPhwPzj/aGKOhS0DYYch54YpYD2cZP6Gs/+XzWbULlOmzO2lS5d271DIFyrJdhKCNzHzJVXRmUagkCGg/jAK2Zr0coo4Am+88V4beMSuQn3ie8D4C1v3V7w739366aefVvj4489u+fjjceM+/XTcdsOWfABOTP5S3QioqSE9Rxp9UiSHJyNbDUfykTDpVofDVvPee0bUuueeEbffM2LExyNGjIgLDw/3vGAGfdNNkyZNakiCIzFXSjsqsCFmyJABs4YM6bMfAQJs8bIC7W4jMKg4s+037ASUBp9nad26dXC4dKuyS9lHR5zO5Fdy2qDNmzf7Hjp06O7Dh49swlzya57BZM2PqitZdcQIYhEkQ+D064D+i6v+w6irhEbALFQgJZFmFqtUg84KDQJ6ISkI6AAgBQvNFRIEmB2P4oM81WqEKXZ5Cz777LOSH3zwSS/QOx9+9PFah1MchbOdQiweRtkotfOA50ByjT+Oy8IZaH/JySLUdCaXfeD+ewPvu+/eJ++//57JI0fe+berXyYL++OYAnEEcjkSBRKZBnu2zgcMGDCLmCxnKhthhCpc/eF0GxLzlMmTJ/tKUW7T2rVrKxHxOGWTylBjeq5NmzanKYcObPGX+vvvv58uV678bjjs74BBMzmVa3qwFof8DBF/IoTZtEKFCpHlypX7A1f2VwRmp0+frk1EZQQy6CIhRLRidaYRKIQI6ACgEJ7Uoryk999/vxi26XEFmoICPsRJMP317rsfhrz77vuvvfveB9GXE5NPCjJnw+E/S4LaoHfK3wI+/ZEgIhPZFniBr03ie4Vpa/zQqJGVRo0a2f/BBx9446EHHlg2atSoG/7lvF9++aU6s3hAOhzM5ynAzx46cGAqBzSwf//XYe+3aEMhc5AyVrjq3L1UqbI/YLcjZT3oktMJGOPKmSfAFPWKYtd8S5s3b/6ji8/WYs+ePVX++uvv/yUmJu4n5vegXO3SoLRwgCEuIDeZRA8L06xRsWL50RUrVtwu+1yN7HZ7O2uoymW3ZTLTVFgQ0OvwRiBXPyS8J9a8RiAnELh8ObkH9LoeygOHy0LkhEvr+wWZ8hfvXkU9GOQDgo8QlsNQFToPwWI4jP9A2Ds56XKFRx95qPkjjzw88tGHH/zukUfu32F1y96c2fYirPD31oq6k4RTfYXRWy75w4erPSRYLJS8mzzuSgnMYR06dpZfwVO13Mji49ePJqY+wE8lzJkshPkorrJTm4aGG0kHDhyov3//X5/b7T77EDS9BOXlcK48KlGX8ych+xVzh1auXLlllUqVvkCJc+vpdlVGCNHRrQ98QvHixeULgq7aXzdoBAoyAjoAKMhnT9t+JQIG9fYWKofgEcCtenjJiH3YGfgZwcHjBou2p04eLzf68ccinnj80Vcff/yROU/lwq8F/vjj7zVgI67+pT0gVAQ8EGz68pZbbkn3ocVRowKS/X19B8LhxqIrEgZhqEpgkdAkHpo7b9643NgJWLNmTRvspLwFp6uStANr+KB169ZbJJ8dtHv37oB9+/ZNdjpNeQX/ECbyl+vE4l3qMSPRP8DtVbvddnPVqlVvg9PPwtU7d4RupRMBhAwYFa+zwoGAXkVqBHQAkBoPXSvoCAju4l4CruDcrCyThEkr4TQ+YOJbHMm2m55+6sk6Tz/5xB1PPjn609GjR6+Ds3TIjrlJbHO8AIdjXf3DOCQ5/amkJF+5UyH5dKlHjx4X7IYhgx35JjurjxqsMledH+7cufMvOflMwObNm0sS8yRM6Od2xsy0/dLFi2Mhu+GErf7uoIVsGGuwmTMUCm3Ay5rKWipysdhkvqV6tWo3V6tW7T+VKlU6hH6ZTvj/4gPd7dwDUdcBgBsMXRZKBHQAUChPa9Fc1JtvvlkGH+CN5Orx4S0LD8H5937++Wc6Pf/s008/88yTv48Z8/hBT2MeMT/8MLk+k7z3DwOkG0MB+wkByv8NH97vum8s7N2791lsg/fAsNVujwg1qCIpRpApaFiZsmVnTpsWUwrSbE+XLl3GrQZuSPDOLuUOB/M9CDyy/NW5JUuW2Hfu3H07rvrXQa18o2KEtT5rBtfSzqL2qdPpaFajRo2ImtWr/87MNxTAnT17tg10FgOp6QzD0AGABKPQkF5IWgR0AJAWEV0vsAjA8TSA8QxKlWQwYBhmnn49LpVBrgrbnB+C9Vw5S+eP+taTJ49/gTJDqW/fvqd8fexdEQjMV47RM0ooJ2ZVuVuxYpfiFi5c2NSqZ0+OrX/52wYjXHYrpXDYbwe0arVKVTKZJSQk+O3YsWMEHPoWrOdn6GrtrdtSJ3bgBL9gms7atWrVfPzmm2/eZslvPMf/k25Si8JRiD3Fixc/IOuaNAKFFQEdABTWM1sE12U4qdYVy4YXkTIhDOwOSC5/0M8//9wPjqyP2xqXuxYm06OjRo2S7xZwN123lLcD4KwGQN+fqjM8GJJiVQYMUG9oCloxf/Hi/kp2g9nq1atDoe995aChXKpDsal06ZL/lnxmCE6/Iuj/TNP8m5i/h7kNrfFuVEjiMRlzhcHhN65du/ZbderUyYmvFqoAQEZO2E3QV//WSSg0uV7IlQjoAOBKTLSk4CJwhZOHU1KrEWyWVUw+yCZMmOAP5ymv/uHTVLKsEvTt7UOHRlmVzOXh4eGXL1w4fwuCgE9cbtNSZfpdfgAAEABJREFU4AbAqpVmp/nnokWL3riR5wJiY2Nrw0lPgUof6SxRyiJZmM67GzRokCjrGaFt27bdDPrYNMU+6BsLUytKRe6xqB/EesbKN/XVrVvnVjj9HHPKR48eLQmn3wl2YHrMTJSl80D60AgUIAR0AFCATpY29doIMJO6f+vuJaxPc1UVgsspJh9kdl/fMTCjrnR2ytVIhuiIYdDzkGc5DRs2zNm7d6/RJFi+995BSrmwCqlV1YkRfLxQvkKFlYsXL1YvzZFNGaW4uLjiht0+Faoque/7g8cc4qX27duvy4iezZs3t9q8ZctPcPwJQtDjGFNCWSkVoYIE5yuGnTl9+uZ69eq9hqv+LD3UBz0ZTn5+fqGwxdcVjglmXpDhwbpjAUBAm5geAjoASA8VLSuQCJjEF69mOAtTPh9wteZck0+cOLE5mfQiPKZMmNfyekziSTjwkxDccOrTp+dnwqR+zOK0pR0qFSNcc8o6t4HDi1u4ePHT2A2wQXLdhICKk5Md30JJG7fzl4Ogelr7du3ky3hk9aoExx++cePmOei/DjqGo6MdBBYSQeeI+HPD4OYNGzYIb9CgwZSAgAC59U+5cZim2d09D9a5vkSJEjkedLjn06VGIK8Q0AFAXiGv5812BAziM+kpxQc6fC5n+mo3PV03IoOj9cU97onQ4QeXh8LK4QFn33bbbfKrdJBlT0IQMBdOLQDaNoCQvJw/avJKF7P7M/F7FStVlrsBnq+/qeZ0shUrVryNMbfKse5m1Pcm+fney8xg3dKUEmu2rdu4cejGjRtXm6ZYTEw90coglWDVNgQTj9ntthqNGzd8BI4/294doCbIYAb7u7nXBX5uBofpbgUEAW1m+ggY6Yu1VCNQ8BCAg9l/pdWWX4LHaTR27Fh1xXlln9yRXLx8+VUill81o5SDT8N3PpRSzz6ud+/eu/39fDsyiW8sFFy6cenv4qxCiADDMFYvjlo2ceHChRUsYeoc9/0fEcTPKqlQucwShekc2qVly1Oy4k3bt28vFb9u3YMNGjbcinsOkzFle2sYcoF4jHgmM3Vr2qRJs6ZNm34Gx3/We3xu8idOnKiBILGJ15xzvHjNagQKLQI6ACi0p7boLcxuFwlYtQnyJDgeN+/nW7JkfXclt0ts/Qcy8Rhc7cuE6eEIkaPy2O23355jXzcLDw+/3KNHjwdw5T0S053HfCjc17pgXQCZggwECnfZ7T5bo6KWPSy/i49WleD8bxPEn6iKq79QFX6iY8eO8Yp1ZatWbagTH7/u/QsXL8mf2h2P+VxP9MsO4jAJ/o/T6ajVvHnTfnD8CxnRj2zJY/La/qczpUqVWpnH9ujpsxUBrexqCOgA4GrIaHmBQ2DMmDG4j0ybr2a44RCetwRerU9OyD+bPLkkHOxEEmS3HKeVk+Apd9xx2085MWdanT27d/8aV+vYfRDybYhWs9sMq4aoQAkqI1gYZ9jtm5YtWzYAFAHbv0cXA1v1KNBN5kzvBwa2Hy9ZSWvWrAlasyb+N5vNgSBMPAVZaVLqwBHFYNTtNsOo3bJl81dbt26dr96vj92P3tJKK7YRMijJtWcP5LyaNAJ5hYAOAPIKeT1vziAgRLpfFcMWLwkWfXNm0qtrxbxc/NKlb0lQQ8sfWjmc6WHDEI9cfWT2t/Ts2XOXj4+9C2z5P5ADThkFWYfbLKtG2KRvTMR/EhvziMgX9qJwJaYpHTt0eG7Dhg0lVq5c/eCq1WvkG/ukkx+CHjalSogLzPSladpatW7dqkurVq0mNW/ePAnt+SodPny4BM5RL2WzZZm+/2/hUGhyvZCrI6ADgKtjo1sKIAJC8NS0ZuMDXomYOGLs2LH+qpJL2bfff/80nOlQLwdD8Lowie8fPnz48VwywzMNbgk4uneP/LdhUBBs2ulpkEalVMChFTmSDeRJQuBq3jTfgOP/8NKly/9gtwC7AKK1u4Mg2kHCfFII86Y2bdqMateuRbo/aOTun9elj4+PdP7FsXyYIsjpdOoAAEjoVDQQ0AFA0TjPRWaVDRrUWQYP+89VFlzCv2TJ8Ku0Zbv422+/DWWiN+EUXbrdnPhwxIg7ZruEeVJERESsNp2OtoL4CxJw695WuKrCLfOqC6bSRIz7/uJxtJcB1jI5cbX/J5juAe3aNgkICPgIlO43MiifHSbRLW7nD9M2VahQ4W+UOhUaBPRCroWADgCuhY5uK3AIDBs2zMnEuCq9iulOMeIqLdkq/v77728SxL+SSa5vHgiln4nW+Pv7vaAqeZz16NHjQreI8IfhvN+xrINBXs4eNfh0q8XKiViIlkQoSB1OBA9v2mxG3fbt2w8CLeD88VCfMu562YEDB4qxoD5YpLsrghg3q0uNQOFHQAcAhf8cF7kV2u2GDADOp12460J38Ntvv101bVt21idOnFjC4XBOxZVlFctxWjnqp+FsbkWQkuf3whcsWFBmwYJFjy1cuGizKch6A6HHTBca1wkG4Pxxe8CQ7w8okA/NFStWTP6SYknXamVxxe0jKdRUcBHQll8bAR0AXBsf3VoAEXjuueeOkuBPvU13OX8p8hVkWN9nl7VspsmTJ9sSkxy/wHe6vvfumgDO1WQxcsSIEXtdkjwp5s6d23bevAVfCsG4TSI+gVnNlCFgEJyQKqRAkHo+IaXu4WQrurrropvDaa5ftWrVcGCMDQ6ruSDkQtAtWIgyFavZV65cuQy9ylgN0JlGoBAgoAOAQnAS9RKuRCApyectSA+DrkhwVA+///77N13RkA2CU2fOfYQr435wKC5t4GQS/PF9d9/9m0uYq8XMmTPLzZkz55E5c+atITbiiWkkHF8JmOVlh5DOfz8Tv2kwtQRGn3k1elhrjJVLocWJykT805o1cYtXrVrbigrAIX96GBj0laaqNaTz8Khs01SQEdC2Xw8BHQBcDyHdXiARGDv2qdNMlM6Vvvq4L56cbL6f3Qv78suvn2USj6oZlHKLM4mik5MvpWOL6pQjmdyJmDlzTo/Zs+f8Yhj2g4L4Mzh++Wpg+D2RMifTMRLmOGYK7hoeVic8PPTF0NDQTczUw9MLl8pyAOpI4KxcBgyoIKXUw9hwrluzZs3v8fHx8lkBNObPVLZs2W6wrIwyHRmz0Nv/AESnooWADgCK1vkuUqt98cUx8iU7v3gvWuDDXtWZhr317rsDFZ8N2edffnkbrqHf8uh3u0dB/whn8tBRo0blyn3y6dOnN5sxY9brxYqX2Ecs5sKe2+DxU776aK3/vCD+URjc224Y1SMjIx/t2rVrLMMLSiiio6PLCaL2kicokCXqUMMPIcB5EPW/VR1MqnZVR5hBPNgUtH5NfPzCuLh1A2UwIpvyE5mmebuyx1rIEWz/L1d1nRUaBPRCro+ADgCuj5HuUYARSEq8BIfF2+USsK0tixQy6ev33nuvZooga9y48eMHsiD5pr/Uf0+CEk2Tbhk5cuSRrGnO2KipU6fe/Oef01+YNm3GBiLejEDkRSKqYcUgqKGClARnPR0Y3J6UlFilR/fIu3pERMyR7wVAW6qE3RF5dWxDfyW3fCTtL1bMd0JQUNBXGN+ABD8rTHGt5wRkOBGBbGr9+g0OrF27/pO1azeGYP7UGKkZcjc7evRoSQQ7A1yxDTHTdGZ25q4VejaNQN4jkOd/jHkPgbagMCMwduzY88LkoVhjqp8KhiOCiCrAQc946623SslKVmjcuC97wfn/SoJ8XI4SasAhmcyPjxx5b468V/7333+vNnXqtMd+n/pnLLGxB5O+AWqJaVEgKUYkwv3PIsH34b5+tV69eg7o1avHpH79+qXCAr1TJ6b7SI3HRb+7RZhvBbh+nhdBw+WgoI7v2WxcDz3+RcQH3cEC4bCGWjmqUlU1YvEYs7l0w4ZNf69fv/GTjRs3hnr/3oDsl1uEcz8A1pWw5hMIAFhv/1tgFKJcLyUjCOgAICMo6T4FGoGXX35uMxM/gEXgdjxclvvSDwJB1IrZPnXs2PHFUc1U+vTTLyKIzT9IkC/0uMaCQ0Ll4wfvv/crlNmWsJVea8rvvz/5++9/RBMZf5vC/ISJOmMCFFgXDAF/CdPDofGdfn6+Vfr26YPUc0LPnj1Pou26af7SpQ2gqTsopS9uY5w/f/7bFIHFdezY8WynTp3+62M3bhaCb8OYGMyNRuRIYCyLZO6pCxUMCEFRFSpUPLVp0+a5m7ZseXHTpk2d4+LifOSYXKA7pEmwV051Btv/iySjSSNQ1BDQAUBRO+NFdL0vvvj8L0z8MJbvckXgVEKVKaJEiQuz33zzzTJKlIHs43HjurBB09DVHxpQyOThZpcpU+ppKblRgtNv9OuvU8b8Onnyalzp74Pj+gDOMxhX9il/u4JwT59+xf35Yf5+vpUG9Os7uF+/3j9169Yt02/jszmdD+NqnqXd7tVgvn/37t07UcrSI7kz0KlTh18DAwO7YKehLQZ/gX4nrPHIkVCH6a48pV4S6+hBpnid2YgtVqz4qS1bty7YsmXbG9u3bx+akJBQD1frUCfHZQ8dPny4MtYjb3EohYJ5KjMnqYrOCg0CeiEZQyDlQyRj/XUvjUCBRQBBwJemoGe8FwBnYFWZQu1231XvvfdeQ0tw9RxX/t0MQXNwBVnCM97VHfVNly/73z5s2DCnS5SpYsKECf4///xzz58nTfr4l0m/7jJN2g5/+SYRy4fy4OMxq+VKTxPTDySMgadPl640aGD/2wYMGDBFvt2PsnhgS74kVN8jh2NOWWAysVUIxxVX/1bjlXn79u3XgeTbBauR4N4kxET0OmvpQ46EuiuhguSqEIKBEsgimekF4DjZ4XTu2rFj56mdO3cu2bkz4YMdCQkPICjotHfv3rLuMZktEVAMwxg7FoYCuZNTPSSqhDrTCBQRBHQAUEROtF6mhcDLLz7/ATG/ImtwBrLwEHxRI0FG/LsffCBvF3jk3swnn4wbKMicAZl0VijcCaMFHXHYuN/o0XeedUszUv7000+1J/7440M//vjLDB9ff1w58xw4wsdB9aAVKqwc9b9NovHC4F6m01FlyKBBIwYP7j/t3nvDL6PTDSeHw3wWSuQ3AFAgwQsLYYzBPX8HaplKclegffu2c1DeffbsmSoIVPrD/s+hZC8ILNaEJHlJAhKZJC/Jq14GZoSh/iQLwi0VXu50mqd27d799+7dexbs2bP3IwQEo0ChCQmHKsmx1yYeDrevukDvkcqVy+vtf4VGYcr0WjKKgA4AMoqU7ldoEHhxzHP/E6YYhQV5HJtXMFCSBX/17vsfLXj344+boo8nffjJJ3fCEU2BA/GTzirFf4ETdJFZDHjsgQf2ewZchRm7ZIl94sSJod999+Nb30/8cZPTFPsw5+fQ3Re6rWcRBDgi+a79FZC/zCTaDBt2S81bhw55aNjgwXOxw5Ct29a4+q+KK+9nMK1lNRjUF4eHd5lpCbKeI4C43K5dqxlt27Z5pE2b1nWhtzHUPwWN2EWhs6Q6ac4AABAASURBVODBpiSsN6UC7ip1+SKnSDSPBn2BoC7Kxyfp6P79fx3/66+/lh04cGD833///eTBgwe7Hzx4sDb60JEjR+RDix0lL+dEAPArs376X+KhqWgioAOAonnei/yq5e0AEtwXjuAstqlT4wHPAIcbaTjF+g8++vib99//rP5HH33yEJz09+hoJwxCAisTOEEIJPjWUaNGrZKS9Ojrr7+u/82ECSO/nfD95Nr7/zrmNCmKWDwPN9+ccEALcpWOQPYTEd9Fwln19ttv7Xz7rbe+Doe/nnLwSE52joUN3u/FT3I4jMdzYspWrVrtaNOq1YetWrXsvX37tvIGUxsSPJqZJgP6f9ScMEaWHufvqgMbKfYUklFNKpNNogLYLtDzIOgD0zTnmULs++efg+ewc7AEPRjtchhY82dkOhUyBPRyMo6ADgAyjpXuWcgQeOGFZ+eRaQTDIRxIWZrH5UiRD4KD+9hwyvvw4yDA30uqdoiITOKHH374wVRXyl999VWNr776ZsRXX3/7HWg/sS2BBH1JJIaidN3DxsxEF1Gfh2DgWdOgVncMv73aHcOH3zl8+K0/Dh8+XH3PXk2Sg9nChQubMtP9ningOYUQ70RGhmz1yHKIQWDjbN68+foWLZp90qxZs1ubN29aw26z1RCCBwpB/8O084GP6xsMLuwVbGhBg2JVdt06ghtRU3VVGe2uUqXKajlKk0agqCKAD7SiunS9bo0A0QsvPL3JYCFfkTtX4gGnIwsXweFYzsIGAcN5Ix4A50loFDT2sUdGff35559X/uKLL279fPyXX3wx/uudpuADGP09BtyN7rXkWJSyuIBRiyF/zWSKOHP6VPkRI+7sOeLOO9+7e/jwjYz7CKpfLmWTJ0+2OZ3ia9hkV1OCQbm7WDE/6XzB5n5q1KjRP82aNZ7WtGnjV5o0btyjceNGFUzTWQdBySBh0muwaDroL2WqylDLXDAA+M2fcxtraaWmnEZA688MAjoAyAxaum+hRED+euBzzz7d2yT12wGee+tXCQZcGMDzCNqJvPxn477YJIgPC8GT4IdGwcvL79KjUOk4IofpCAaeNZ3UKTk5sdx9994dce+9d4+9b8SIxaNHj77q1+tcE+VoUbZs2SeIqZOaRMgcblbwQ507d74ka/mFmjRpsg+BwZ+NGjUY26BB/QH169er7efrWwEIRxLxs4L5R2Dv2rEA2oRDrQclGmTuLjAGAYDQT/8rUHRWlBHQAUBRPvt67R4E5NXgmGeffo/J7AyHmAA36GlTjMeZyBoqVpJfGRwNh9IczkXeWz6L1lg0fYwrVVz5m81HPnBf5QceuG/AyPvvf0++FXBULv0mAOy4bsLWf11T0L9VRxiNdYDlcZGR4QvB5PtUs2bNk/Xq1VvkdCZ/RaYZDYMRayFPJ6nlKbni1lavXn2bquqsUCGgF5M5BHQAkDm8dO9CjsCzzz4b70xOasckPsZSre/yC9cVJQQqwYcgKVZlqGD34JOHH3qwLCj44VEjn3jooZETH3zwwS0ysFB98lm2ZMkSe7LDIR9q9LwSF6vcBWc6Jp+ZelVzEhISmu3evftzw2Y7SMTjiaiJDGJwOmSBqkxYlVXIXBGCux8VozONQBFHQAcARfw/gF7+lQiMGTPm3DPPPP0Ey90AEuuVQ/F0E7jY91TAWHVcej4+7ouv5n3++efy62mQ5+90KTHxv0QcTPKwFugUhnF3jx49LkhRfiU4b9uOHbsGJSTsWoTgajNMfwgnxCuIgeUQIgI4x0xTLBYyldS5SmJ5u0DVdVa4ENCrySwCOgDILGK6f5FB4Omnn1599szp9sT8PBZ9EU4F947BeRIcivIwlgABQzdBxsbPP/9Svm3OEubDfNasuQPgNOWa5JJgoVrHf3tERCxHJV+m7du3N9q2Y8cbO3cm7GcWf8DIrgp6laGGBYF1kuB5WNSdPj4+VU3TnEIQylbIFCtMmlmtWrVjlkznGoGijYAOAIr2+dervw4CY8eOdTz95Oh3nHajKXzJT+hugpBQQwLjSqggoVKemH79Yvz46V9//bV6AQ1k+SbNnTu3Puz7Dgax8ojIsKDFZ86c+g9k+Sphe7/Mtm3bHty2bbt8rmI7C3oBBqodFoQs0qejqtJmrOF5u81Wq06d2j1vvvnmn3CP/6IQPFi1Yo2qVOeHv1W8zgodAnpBmUdABwCZx0yPKIIIPPvYY/ufemL0nUxmB/iRxdKnoHQhAc5KXnXu53CKLeO/+ua58ePH59av3LnmT7+YNm1aKafT/B2es6y0H6UsDvvYjOHy+/jpj8pdqfxa4qZNm7pv2rLlx8uXEw8JQePh7Dt7W4G6rB5lpo+EMNvVq1e3Rf26dd+pVavWQdkgae/evf7YKegjeUk4PbI4eNNNVbFDIFlNGgGNgA4A9P8BjUAmEHjiiSfinxz9WASR0RfDtoBUcjkY8BZn5VSChPk2G7Z1X375reyP9rxJ8qd2DZuPvCfe0m0BbHQwieGRkZFH3LK8KOUDiRs3bozcuHHz+CZNmh4m5nm42r8DthSDjSiQLCYRTv83g7n/2TNnatSvX//JBg0arEXrFclms3Un4lKuIEcWUEs/MLOD9FEIEdBLygoCOgDICmr/z951wLlRXP33VjqfARNjY5+0kmwMmG66KSYU03sJYEoIofdeEggkXwghAVKABAKhhxKKKQEcSmwIpsRU49A7GFv1bGwIGJeT9n3/0Ul3Op+kXd1Jd7q7p9/M7pQ3b2b+mp33puysphnwCJx55qmPL/hy3kYkcpgj9FYhIBi1FnpBQhsQy5Sbb751+m233bZVh8ge8iQSyb9CCu6ezQ7C1Iyimfine+yxx7PZsB6+GKE/a9asXWe9+eZNw4YNNyP9aSjfiSjXCDMt0V4cyWDdHmWUk5ctW2qvvfbakyD0p4wfP76lnaazK5ORg8CvlRXqCwpzvR13NYqAIpBDQBWAHBB6UwQqReCSSy5xzjjjtPvPOO2UTUj4AEj61zsKfzEyqJ0t0w6OQy/dfOttD9/8t79t3h5RW9djjz32fyjJsdlc4GgtFN+55567X50N66HLiy++uPJrr71x0MyZs24bOnSVBIoylRw5AdmPgCUI/9aiEWeIeLowneZkMuENNlhvp/XWW+/GjTbaaCF5+L3zzjuDmGVf8M/xw02cGeFw+EMPyZVEERgwCKgCUPlfrSkUgQ4IYFpZTj/95EdPO+2ULSDF9iQIL4icvKHWH8RRq2Em/oHlyOu33Xb7U7fdducOrfG1uT7yyJTThPiSLHcxV0ER5dUVV2g8yfhqbWfMmDn2tddeO/vV12ZOa2wcPB+C+UEAcwyK0mGkD3+GiaaL8GmgiYwbt/6O49Zf//oNN9wwVWkZhwwZsiv4DUNFc0nhI9LNfzk09KYI5BFQBSCPhN4VgSogcNppJz916ikn7sgkmzhEt4LlEjKSCDIIBl5j4Moa3h1LA9Nvv/2Ol2+//c4j//znPzea2GrZRx557CTwvxb8UBxcYTCqniuOc6D5RC+8VTdvvvnmSjNmzNjjpVde+ePLL7/ygc+X+RhLJJhpcHZBZoNgDRq4AQAiQMTPQeif7vdZEYzwd9x443HXjxs3LgmC7phDCxOLyDeDBw+eXBimbkVAESBSBaDSVqD0ioAHBE4++eQ3Tz35xOOZnFHEdLGQxFqTZQVfTgiaEPiZtgLNnd8bOmzuHXfcdcWdd965uonpjn344UePRZ7XgwfDZg38X0nGt+e+++6bK0s2uFsXs7kQU/vbvfDCfy75z39mPP/tou8WEltPYmr/XDBeB7XDDVcYOEy9HSZ5jkROT6dbwptuuvHETTfd6C9VEPqGPc2dO3cFR2R/k1E2AA5hvrupqenbVr9eFQFFII+AKgB5JPSuCNQAgZNOOmn+SSec8FsSZ3XIogMhBx8XIaxxm8zgK7gRyUgoAhcQWZ/eddffn7vrrnuOv/3223OfDjaE3uzDDz9yDEb+N4O69flGNhD+S1GGA/bbb4+2NxcQX7GZjPX16dOnT3j++ed/8vzzLzz53eIlC1Gf55npl8hmOzA0n1DGDbXJXnER+gZX8/rhcZl0S2jzzTefCPuXLbfcsrsjfbDtaJYtW7YncP5eayhqDYeP+Qbc1CgCisByCLR2EMsFqrckAhqhCHQJASgCLSeeeNw/Tjz+uH3SDb7VMCr9OQTmpxBWxoAnfLgaD1wM0bW9EeINDY2Jv//9vgfvueeewydPnjzUkJSzEP7nIK1Zemh9tsEMfgej7h/vt99+z5VLWyxu2rRpQ5955pk9n3nm2cv+PX36cyPnzf+KiGdgWv93YL0HiWSP4YWbsj9pdeH6MRNfIw7vutJKK47YcsstDt5iiy1u23rrrVNZuppd+LBW1qi1cQi9OGrUqLeNU60ioAh0RKC1k+gYpj5FQBGoIQKnHHVU7IRjj/7NccccvZYI74SszEd5vs4Jf3ghPnHN+QcLOQcJ8T3ptNN8z333P3XPffed9PeHHupwyiDWufmhhx7+De5XISnDtg3Bhek8CH/XNfBLLrnEeuKJp9efOnXq0dOmPf2XadOeeZPZWoC8nyAsY2DFfnvwLXg3X+Bty6aFSZ5Bfc7N+Kx1tpmw9dpbb73lORMmbPE0pveXZQlrfPnggw9WRhbZw39aSwYfyV/NVa0ioAh0RkAVgM6YlA7RGEWgiggwsxx33FHPHnvMUUeTOEF4D2TiB5DF4pzwhzNnINFgBpHI7qD5q68lM/v++x/44L7JD157/4MP7vvggw/fIEIXiUlokoA4exO56gf77XeNcS9vH3vssdGPP/7UQU888dSVTz419dmtt57wleVz3hXi24XoVIj2jXAv6CPauOdYsRnN307Ckxr8vhHf//73d9l22wlXb7fVVh/lCHr01tDQ8CNkuCLKjRuMUHNLS8uDcKlRBBSBIggUPNxFYjVIEVAEegSBY445ZslRRx31j6OO+tEh6ZZlAQjzI5HxFAizJbgXNRDH62DUfTrWCx4DwUnw41Zo5P4335z1ExHhKVOmrAWBf8hjU6ZcPuWfTzw1ZcoTKcvn/wLLDA9idP9TKBYTIezNCLqVgSzHDX5ELIZ9moR+RuJsuf3224a23367Y7ff/vsPbr311v9DXK8aFNEoLSgeioHKEPFta6211lLSnyKgCBRFQBWAorAUDdRARaBHEDjuuOO+gSJw94+PPGK/xkENI8WhgyHc7oYysDBbAAg3mKwze4EHJuvMXuCB+P4Oab7aeJNNpz/66JSvM458JMT3E/GFJJhFYGmi/E+MI3sxDmTTesM1A2n6CuxvEbgzMw3faceJu+644w5XTJw48TVmdkBTF+ajjz4yyxPjsrXIXshhlpvqonBaCEWgThFQBaBO/xgtliJgEDjkkEO+PfLIHz70ox8dfmTIDjZhxL8L1vSvJXI+M/EQzsbA2Sr1jCfnWhEj+5Pg345ICkb2IEVgjgZRHfzbAle5AAAQAElEQVTLEDWDyLmCSPZOtywbvuuuO2+9yy47Xbzzzjv/u1ZnB5gSdNcyW6dB6UGx85zkyTFjxnye9+ldEVAEOiOgCkBnTIqHaKgi0MsIQACnDz/88Gd+eNihZx5+2GFrZtLW2hjlngGp9ziKtgjCGzdjcuK94w1kJq7tlnPIPMwUXOEw7fTN/1ZeZY89dvv+7rvv/rPddtvtib322qvXp/VbS1z++t5779kQ/j8opMKyh27+KwRE3YpAEQRUASgCigYpAn0BgSOOOPhjzBBcd+ghk/YZstKKqxJlT9v7PRSBmSh/9qwBCEY4201nP5mzB85HR3DVyiv/789PPfXUyVOnTh0/efLkQe2p6tvl9/tPQQkbUG/cjJFP11hjjSeMS60ioAiURgDPfelIjWlDQB2KQF0jgNH60kmTJj1z8MEH/hR2fCbdsorj0K4Qilcy0X9wb+kg/DE7UOD3k0ObIOh4Ib7BEXpt6NBhi6ZOnfbu1GnT7pz69NNnTZs2bdsnnniisd5A+Pzzz1cRojNQv1zRUCuRP9fT/oRcwfSmCNQdAqoA1N1fogVSBLqPwCGHHPLtwQcf8PSBBx5w4QEH7L+t328FmGR/iMcrISyfx/27tlwgQQmBy/n9CF6fiI9k4Wuwxv7CoMbBXz3zzLNvwN47ffr0X8BOeu655zbsTcVg6dKl56Pobaclosxfp9Pp26ngN3z48O+Fg8FJy9tgMLh+OBzeJBwI7FNATmPHjm00tIgfWRiubkWgvyGgCoCXf1RpFIE+jsA+++yzcP/993/sgP32u3C//fbZYeUhKw21mMzXC8+E8L8HgrNtUyH8kKm5CiOiwD8YoZsy02GYJbhUiCeL0FsrrTRk0XPPP//xcy+8+NgLL7xw5QsvzDj2xRdf3PrZ118fAfqamQ8++CBExGdR7gelBkXl29Zdd11z9HAulKihoWGwEG1uLDFdRyw7G7fPJ7Y4zjFk8SMQ9mPyCb777pvdQXd/A/N6+TC9KwL9EQGrP1ZK66QIKALlETAbCvfee+/X99lnr2v33nuvI/bea881SZyhRM52RHw2BOBdTPQeIRDCkrK/rCMrZrPe/AXBPiIeC/p9cf8ps9xKbL00aNmyeTNmvLRkxoyXP33p5ZdffPmVVya//PKrf3rlldcveOX11ye9/vrr27722mtriEiX+iHk+zsiGgILhQU+ooxI5jrjL7SpVKo5nkxeaCzqE/dl5HfGHYulnsnRvYACHJxzkyWWOU74tbxf74pAf0UA7b6/Vq1q9VJGisCAQGCvvfb635577vniHnvs9qc9dtvtx7vttusGzDScSXaEQnAGkXMTxOwMgPE1LBGG/9l7/pLzg6Y1pNXRiLRrIOD7kNKTwO9MjMCvYBEze/ACs/XpzDdmLZr5xhsfv/HGrBmzZv13yqxZb97x5ptvXv3f/771izfffOfUt99++8h33nnnoPfee2+X999/fwLcm+C+L/j9EHxhWjNCeR5be+21W2cyEOrVoNgPMnP2LYJQKLQiVJxViOkLr+mVThHoqwioAtBX/zkttyLQAwjsuuuuX8NO33Xnna/bZZddTtpl552+v/NOO66SSbesxkx7EfFPielmCF/zoaFkThS3KQftfsr+ivtlMIT5WBBMQPw+UBB+DKF8NvhfCvdfEHYn/A86jkyDncGWNQt+c/ohJh2QFRIivbkWPfLYRJS1lsxH/KJRTU1rEmX2A68p8KtRBPo9AqoAuP3FGl8WgUgkssLoYHCDUba9e8S29wgHAlsjbHjZRBrZ5xGAUjBn4sSJT06cuP3vJ26//Yk77LA9btvZgxr8Q0mc8SL8QxH6JZSD25nkWbg/gyBvyVYcHnOH39yI2hzGCw+McbVaeGBa3YYUHpjl/WD5Bkb/z+fDK70zOZMzlmW+xXBgWuShStMrvSLQFxGwwnbw9U42GDTadbfqEw4G71ueLwTEEcWYhuzAw3naSCj4+2I0GlZfCGxO1ID/7I+SSc/PML3jkDyFqdMnyeKXEPalbdurLV/i9ddff9DyYervXwiYbwJst912M7fbbpt7t912m0u/P2HCsRMmTNhpm222XnPunC9WsJhGQ4xvD3sklIPzoSxg1C73AoXnIcQ/hDKwCO6sQXsCWdaZvZTzM8ufskRdvfgaHsaMw6FYmmgwewa6ykbTKQJ9CQELhUVfTh0t076jAoFxiOuSGd3UtAYe7kOQuANfKO4BhHUyTLwBArO0jgim4eCrD6OlKI4AJ0PBhxF1LuyKsMubbxKJxJx8IGYEVoBid8nXXy1AZ58P1ftAQ+CQQw7JbLnllnO32mqrF3C/e8vx4/+4xRZbnDN+/Pgfbr75Zjtsvvmm62622aZDFi/+bkUI41GOz7cJNADzDYJDoWCeSswXEfGVUBSuF3H+xkQPwD8NNFNbWlruIw8/Jut9Z9Cg9g8EiXzJDn8bjUYXENF7DtP9uBN4N4tIyQ8xGRq1ikBfR8AoAEXr4PjYCPCicW6BGR8fCho8Q7iq6XcIYHbnIIzU9lm+YvjDzdGx6KvpHcRB3yPCksA+mBF4B532L8mhwaQ/RcAFgW222WbxxhtvHN1s3Lg3cf/3hhtuOHnjDTe8YcMNNrh83Lj1L4Q9bYMNNjhmvfXWO2S99dbZbd1119193Lhxy1zYZqOjicQPIexjWQ8u8WTy0lgyaY5Splgi+eN4PJVVJKLx5OnRZPJVkKhRBPotAiUVAHTwk7pca2HzGk2Xk9dNQi1IUQQkt2O6PVKuaWgcPCyaSA5FJzqocenSPdviLDJnsq/R5vfoiASDW4Zs+/Ls8lAw+CjcfwqFmnZFcugZuKpRBBQBRUAR6BYCyysAhQdorBsJBDaslHswGFwf82cb5dJlR4E5d8mbsHMM7K7GWj65pCShRtQFAkyyVkFB5sQSqfNnz579VS4s89nCha2vieUCKrmNGTNmlbAdfMhhuZDYeUnIOod8vtPYch4j8R0SsoPTi+0vqCQPpVUEFAFFQBEg6qgACE1nIjONS+YnPq54FsBvkZn+N8mxNEcvtzrKX+Px5hmwTxsbjTa/VZ66x2I1o9IIrJyPEqL34c7AdtuYI1tbli75FxPfw5b8nsUK+oh2o3R6k4ZlzrvxROIEduQCS+QxVQK6DbcyUAQUgQGOQEcFwKIl6NAfbcNEqGIFAGu9bdP/6MSz62lt/NTRPxBgashXhIUW5t3dva/QOOg6CP9rsU77EDnWwcRyiUPOnmTxL1r8vs/DweBRsVTqZbGcU3wkdyE/hlWjCCgCioAi0AUEOioAhoEjk80tZ9eNRJry0/m5oNI3jMo2Q+zasDD8sUPyOhy1ND6zTBGx7YMiocAPQ6HA/saPDH2wXTKBQGB18DswFGraZczIkUEvTLDsMTIcCOyE/A+FkDp4lG1vHw6HV/WSthTN6KamNcBrb/A8PBQKHQBst+suT+Tlz66thwL7Gb5w7wm+6yG8y4KUGSoAGHTXmENYUIgxEP53F/CaGU+kDowlklsx07VYWvq1icNM0Qwomp8A592MX60ioAgoAopA5Qh0UgCGrrrqVLBpG9VJxvsygI+lbfSP0Zvn0T8E3dNY9/00Z29A/mUNhNZqkVDwOtAnxeK3hORBEf47Cz9i/AifF7YDV0FwjijFKGzb/wnbwWyeECTbg86CQLzWb/HH4PcQizUNo84YaB4wwhjxHczmRA0o99GIn+ljSmGU+gzyvw9C6gEoPs+Rk0mFQ8GXIGgNJpBtHZIX9awxbNhQpLkUPOdkfNan4PVP8LyHxfmHRfI8eDYj7vVQMHhqJe/UGyUOeNyFtAuE6RXwfBT2HrifAN/3kCfqGbi6qamp6GuaprBI+wFsFi/4R8NmDbDaNx9u7sDwVpTvNOM2lojbeTIdbMLyNhIZ2baXIOO39kSbeYBK/sS8ptV6kAxoLOb7MyJ7w6lGEVAEFAFFoAsIWMunee+995ax0D/aw9nrMgCLUNurg46wOdyjnU05F9MoRJud4mtAoLQLDAQub0Kh4OkQWu8jr9MQV0rADyPic1ic96AsbEdFf2KEWC5PWhFC6xoIxNNBamYPcMsag8/Bab+/bcrbhIZCoXWSdvBlCOjb4TezHsUEPGapaWsGDmHbfnG1ESNs0JY05jS9pYMb3yahX4DI4IFbJ2PKszkz/eXrhQveRt06HbazXAo/BP9lkrHeIOIfEVHb2j3c7UYIZeOzG3zWJ1BYDm+P6OBaHb4sXihjIR7mYyyt4URrAMMgMw9royXyw503Jv82WivtG5SPsIhWI7E+zvtz9/Xwv1yBOvxViM8koTNz4bTMcT4C6G1fcMuH610RUAQUAUXAGwLodzsTMnPhMsA6ZgTZmapjSCjUNAEhOYHEbyYSCbM5DEHVMxAEF7FgKphohTauTAkoDX8nkmsQ9iBsCjZvRlokT+aWBfJhne5CtD0zGeHfKQ5C/uV4PP5hPgLT8GtDsXgRfiP4ccuaNK7TUYYbUZabcf8P/A5szsg26Qb/K6UEthn5Z5ieAHGB4GcjDB+ConMt+IEv/Qvxi2HzZm38edPKzAQw8IKCwhcjgQ82b2aD393A8ToEGLzMyBrOrBnCmEmBwnJ21tfx8jm85kMrnwGTtpE4wr6F/SxvWSgpImYGKR9msEF01nyDaz78M8efaXt3GwpjWhzHj/gOBnVciYkPJ4fOzr+vbQgaGhy/sBTyNsFqFQFFQBFQBDwigP61M+XcROIZhJoPZOAGcZHhtpF9NqDYxcl+QjMbg2Vh76P/bAr3C6aWJxJxdg2YWn9LMCI8NRZPjsI68Y9iidQ5sURyUtqRNSGg/thKkr2uJBb/DS6GLW5YzkeEiV8AReBXwnIAEZ/EJFNJ+A7K/YYPH/49djJPwds+88D0T2FrTeS9YyyROhllORH3bcnymbX150CbN6OgjDwwduzYxnxA/r6ksfEsuM2MBG7kMDF4JNaOJZIHx5PJM2NZvsk9UDeMeHmGIWq1stbXCxce3erueMXI+RfUOuqn3G8eCU2KJZKrxxKpI6PJ5BmxRHLS0GHDbWa6EJjlhTrjH/9DOBzYOZcuewPturCmnmsioO2UPyaekg83d/A9DmX+i3EbC17tCpnQgyYsb6PReUbJATsYlo/Iog3hKjTvg98ZQvxTlPHmSCQSbovM+DcistoUs7ZwdSgCioAioAh4QqCoAoCUGFlJwQcxXJcBfBAg+aUCSTt0P3hU1UAq/h4M8+WFl3+AEaHZL9DhFbRUKrUISgEEutwI+rzZDOv8pTeMCTUIUdLKOFtG48lL4vHUo7FE4qZoIrU77n/NM1lh0KCzQGemwrNBTHwv8jogHo+3CcRsBC6xWOwjCFeT55Pw5s0WSxZ9c3Lek78z84F5txDfF00kbs77C++oWzPWvaGc0MJ8OGYcsp8xzfvN3Sw3sBHqxtNqFwpb2wMvM+JvDcldzZIP6nylkGWUPCcX7CPHMtj6cv6a39JpX0OBEAAAEABJREFUx8yAmDJ0mgXAf3AzlhbmkZP+Wb4gGP0f4xMxxxHng/SuCCgCioAiUAECeYHaOYlDkwsC1w6HmzYu8HdwhgOBHZgot2OeX0omk5hm7kDSLc+oYHAL8B/fzkRuhpA0I/H2oOVdlv8yBOUFGjnkdBKUiG83QpfNbW7+lIjawwpcY8aMGUws5xYEzV3S0nIS/BnYosYI14zQUYhsm2aHgD8P/uWEnLRN/TM5ZoocJMUNsJ0HZQszLPJfUDxEQi/h3sFkBvnPQUD7MgnxWVBSPkBYSYP4R6A0GKGfo5G1wsFgecxylNW4NTc3Y6bAeiISCv68CD+HRa4VoeOMchMKBcw+he/mJpOvFaHVIEVAEVAEFAEPCJRUAGKp1HOCUXEbD6f0LIBYZHa6Z0mZnfuyjipe0PvvX8iOHfpLob+YGyPwKMKvwZr0dRAcpyEN1sMRUsIMymQKZjw6E7UsXrwNEa9CbT+5Yf78+WZNuy2kmMMIbAjW2wriRkFhKlBmsjHzstfshY8aNWpEKOssccGsw2mxRGrTWCK7RHDp8mSo754FYVGMoO8p8Jd0YubmD4hsU5qEuccUAORLKOcvxaFNoQT8avHSZb9a1pIxgt5EEWZjrmOfP5z2+w9gh89YvGTZ8dkIvSgCioAioAh0CYGSCgC4ZSymAqFYXAEwr8Mx8UGgNybjb3EeMI6qWuGt8/yMUhJNpd7O+8vdISDPM2vIWJO+HmleKUP72ex585LZ+FIXH08sjLIcmlLoL+fOCD9WGC8+Nq8dtgcx/bvdQ6OctP9trOFfYdv2dgj3w3o2gUCgCcQbwOaMmKn1krMUOaLsDcqKmbl5M+vBBbMRO+DWkyaNZYrscsgKjY3PN/h852K0vz/svsDjHHHSj2P2Y6O0yK4LFixoO7GyJwuoeSkCioAi0F8QKKcAEARX4Vo+lgHCmyxf8WQwaNa5h7eG87OugrSVsLIrU9uImIk9Cf+KMhAyO9zLJhER8/panmbx3FTK81sO6XR6Vj6huWM622ykM86stdLOH5moUKANZ6YLLJLnw3awORwK3o/p+KO9HEzUQGT2KIBdljUuVoe8EVDWYMakgJ7DY8zSR9kUVY/MROPJX5Jl7Wwxf2oRb8rEW5AlC9nyHwyl7pRUKrWo6rkqQ0VAEVAEBhgCVrn6JhKJ/xBJ26czyXHyG/3akzEdmvcIO/fm3VW+m1FtK0uRL1sdVbwy5TfVlWHKBSf7iVnT9zSqNgznzZtnXpUrEFqFvIjM3gOHnYNBa/ji1sEMI3O+AtPtLX5fPGQHXwvb9rkllwm4I28mau7AzcXjMHegz2S+zSl3LgmrHB2Lxb6MJhJ/hzJwCZY8/i8eT90ajUbb22KV81N2ioAioAgMNATKKgAAw6wHP4B73nRQACKRyAoQMPn1+aV+f2PBAUL5JN2+mzIWCqHCd+G7zTzHwJUnRsZDc7S4cYEwh9eb+a6AbMUCd9YZjzdPa0hnMHUvVyOggxCGP28YeI+HUvZHLBN8BkXgN4josETgWPI9hLUZ0FdUVsxOFJaTRLhTWduYq0MRUAQUAUWgzyJghGv5wjuFr/TJWuFwwTJAJrMX1uSzAoeJn5ozZ46HkXT57IrEGiVkSUF4we72gtBqOMvxYDaj+DxFV4SiOQUvn76DkM0HmuWTWCJ1bjCRjAhbuyP8KuD7Lu7FTCMUgYvCdvDWwkjOUGE5MXlAKxXGu7mZaEghDbMULWshjboVAUVAEVAE+h4CrgpALJUym+fM5rDW2hUsAwhL2/Q/prCrvvu/NUNcmb6i3A8CqXA2IBfaAzeWQuXGLAd4fkfenPSHEg6GzRlpO2QpF9DhNpOoJR6PT40lkufFE8lxUAZGM8kJIDKbMguVIQTRj0fZdtumQvH5CstpFICRhsirFabc65zZFI7PN6TYskQ2Ui+KgCKgCCgCfRcBVwUAVRPMOxcsA0h2x38oFFoR0mUvxBuzKJPxviveJKjICrW9ny/C47ymjdj2Hhgh3xAKBn8SDgYPLnYKXwEvN2fhqXMrjA4G13VLkI9f1ti4ad5t7gC07Lv+hqbQQhmYG02kboFCcDCUgVHE9M/CeKfgI0yZTOZjxGHiANescTrknQ0qfymkj8+ePXt5haN8ao1VBBQBRUAR6BMIeFEAln8bYB0Ivw3YcYzwz04vM/FjtdyZjfX39uNvmUJYhljbI7pmY93JUGB+Rxbd8sknn+SPu/WYvJ3MEv5Pu4/IsWifQn85tzDtWxjvE3457zdYQkE5H8rKLRE7+LzZV5GPK3aHMjC/cfFS82GfdFu80BjK/fA/mP0DH+W8uLH5nzzNVgQCAfMGwQZIlDdm9ifv1rsioAgoAopAP0LAkwKQSCRmYrT/Sb7eGaIDyaK2DYFO7Xb/Z7Nk5sezjvxFMifmnaXuRpAKSX6DIrHIs6A1+wlwK2JcgjLML4CkbTpchE6BwMwqQAgvaaCsmOUCcxpgnmb+ysOGtSkAaUs2ZKbfo6zHYdi+nbS0dDiDP5+o8P7ZwoVfw78QNmuggLUtkZgA8HvM3HN2VCgUMEfs5rylbz7mcxDb3iak40wD4rpgeGlbIouGtLnVoQgoAoqAItCrCLR39m7FYJ6cJ2Gmw6AQ7J3zL1xllVXNl+py3urf5iYSz4NrwfvpdGYkGNwSYSWNZDK/QOQI2KwR4Vuyji5eMPL+jojbvgtARKv5fXwd7gxbyvjFSZtz/Y0SkKORG80RwTkPbr6ncWmbZheLf1nmC38gJQqFmnaBo21t32ExxwIjqNU4ZF2LZYK22Q4W/vOopqYOZw+0UrZfR9n27vhfT2sPoZRYVtt/XhBeqRO4tSYRoUCrS6+KgCKgCCgCvY2AZwWAfZm2Q4GEaH0UPDv6FeKHOgo0xNTAsJAZnWLyAcyFGsSiqWZdH74OxghPTKn/H5FcWBAxPZZMmhPxCoI6OD15Ghobf09MbfsRoAQdHbaDk4sd0BMKhUaH7OAUJi48TvezZWnnisLMoFjMB4Z358OYaPzXCxc8Ys68z4cV3iOBwFYsVuHRvouYfR3eBADPueKQeUUwn3SE47degNJklgPyYfm7D3id5pA8ioC29iAsZ4NPm/BGXJcM6lMwU0Hb4D87ymCTXfow+0i6xFUTKQKKgCKgCHQXgbYO341RNNr8Fmg6fVCGLad2u/+RYd5Ek8nnmOnivJ+EhhLTAxDA74ftwF8hxK4Ih4K3f71gweeg+xXoIHtwFYpnhI7JunDpjpk9e/ZXQhaWPqRwyv3gFr/vc+Q9BWX5I8pyFQT/kyzOxyjAHgX5zbcc2T93KFBBMBFb1oWEclL7b890g382+DwFvn+IhIK/A+87YV8Xi83ywcgcqTDxOebQnJy/7RZPJn+NOCPUW8OEbBA/HrGD74KP2Rhp8Ppb2A58wUxmJqOxldBc+bfxeKoq/6tDPMtwzFk/Mf0N2HyRYXrHcpyePmqY9KcIKAKKgCLQioBnBcCQQ1C0zQIYPzrzRCyWmp5198AlGk9eCUF5KrJaBps36xLxSSjbBYg7GmUKUfvvfYd5l9wZ9+2hy7sq8GNUPEvYNwFJCt8KGIy8zabAcwkCmYmM4B9E7b/XMIMyYW4q9U57ULvLCHBMt++EkPbXLYkGgc/u4Hseps5/grgjYTeHzZvFzHJWNJEwSwz5sMK7g7iDiPhPhOkQ2KwRys7emI2RBq+jiDhM7b9FRHxKLJFoV7Soez/k91dwWALbySDOzCR1CtcARUARUAQUgdojYBQAM0WbtxAApTPNCBsFIE+7EALKTF1nSqWwHMvsVG+jF5FSgsCcg5+lA8+yZcBU/g2+jLMeBP0dsGYzXOfss6NpuUjYGp9IJIqe2Q/hY9Jm84R8/K4zk9IhUAI+GDps+EYQzKeDqqhQRziyoFcgwI+KJZLbRKPz2jZRIq6TAc8P046MA89fIrJQEYC3g5kPnrcDg3HReOraDjGdPRkI87MxCh8vJOaUxlL1bCaSa4DXeqA3Arszp8IQoTbsHKKy/5fBn4Uw0hfzFoXBpJ0T86h2j7oUAUVAEVAEehIBC8JpeJuNJ81Uecn8TWfeRptIDo/Gkz8tSYwITNu/WkiPaenrEdzJxBPJLdrpUmak24mmMGBOc/NnsXjy6GA8OZIcmQDB9QMmOYGJD/QJjYOSEIklUpdDqJYSeIQ8x8VQh1giifqnTi7k78Vt9j2gPn8Bjw3J8o2yiPdA/ig7/9i4WzKOjbitUZY7wc8oQriVN6lUahF4Xop0q6NOq5HQPhjlH4H1+ONQz30RthniguB5rMGgPLf2WPxvb8QTqQMbGgevKux8H+U8MIfXQezIRuAZiiVS5wCvue2pSrtiieTmsMAtOTyeSJgDikoTI6a1HaS2Rf7DM0IboB7rwr0ClI2zEa1GEVAEFAFFoBcQsHohz6plaU7Mi6VSL0NwPRJNpG7BlPc/5iST5ujcjiPNquVYnBGm8KNzE4l/If+7IdTuMu7m5uZUcWpvoajTHAj6x6Px1D1Yj78N9fwnwsx6eskZFzfOs2fPXhKPN89AOf8RbcXr4WgqZb6u2GWebnkWxiP/r7Ac8x7q8SHcRWeDCunVrQgoAoqAIlA7BPq0AlAVWJSJIqAIKAKKgCIwABFQBWAA/ulaZUVAEVAEFAFFYKArANoCFAFFQBFQBBSBAYmAKgAD8m/XSisCioAioAgMdAQGtgIw0P99rb8ioAgoAorAgEVAFYAB+9drxRUBRUARUAQGMgIDWQEYyP+71l0RUAQUAUVggCOgCsAAbwBafUVAEVAEFIGBicDAVQAG5v+ttVYEFAFFQBFQBLIIVF0B2JyoIRKJhEcFg1uMsu3dw8HgpJw9xNxNWCjUtEs4ENg6GAyuP3LkyCHZkvSfi8+27dUigcBWpp6hUGBfU29jI7b9g5Cpe7hpgqFBlS1YNYpASQTWX3/9QaFQaJR5XtB+9jDtCDb7LOE+CXG7mTYVCQa3hHtd2BVLMtMIRUARUAQKEOiuALLC4fAmYds+OxwKTg7ZwXeSoeAiyaSjDtOrDslTxDQ5Z+83dxPGYk0ji1/yMb07yO/7JmwHFobt4NsR234kbNsXozObGAgEViooZ7WdVeEXCoVGhIyAt+3foNzTwnbw03AouNgimS0Wv2zqycKPmXobKyQPmzByrBmGBvSLYT8I2YGHw7Z9rlGaUDA/bF0ZKHQrjG5qWsPNGuWvrgre9wrjR9vfMhQM/iRsBx+C/fDrhQsWsThzzPOC9vOkaUew2WcJ98mI+5dpU8L0Ctzvwy5Cuvlh2/5vGDwMr1AotO2YMWMG9z04tMSKgCJQSwS6pACY0Qg6lj9jBDKXnMwsIrmahCYx0Qa4N1ReYF4Facahg9sfvC5DZ/as3+KvwrY9FXkcXE+CJRIZOTZsBy5C2f6LznZeVsCTXIRy74I6rFFh/c0ng9dh4h8g/R+N0hQOBeejzrfB7gh+Xfp/kK66Jp3eKuOzPk3e7yIAABAASURBVHWziVBojepmPCC4MYT+RCiBN4XtYAJt/xVm+h1qfiDs2rBdUQhXRXvaGGkPNLzQTl9oWbrka7SpR2H3RrgPVo0ioAgMcAQqETAWRruHoZN61YxG0LGcgRFIqIb4oeOTXZHHA5hV+KKq+VTOzI+6H466vyIZ38dE/JtcB0tV/wkNRZ2Pgf038vs8YgfOCoVCOq1bdaB7naFpU8eF7eBbEPrPQgk8ASUaAVsrMwhtaj/Yf4Zte2atMlG+ioAi0HcQ8KQAhMy6tR2YidHuvajaFrA9a4QCPZtha25m5iEUCp4etoMfo+73IHRL2J40o4X4GozgPsPI7TxTnp7MXPOqDQJQ6A5Am3oHbeoW5DAOtmcNS1PPZqi5KQKKQD0iUFYBGD58+PdCtn0zizWViDeh/vHzVAtMy+6QsoOY5qdrkWAMbG+aAEZuf0jawTfM8ktvFkTz7joCwWBwZDgUNOv2/wCXdWDVKAKKgCLQawiUVADQWa2/QmPj60xyPErHsAPCmLcS0EnfbqZlhWj9Oqv0OCy//Afl+wPKhSUSXNX0CQTMWyE+llkkNKlPFFgLqQgoAv0egaIKAKabd/QxvYx17rX6HQJlKhQKhdYd5Pe9ik76aJDVq9JjoXznhUPBqVDSRqKcauocgYhtHygWP0fEYdKfIqAIKAJ1gkAnBWCUbW+P6eYpKN/KsNUwGEjTt9VgVEseoVBgf6y1v4o81oOtfyNklLTXQlBa6r+wA7eEpl0Jy31AoBG2GsYBk0WwahQBRUAR6BYCHRQAcziNQ/IwOFb+Dr5QXIhvEaHThK3tGtIZe1k6s3IskbRgzd3naxg03Jdx1kT8ZhbxHkR8jkmDofZ7hOkG2FqbovzRSR/Kwg8isjtKzxKkn476X4kO/3jUbwf2ORub+lr+dNjcyXI2YQhuE0/El2Mk/wwRfQfbVbMaifMs/re+obR0tZZ9NB2m/Tdk4XvwP3fh1ViaDUX8BiI+iR3ZuiXjBPHcrIRnyQc7BLaBLN8I064c4s2Rxz4i9BOkuQPuT0h/ioAioAi4IGAVxFuYW74f/lVhvRoHAvwehlCLJZOj4onECfFk8vp4PP7i7HnzkvPmzSsc+Ttz5sxZOKe5+TPEz5qbSPwrlkhcY9JEE8kN0o6gg8vuN3gSmWdge8RgevYIFv47MvPDVmqWorO9n4n3bGgcPAyd8o6o/4XxeOrWuYnE89Fo81umvnPnzo+beyzW/GY0mZxu4lH3i4DZLsFEchWyZBd03H9D5t/AVmSYKIj/7VksB9TbfoWK6tHfiMeMGTMY0/5GqazkFc60kNxMjkxAW1ojFk+einZyUzSVeqW5uTmF56ZQWUzHYrEvTbtKJBJvoC09jrb3B6Q5Gu61oByMgkJwGtrVs8BWYNUoAoqAItABgTYFIGzbZrPfVh1iy3umY0QyHgL8CCPUQOrAdtmkUqnmVsGY3At810DndSWYFSoQ8HbTLJc8EgzuiQ73DgRXejDKdyz0O5Qzgs72sGgi8dTs2bOXgE/FZiZRSyyWegYd9zGLly6LEPHPiWgBbCUm4GN6AkqA7gmoBLUa0rYsWfITsDcH+eDmwQhNQXsaF0+kToylUi8jRbeENpSDKBSC69GudoIysC6eJ/M2S5faKMqiRhFQBPohAlkFYOzYsY0QhL/yXD+mP2KEsgtGJLM8p6mAEHznoPO6EB3i6tmOi6nqMwJm2lwsMucaVCr8H/K3pMdC6bkA5ZxfQbVcSRcsWPA/jPh+g9mENQXLKUggsF7Nan6mh8zZ8V4TKF1tEBg9evQwjLx/6pE7FGcxs0H7oz196DFNRWRQBj7C83QmFIG1UK47yMG8VUUclFgRUAT6IwJZBWDxokWHmKlkbxWUizGqOB+0VRfK4NnBoEOcbzouR3hCh4iuedpSmQ7aEnkM3eDQtkB3xzfMcgQUn4O/mD8/4U7edQrMJnyFmZUToADtAS5fwnoy0Ba2+99XC67yRKxENUMgvWzZcWA+BNbVCMuJsUTqchDi78O1hgaKQBTP7tEO8341zEZZKwKKQB9BIKsAoKxHwroaJpmKzuoKV8IqE2CNc2Y1WWbSy67GSGhsBTznss/ZNhpP3VNBmm6TQgGayr7M1mDkeWSIGZNTQ6GmXZBGTS8hAGXa0/NEJHebZa+eLma1n6eeLr/mpwgoAtVBwGr96p5s74GdOOw7E3SYssS1r5lcec26P0b+R+W8Xm4fYcp/K7OhzwtxtWmi0XmfpB0x/88HHnljosK6ecSIEd15o8FjVkq2PALhcDgC5XLD5cOL+JdlhM8tEq5BioAioAj0CALWIMvaHDl5eEdZZmBE6nkkCp51Z8wpf8J0UwUFmyNs7VrrKX+38pgNkmT5dgWd148ijWls8P0K9Gp6GoFMxixXYRLANeN/JpPJea5USqAIKAKKQI0QsDCc9/gOuWVez6tRMWrONpvBIL//bDgisF7MtxmhPaH0zPFCXGuaWCwWtYgPRj5LYT0YxlJAaLQHQiWpIgJYyPf0PGE5rc8/T1WETVkpAopALyBgIU9vQkJkLmj7rDEb/4ic87xWQFiOxwjNHFDkNUnN6eYmEq9jBsNswPSSV6PlOL/0Qqg01UPAYvb0PDFZffp5Iv0pAopAn0fAEhFPa8Xo2FJ9trYoeKalBYKTV4HT1QjJzfF4yhyK5Erb0wTxePIvJPSSl3yhLPw4EAis7oVWaaqDABRHT8+TY1l9+nmqDlrKRRFQBHoTAch18nRMqSNSyStzvVmnTnmbU9mI5OROEcUDUv6GxguKR9VFqDjMp6MkXl7D9Pst6wTQqukhBKBQe3qeOJPps89TD0Gp2SgCikCNEbCE+CsveTCL7YWuDmkovWzxgSjXcFh3I/TTOXPmLHQn7D2KRCLxBmYBzDGzHgohx+rhQB5gqhIJi7fnybH67vPUXahMexwdDG4Qse0Dw7Z9dtgO/CwUDF6B+68joeAFCDsxFGratb/MXpnNx6Yutm1vHgwG1x81akSodVDSXSQHdvqmpqZAJBicGAoFjs22m1Dw0lw7ught6NxwMDhplG2PB/aVf9um/qD1jxk5MmieG9OORjc1rdG6rN29glok4vWgmYndy6r3UkPJMQezeCnAh7Fk0nwXwAttr9JgFuD3HgsQ+HrBAj34xSNY3SVjizw9TyzUZ58n6sLPCD10zuejY5769cIFCzNM72Cp7SHMzF1NxL9lJsy68c9F6AqE3chiTfVb/FnYDiZhH4rY9hFGkFKNf6FQaLQRHOUshM6ebsVAJ70ZhNJ1ETv47iC/7xtTF3S2r/uY3nXS/ljL0iXfII8Z4UBgn2K8INT2R/wkN9sbwg15NrmVy8SPampas1jduhHmM9iH7cCN4VDwkwaflcQy57MsfGu23Qj9IteOfoM29EdimuyQvAbsv0IbejVs2781H+jqRv6ek6KcexkMytlQKDSqHEPT3vHMnBa2g4/DLmjx+xLmuTHtKOOzPs20LFsA/jHgcVc5PpHIyLGRUOBM0F2GdnVsOBxu+96PxUSedrlDiO7SF98tD5v3soV2LAdQexyj4ZCXqfX2JL3kwizATCF63lP2LPt7olOiKiAgnp4nIt57c/K2/EZ9+BcON01AJ/UYhN4cdM5QWsW8zrpiBVUKgPZAKAt3Q5AmQ7b9p5BLxwn6LhtLZDuC4ChnhflPpTJA2dZBfZ9GJz1ThE7DM1rqI11+5DGBLCr6/RUItSMRP9nNNljWAaXKUqtwH/MpbuVC/P1OQ0Olx6wXLbKRO2HbvjhsB2cL0xNEfCIJVaJc+IloCygFPxOL3wrZwdcimH1CmAVbG8N0HTAo+/+x45hXhovl74PyeAHau3lmrgPBXrDF9xYxhYj4CCrxC9v2zyXjP9RKyz8blyzD8+ebRZK5FIpAViZY7Pf/p0Ta5YOHDB7kP3/5wLr3O44BD3qOa0nnBROJ+1yp6oiAiT3OVrAZsVTlYayj6tdlUTJieX2eIslg0HyAqy7r0d1CmSnKcCg4hRxrBjHtC37VaH8rMcmZLM5HELK/MEsJ4Fs3Bp3qsSjbG6jvzt0ulCPm66CubITlMFeiKhMwlxY4BVk9F4vFPirwd8VphULB0xsb/J9BeF8GBl5f4QZpacNE46FQPhS2gy9FIk0blabs+ZjVRoywUS7zWXnMhNGw7pQgglE/i8wUdpKYMbh36QqNT2HG/9QVVhxyrkW8WSQY3NKKRqMxZAKAcXUx0GjPqzfAXIpMTI4Rfm5kiJe/zyRqgaPPGPb5zD6AZR4KvGooFCqlbXpIriReEcDMzJvoYP7niZ7pV1gTHuOJtu8QsZm2RIfzFkZpRae3q1CVwXiwL/164Zev1At+ETtwFkbtt6BulcxugLy4iaVSTwlRsnhsQajQbtVYCy7gWNZphAaE8VpliRDJLDfj1mVjFMiIHZzOQuYrliO6zKh8wi3FsV4P27Y5H6Y8ZQ/EmmWydIN/OrLaFrZbxijHIrxeNJl8kh1eBTMnd8XiyQlQCFZe/O23+35vleG/EZbjLJMLMz1k7h7sSpKxpkCYlF278MCnR0iyIBB7OhffIavsOkqPFLjCTKLR6AJ0hJ5GnPjjd6iQvZJ3DYGMED1C3n4jsQb3z3DBmpy3ZPVJZTa2hWz7bvQnZtqyBzZe8SY+ptewjr419eIPAuRIIb4aRYDuh2t1TBpt424PrAal00t/4IGuKiSOt9H/l/5BKzzc1QzD4cDOUCBfE6LtusrDczqhBig0V0OxuRVpqjFLBTaVm0AgsJKk/dOQ0vsnxEFcynz11VcbQMC/lo+3HBqFOk4k5lHk87313nvvLWPhZVkFoCUjN4DQgfViRpM4r9q2Xfs/x0tpytB8s3Chmd4ZUoakNYoJA7fErFZP37qKQ0ZjJLefkIMlZzcqja8GAiz0F698IDE2YCfzWjjctLHXNPVIt8awYUNbliz5N5P8sIfLN4J8/JTZ7d3D+Wazi0RGYjQs18ODvxLXKhrOyB1e2FlCh3qhqwKNH/+vh7zkrtmzZy/pSn5Y2vkxOfwU0np7awuE1TDCdGw4FLwFvLIyEfceNQ3Mf4bCU2q/SMVl8TmOn8Vqm9EW5k2hEFwt7Pw5vzQDgS/ZyqZSqc+F5FGvuaClBy2WZ6D5/hxSBRqU15Q9SwdAN/WY479AB3Jc+5jxMXtSAJh4fB+rWp8tLqbdXiXiGeTxh4a3OmGtPBIKnIEk2WcS9z5jzCatpY2NTxJTV5eZjLCIosLfwlZuhIY6JI9jJiVSeeLupZCM7zZwcB9kgKhSMzeVegdp2kZxcBc1QrwTlkJGFo2sYmDEts1sqtmUWZZrRrhL0//gfwTakMHTXzaD0pHzpHXZJFOapEyM0NHhUPCSMhQ1icLIfE+BAlJN5stEzCm2EM+tXIXlMWHffpADvxkzZsxghMIpg9s6m4xD5pjc7xDhzQhB8Muvk8Hg66OCwS28JepRKkKlvSkADnkSolT8WWupAAAQAElEQVSHv8UtLbNQLLR7XMsb/E3BmncS5YswcGKhXRthnq6gxitize7PUKpfQGdetZFABfl3ldTf6Pf/Ax13JcL/CzPtipmSiQ2Ng4fFEskVYEfBrsw+/4rC1npEfA4JPUMghPVimkgyD6DHQ7/khbz7NKFQwOyk7vZ6bbmSiNAd5eJzcX4MBA7KuWt2E3KOcGcu/+nKEepZIUhiNj56m4bn7H6tJyDFTswIrR5MJAeh/TTFE0kb9waENZEjZvPpX6VVKXAvuqEQuhhlMRvHja8nLCZw6IpqZ4RB/SIi5xszs4j6L7FElsTj8bl4pqZhpu4w9DMnWsKPtCkASPA5tJBfUaU/po0cppew9nezOaig0uQ1pXdoE/LwY79jhKgHyvojmT9//jcoladXz6BWrw5aNT2AANaU3kA2f4at0Mg2PqZZYTtwVU9u7qqwkG3k6CyvJiavu96b0QGdig56bCyROhczJc9hqvirNmZwRKPRxeioPoglEtfEksldLKGtmOgFRLkboa0TwWBPbejCbDib14aLlgud7rvA5dcEIeRg9o0d2YgsZxvU/xAiQTp+s2jC5QItv/9eBHn4AJh4mJoHpy4as0ZNxO6vHHZh9B8KhdbBYO0eIkIXhauLEZJ/sJXZIJZI7h1NJG6GwjF7uQ3cgrB5sVTqn6A5hdhaU4R+CbYQiriWNxbKcpOZ1SpPVp3YSChwGNqJWaouxvA7EroP5Tme0HYsRzY0bUnY2RWy+gwmNm2j5KxZMJG6FMspp1iWLPzesFXvNBk0NA7+Ge6jmJ1GPH9PWPC0mXg8eRUarpkObwvz6ECfJce3+H0fQ7O4OBKJrOAxXe3IDGemNczNxS4NRJvfd6Gp9+h3PRXQbADxRKhE1UAAo9mfg4/rFC5oljeDCCPgTMuyTyJ24KyeHNVSBT+MgA9FR2SOpXZPxfR445Kla0Oom/1GafcErRRzk8nXoonk9ugkf90aUv7KTL/siaWAcDA4kYk26FQapk+FZT+MRDeMxZP/Z4QQlMGZ0VTq7Vis+SXU/4FYIvVzKDibmE6dhN/qxKMgAAqR2ej7WEFQKef2o0aNCJWK7G54g4/MbIfLUod8JZb1QCV5jR07tpHEeYiIVyH33zet2KYOjEbnfexO3koBhfK7eDJ5KVm+zRCC2SdcyxoONzb4LylLUqVIEeu0IqwczI5dh1mMMWgvh8fjqVtN2zFLQqYtxePNT8fjyeug/PxwWTpjo83/uggPMkoR2trJJNaCrxcuuDxs29e0LFtyLqZYHo7GU9nBSQcFAEzSg5csNZok1jDhq9yggchlkmn5OBQMnmp24VfOojopcnmP9MDtMwOUB7r6JWHy0KiJoNyNrt9K9L+SofNe3JDOmFMYP+hi7YYL8TXJUPB9CJwfgweeXVzrwGCZYiQLm1e0XEvDQtdBGO7/2cKFX7sSlyBA+v9DAz6/RHRh8EriOD8pDKiR+8Tl+WJK4JF0RjaOx1NTECewZY3p1NHBuwpMdshMjZPLz5K0b5ILTZejRfgIt8TM/HcjbN3oCuMXL/rmF0xFFKlColZ3FArTdjlsW0MqvGY3v1k+LNmwF+XhlKampkCFWVREzpapt2zTIRHT18LWnhidn2FmMTrEFfHMmzfv22g8+csiUW1BUBSeiiWS50HpPNs8R3OSybYB4/IKAJmHFJr6bnjYzPpbG5PKHBxmpr9A6/goYgeO74URDC1YsMBow53q17keHOsc1rdCxCH394VRJeaBe/48qt8rZva8eUkoATsi867MBCAZjNCaxHRH2A6+i1H34Qjx0K5BVUODKb8/gP1IWBcjN5nODEQZ2G4ZCMvs8a5uTCCIjw+FQrV6dxzZSxj/h/m+CNytBtL+X9FEahKWUr1MM7cm8ngFfv9Cfxx3I4eQNoM3N7KK4zH934REu8GWNcJORZv/oESuT8QXkPtvIYTiLlCYPC2blGMHJSDqEJlp97Yd8iXoV2jw+c4qEVeVYBEy+4QKeS3D+sN+UKKmFgbW0l20IzFKAB623SHEzUOOtt3lIqwmxDdnRzC2fSS49NgIxrIsbzuCWfq8AsDMnhQAIeqBd7PxL6vpgEBWCWgcvD1Gwrd1iKjcsw4L3wNF4M2Ibf8AyTF4wrWHTe489R95yHY61iG9LRF4YGZIhLJTpm6fUl7RokwtX0c0h/1gmcaUiKAL0Hu5mVPPSxtU2S+DP9r9TACmrW3bXq0y1u7UPh8fAio/bDnzaqUC2mIxp/u58U1DsTgUQvHDcplXEodp9DeA5+WuaViOBk0tZVaHk/6wnHby3ETieeTZY6aoApDLPYOphZ9A8zwM/pIbDRDnbswIhuROdFxvYyrTTFMBf/dkXaZAQnacobh5MfO9ENU1jcgCT+VzqD72ZngqbP8imj179hKM5I4j4pOJyMOmLlCVNuOE5GE8T69FgsGe3LHcWiKLLoWjXN9BkIpft2Scw6q9vAZBgOdVsuuXVObnCJsBRxmKqkWl00KTzKCpahyLMMowe1kGwCSfGGFdhEPXg5jIffqfpKLRvzm3gYndNxWSXIE1b3NATtcrUCTl0pbM75mo/ImdQjbKaV59LMKh6kF3xuPJ26vO1YVh+YcYiTETMNkhHgfnE7DdNeuhY5gctgNvhEt8Bau7GeTTY1Rs3nXMe0vfRRaXjuwbMWKJV4GyYt+oUf8tJdbhbsTztClq+CJsd83mGDU8jufpRSgCE7vLzEt6TNuOEWKzr6E8ufClzc3NbiP18jxKxLZkxJzatqxEdDYYnfvmtdwUl80EFxb6K9ZqzTvX8NXOYNRqNiq/4pYDM6a33YgqiI9ERo7FILDoB4sK2HyzNO1U9B0Vh8RMf+NvKuDS2RlNO1T1V+RMNmbtHLLI9fRXh8W9rRuG3bOL2Oe/qHssupbaVQEwbNH4voglknsLi1l/rMJDzZuQxVMwgnkc60vVfjXNFNlYj6Nda4kh7ttWPNUB/1/btGXfrm/fLj2ep/fxPG1PxCcRSYfX4KhLP/4+FIFnMbt272ojRthdYuExkY/5BJCW7zeEPhk6bJg5Dhik1TdZxULInBZXjjlLumGncgTdj5OvxOe7pPt8vHJgL7MAm0For+WVoxudk/aZpRQuTyf3ZgVqeaK22EgkYk75MzPBbWHFHXxRLfZU5PNih9zPWBDaOU9fq7sI/S4ajfbKUnT5B3m5Gsfjqft8DYPMKP56YnLbRLFc6qLevfwWv4MRzM9yu/aLEnUt0PE0AwChWI16dK2IVUplOVbZ0VA+Gxb2RJen13tNERDMBtzkb8msj1zMO7oO7t0zGP2lB/nfDwWD5tWiip5t7xmLEQhlyYXoRnPWeFmibkaKRa7fwHDIgZLVzYzKJGfmv8disS/LkFQ1qqGx0YyyXZV98/nXamXMTEe48bLIqmj6nzItZgOl2wBtHpTI+93y7k783GTSnP/idvjdOhikmk2Q3cmqXFpMcpB5NbYcTc3iKu4k5syZszAWT57GFjouIdMg8bx3q3yYlubf/m/hglnhcNjTwT1lc8tFClme6gYtsDGXpM/eHMvxNrK3yLXz6LMg9NGCfzF/fgKzAUexI5tAqX6829UQGopO+zrMrr1czZGgKVdu898Y4y5pMTBIO85dJeOrFGE55GE6nDesUnZF2ThkmYNYisbVInD27NlfkZCHD01JVd4GGBUMmhNe3T5OM2tuIvE6VfATYXNCn0sKubvWSiQKYDZtmgO74CxtfD4pdVBP6UTeY6ZhCWmed/LqUnoSksWyjEbnfRJLJg93zClXJFOL0VQSJkTrk5OZEQoFjq0kXRlab2v7zJ5mCsrkUwdRHusg4nWvQB3UaWAVIXtQTDy5D54njFp5RhVqv4U4vtcitm1GW1VgBxY+dt9wKDQtO0UP8loaa9CgsgfoZPMWGoe7y/Q1KLpmZsfj8Wr8TxXlbnnbDDhudDDY+ZCiinIicrx8+U+ootF/dqaXyXVjnUOW+1sPFdanKDmTazti8Zl2VDR59wP53u7z6DqHLisA+SyxnvlGNJHanYXMu87d3di0AgvfirXM27BO5DZFlC9C4b3NjafebWonR+t0K58ck169seNNAQC2VVhv7tWq9vvM8Ty9gKWB75sjZFFZM0WJWxcNZgOE5MFwKGhe53V73co1E0fEbTMYYfahR15jwkykactuZwsMCYVCq7pWrAsELPRvJBPYHjVzE4mnkWEUtqzJWNTdWQC0FzFvgJXLZ1Hj0qXmCN9yNB3iFi5caGZlMOvbIbiDB333//Ac/LdDYI08yGu+O2un6q9W5vO0/C3dOG8nz6Xr924rAPmso8nkdExlbidsbYew52C7bpiOkUx66siRI4d0mYnH3f1CVqDLedRPQk+HnojH8wLqp1oDtyTmCFk8T5sJO7sCBddpStCUMkxC54XswOTuHsjFxGZKuFQ+2fCM8Iyso/YXI3wXumVjZTK12RRpSY8IqCL1g9LDXpZYXPdqFOHdFoSZo13gKd83Ck2u9PVHCBzXNkQkLyNvB7bmBssRrm0IWq05VK4WZWmeO3e+6wFPtcg4zxP/R95ZnTumxV5ExzURnc4+4NidjmvbQQ2+R6HBl9UWkUe76ejyoNkRoXcMU1//WeSpk2Oi5r5e1YFW/ni8+Wk8T1sIixmNmVfBugQBE/8gaQfNdCNGdpWzGDNmjDmr3fVwLXQom4dt+8SesF5q4fikvBDzwqQIDYvV7VPpirD1FARF3svu9TVt2zZn33viuTwRZo7cFQhfZSf/mTxYxHVpQsjinmg/Jg8oG5uacpW1QjXZBAjZ01tKZFt18by2uavqiCWTj6PjGo8ZAXNiWddOcRLayZLMP1AwH2xFxp/JePpCHjQA106toox7gRharCcFQER6VdvsBWj6S5ZOPJ66H88Tpk/ZfBPAW9vuXPuDQrbtLjw6p6N0+juP35GQq9Gp3tgzljzMfHFXBxBFUGgPyjDX/N3/9tw6ujDIQn/KrjMtPpEuLQPkBl2m3+6YcUffO7FY80sdg9x9QuShHQlmvaSn2pB5ntwKXpMTVIFFr7WhfIVrpgDkMhA01keCiaTpuE5CmKdROejajBDvFg4GvRyS0JbGOGbPm5fCfQlseSM0Jtfgy9PVcSw0SU/v/frT6a5+lKaOaz+gipaJJRJ3sc+/LtbaL0TNv4GtyKCt/LB15FNRMpIW9tBxV8azJ6jZ4/6YCsti+rWFFaapNrmrIidMZtaIK83Yoow5oa/s8iuzVLT5r60MzDVbT2/Lo9oOoZq8KSbCvd2GqNYKQPavMMeBouO6Ke3IBphaMg3HyUZ4vTD9XyQQcN2AtBw7gd/LSMnncxzXaSnwqmfjXn6mr7+YPz9Rz5XQsnlDIBqNLo7Gk1didm0Dan0V11vCNiq5CkrvOm1eLw5mc3iLF8r6omGuRedtNhhnerOijUuWmHfk3d50Gh2uvN9Ek2K36f8lZDV0cZe+9L12xFSTN8WYRBfD4wAAEABJREFUufxRxD3QwHpEAcjXI5VKNccTqRNZyOwPqET78YvFRnEorc3mMym8M3lap3OY3deBCvnWkTt38puHqVDq8vpxHVVXi1KAAGbX5mKp7XBhMR12JV+hW4nJub6AlbuTuSZT6e4Zd5MCw6xucuicnKnXO26z+Q6DqYc7F265kArfBggGgyPBweXLf/IglFBv3x8Bs+VMn3/rarn6dNmL5/brLieuUsIeVQDyZY4mk09aGWcLqJqu72Dm0+C+YSgUqOhcZnHI2ydYRWp8ZChKXyOTaWiY4Im1sOvBKZ74KFHdIRCPp+5ln7MNMX3quXBCO2F0uLVneiLtuPNgOVSJspVPVf07y988MJ0EGs/9PAgPQb/cgDQljVXpyX8dOWk7yuHBddCO8H/nStPDt7nNzZ8uXrbMvDKIFQJvmbNwqb0ARRmgct4UgNaDKUBelE1dB0KL9HZWtYjr0al1XVEtXFkEotHmt9IZ2QZEH8J6M8w/80aoVB0QwAJ4B38veeLxZnMWgcsyJ4cjwaDpZz2Vki36kQvhh3MTiRdcaDS6jyDQq0JvwYIF//O3pM2xkGbDnhfItsTa5bpeCA3N0kzGHFG51Lhd7KqhUFMloyEXdj0YLWTe13XP0OereMeuO1OlqCcEzBIb+zLmefK2OZBpn3A47PWgHLf15nqCYqCUxSES1zMBxCJPbwOMampaE6P/8nutWk/+k24A7L4xuxvMNWllCPSqAmCKajamYRRrvjBmvK7WosyunYhKBJgvVKGlPlsiukMwi3Vkh4A+4EHnvQmK6XZWN/oIeisWi7meHgZeavo4AtHovI+Z5FyP1cDjlPE6g+Sp4047MiSWSHLd2GTyTo9Y9EkyLP2YZQB0c2WKL3QQYv2wZY1jWWYvSbl9VssyRN3EUzy0I/5t3bSf1ra8Tlng+nBkrysABjusYU7B+qUnQS3ELhtUDMd2y0KPtfvKug4dM2ZMTXZ7ls21O5FOxpvSYtGj3clG0/YtBKKJ1G0o8duwrobZ2/MklnjatNsoUpODd1wrMkAJoPB9gqq7Le81YYbTHNUO0jKGqfyX/4T+0f0P17BrO2KRYJlSalQVEagLBSBbH4e8fRJRyHw+NZskdyl/8/mmgABTZbiWN8Nali49ujxJ/cTmvpXwIy8lErLMYUpeSJWmfyDgCNNNXqoiIp6eJ5/Dng6RSvtJO28vwFeRBjOoZhagLEdLfGWXAUbZ9ngwKDvSFcu5BTTdMpidcm1HaLvahrqFsvfEdaMANAwePA3FdmDdTEXHMsZi2anvp9yYmng0zp9297x0w6cnrJNOm68mumMh9FY8Hu/eR2V6okKaR1URsKzMvzwxtLwdcyp+v2vHbfKDoNHO2wDRg3bZssxkZFf2zQQhOTD7JT4QFjMOOeVH/0yfxuPN3f5wjbAnRVLbULE/qQZhdaMAZL91TeSyozWLwJBQKNT+TnI2qPwFGvJfy1O0xgrR6slg8PhWX/1ex44d28hMP/FSQrHoZi90StO/EMhNDbtv3PN4znk0GjWHSH3rhhKeofXcaDS+ugjMnz/fbPp0OxNg2Ndffllq+dQnxObUwNIFE7kVkQLbPSPysQcGZl+TzwOdknQTgbpRAHL18HS4xCD8cvSebvF46gkQfgHrbph+EwgE3EfW7pxqRrF40SIj/L0cqfntoEGDu3hiV82Kr4x7BgF01uLleRrksTgOMb3jSsvSN9+mca1YnRM44roMQBYVXQbAgGpnpjJLN0wtDWnn9qog4JCXs1+GRCJN7qebVqVAA5tJvSkAQ7z8HZgtyI9EvJAbmgwR/5a8/YY1WNY13kh7nir7qg6Jp/MQWOj62bNnf9XzpdQc6wIBZi/Pk/dnScT9ZE2hiWaGqi7qP4AKEUulpqO6s2FLGibeL7d3qAMNS/npfxH55+x585IdEnXRIz6fexsCbydt7Y6bmhojYNWYf0Xsmcpooe2czHRXut3rzRVLJMzO6I+8UGO97PCufDDFC+/u0JiO1fFZ94DHCrBuZhFA+oMbkcb3TwSyHb3QUNfaCbnuys7zECYjZMjlN+S7774pNdXsklSju4GAg2XBsq/oCdH3KJPZszAPjP7NcuoPCsOWd1uSPYZ9+eAu+ePx+FzMJH3qlpgtOtCNRuO7j0DdKABjRo4MZhuoe53a15DcaQsp0iT0i8KA8m75U6QLH9Ioz7N7sYu/+/YqcNgS1oORq7v/yo6HbJSkLhEQWWbWUV3LBqFuXiNzpTMEjsNmE5hj3OUsE59YLl7jaoOAlXbMFwLRjZbmLyzLLQNkzPHqK5dOQV9Ek0lvG0rLMOkQJWQ2fHcI6uQR2hrLABt1CteAqiJQNwpAi99vPkHpWjkh7vInbWPJ5ANMMtU1k1aCwWLx46ODwQ1avb17xYzExVBgTvVYii+EfZd7pFWyfoiAZCxPzxOeB88fiWpVKPllV7iE9gqHmzZ2pVOCqiIwp7n5MzB8Hra0EdrTzCTmCaCslR1pi5CZOXVV+vL8vNyxNGlezXYllbTlaanTlZESlETAioSClwSDQU/vApfkUpUIx9M77Uz0XC67rtzEYd8J4OH1a16rZoim9rYSELYDeBDkMq8VhpZ/FqbavvNKr3TVQyAcCv7Btm0vGzSrl2lnTn5MBx/eObhziHDFz9Odnbl0CrEoY/0RoXjUcFXTcwgIuW0GXHnpokUTqfXnJ5FyJ6tm2OczCkArdZWumFGYKkTuewqYDgmFQt+vUrbKpggClji0ro/plXAweAriLdgeN8j7KCL28kdLRjyP4KnYD4JxDhGfT15/TKGMRf8JhZq8nbnvla8HOqOpR4LBW4n4N+T1J3R7PJ7Sk/+84lVtOqHxFsnMSCjwQ7DuFQEYCgXNUcBlD3VB2YxZumRJi6cTOA2xsb6GBvPOubtyybRzqLVPMcl6zJZ7173HCtGLGS3LZB5E9mU3dorIPqAhKKoTiHgVKvVjejIWy56jUoqiq+Fpi8n1GwZgzizObSNHjhwCd08a7ivnwXQXlLzAH0JM14fs4CtoFJ6/HNXdzE367OiayYwWjNfNPodpyNadrm6UZeKjicTNqK9ZLytDVRAlNJTFejIcCl7aUw0jEghsuHjRty9ghGYO/CkoTFnnB2mRM8pSaGRPILCqCP89bAf/jedps57IMJ8Hpt4nYIr1kry/7F3oEfNBrrI0y0XOmTNnIZHcuFxwUS9mIa6GApsfbRalqWZgxLaP+Hrhl9dWk2df42W+f4K+zSgBJYuOPiWrAPhYyg5qhOTmkky6GcG+9DVgsQTWzaw9yOczG5975FyA1UaMsCEHn0hFRo5xK1h/iM8rANm6MGVHL89H7ODzeHD3QmCHePirakxnlWEya1bevkgmdEO1CtAwaPDJ4PUKrFeD6TL6RRJKErDZwWuiSukikcjwkG1fLj6eibRbwHo1CzNCB6VSqUVeEyhdzRGYaGYDoAg8gTZjBCEesdrlGbHtPcixzAYrL2+JQE507Xmy/BnzdomXznsQhM2UcCCwU+1qTWYku1rEDvwDAutuEnZ/86GWhakD3uyQ2zLAGPQzYWBVZp+GxDCTaM5PoVr85s6dH0cD9La8wLRv2A7eV+PZHQvPzwnpBv/beEj3qEWd65FnUQGP9Znt8OA+DtBnh+3Ar0OhkOdP8HqpZFNTUyAcCl5PjmWE/3AvaVCm180mvhxtt2+zZ89eYvnTZgNMpTMKmwKb6SE7+BSWBcz6WVEMKy2geb8/ZAR/Jj2bSS4koYYKeCy1iA/A7Mh7FaRR0p5DYE+0mWfDtv0h7MWBQGD1amYdCoVGh+3gnRCAj4PvSrBezJNYi+3Sfpps5+19WWoI+fgpLAeYZTfLS8G80qDeI8wzAyXrPUH795quv9PhfzX9qtkQWLqqmcyGWAoot8HZHPyTLs2g+zFC1i/BZT6sF3Pw1wsXvGj6SS/EldBAOd8rhIEdnh/z/Qxvg9FKMqhjWrcHchQR/xzrMO9jnf5jKANXQZvfJxgMjqQKf3hYV4zY9kGw9zT4rE8g4MyeA79HNml2slPb4pHeE5npyDBqNl/J8nZKYAFXaIm7s1hT0fF+hgZ0pVEGTB0LSMo6zfo+6LcN24GfgcfLDjDJCn6ilcsm7By5VFgOnZtImIe+c2xPhohzTTgUnNyTNjuS6ck6disvWYtILvNb/Bk6nHcgFK+IYNQ+evToYZWyXWPYsKGRUOCHaDsP4fn8EOmPhHV7nkGSNYuErXOyri5ehg4b9js8jO96Sg5lFssBv0dZXzPPCdLg8cG1iyYcDm8SxgAC9f4898yYd9m7yK1fJoNsp7JLnI7IlsS0RonaOxnhW0vEVS04Ho/PJ6HzKmC4BfrJt8N24DK0gW4JarOvIGIHjg/bwZlQzh9HgzQfQ6qgKP2D1GuHQWgsY3E5hyye4mNqBnCfwj4O4XdtJBS4MGzbJ0Zs+0dQFI5Gx3ZaJBS8APb3EUzNhW37Izys/4OG9SCs2Z08hCr6yf/FUqn2148qSlueGKPm2WlHjBIwpzxlydjVhOmnDGWAyfkqbAc/BAaP4X4DcLgibNsXA4dfAacrQ7Z9c9gOmpmV97G+/z9g8gK1nlC4FXXt9y1Zsjem6upi0x8eoj1IaFJP2kwm872uQde7qYDVBhCKF+B5eDLTsuzLMJ6R1nZjXxMKBX8K/4l4rn4I9zGwp6MNXRC2A1eFQ8EpYTv46dLBjQvMPgPUwsxiDcbds4HCeCY6X6M0eE6zPOF77723zC9k3ikvu+FsuXSbMZ4TlP+tMJ6LUCi0KeJdBwFQ8oZHoCiZZyhsB98jJzOLhMwAosJ+BLkNEOMQmbc1cCteYbQ9s1eoaP8PxW6a6ReLp6xuKGZ1UU6p5LhyLG/xxWgDc9AW7kS7OBDtaISHUvnMvqqwbZ+E5+zRQX5fSojNHoce3aPjoZw9SlK0AXgsgdEe94LwOx0d0eUY2dyIzuwuKAq3o3FdJ0JXwJ4PkA9AHEY+1KVNHEx8ayyRusJjmbpEhnXzz7EcMAGJX4XtusFIB4nXBgb74n4ycLgAdb8MOPwfcPopkxyPcLO3wiypDIK7O+YzjOK2j8VS5nCW7vDRtL2PAKOdrNXabuQsFroS/htF+O9w3wZ7rQjhGeBzIPjMBi7z7HXx2eXLoTB6W3t1wWVOMvkuynMMyEoKGsQVM+NQv8tYnDfCdvBrdMhvwkJpDtwVtgM3hkPB2xH+ANwvwkYlk/4SfcuT5hkCs/Vg1bggkBXgTOVObiwpNK1WwUg99WNfgzk46o0K8zOzPkeiXZgZsHloL1+E7OBzaDuTQ3bgJrSbG9Gm7oX/nwh/B/H/E4vfQrv7K54zc/iRSV9hlv2P3KrnKjGEfzSROAllFNi8qcndLAc0NA42m/vuqkkG1WQq9BjKujlGcbOqyVZ59W8EhPiKWCJxUTVriRHcg1BszTNaqRKQL8aK6JA3goXSzD8ic4qg0NFEdDBlXw3mMFzDwMgAAA2NSURBVOmvawg4VHYZoATTVCCReKxEXE2Co9Ho4oyQ2Xj3djcyGM1E20MhncTEJ5BpR0yHwb83E5m9DiuS/johUJ8KAFML/rjzIfzNiDnTqdQ1CjAbA2OJ5I+Rt+mAvHxJrUYlKc5WiJLMcgQ63f1RVv3IT3GYNLQzAosxej42nkj8rHNU90OiidQteGaOA6dlsGrqBIG0yEMoyjewng1mmv42k9D/ek5RHULMWMzDUqx5LbGSN7Oqk/kA5mKxRV53YfYQTPJfIWsrCLniZwP0QCmQ9x0N6YzRGsu+T9sDRcln8S2mgX83eMnSdaPx1D35QL3XJQJ19Txh9PMCWb5N4vGk2dVdM8DwzPyNLGciFIF4zTJxZ/wiRguXupMNDAosbS5Cv/FABbUVy5+5pQL6qpKivM0rrDRkB8bMb1UZV8ZsERGfG43OK/8WBfWPnxWNJ88A4FhLoXd7uUpfoPM4JpZIja+Hqe3Z8+YlY4nkJHJkAkbeT/USNimsWf0Ga/2rR5PJCz5buPDrXiqHZusRAbQZM+14KjG5fvHMI8uukn2A52lSNJHcIRaLfdRVJpWki8WaX2oYPBiKc/agIKeStN2iFfrE9GHAfnuMJPVV2AIwM8xuZwK0UzM9C8Hn+eNQ7Qmr5/rkk0+WZmd+hcxel0pf0e5OQdIMxQN97XpYJrsajKBL4trPjVkCEAB+dzyRHOcQbw+N8TrUuas74pG0IuOgk3oGdlIwkVwrO4ogKgd8RcyrQWzePgA2ewKXrWBvYyKv3xHoavZmyu4hYdkfmIyKJVI/h0JUV6PKrlZsgKRLox3fEIsn10ZnsruQ3AwF0v3c8+qAY754OQXP0z6xRHIDlMPMYCH76jD3wsUsTcUSqZMx67A5lKDJSOPA1sII+D+L5+Qw1HM904chE4FVU4BAIpF4Ee3Bk1A3bbUgaa868Z8+judnAyY5GwWZC1sr04xljyux/LA22tDx6GtrmVet6tBlvkYBaEuMxvICRppnxBLJ1Rzi9QH+CXjI7gDBLFgvJ3+BzMUImSnCh5j4xJaME8IfvQvsg72x7uRS0g7RwOVV2OPI5w+i0zGvMt4JgmoqSnMw27Dz0GHDRwD/g+Px1GP1ggkayTy0gwfq0fp8vlorZPibu2QcdCZT44nUifFEMsyObISO5jQhNks4ZrNTtdbL5+BZupeIf8w+fwDP0n6w5kAgh3rxh1mH/0IJOjQjtCaz/AxFMX2I4N4dsxCJnwCOp0M4rAb+O+E5uR9hVTuwxmH+wq2doxJPIs++YoSYLyWmss+vaUMrrrjyP+qpUnh+vosmUn9CnzgWfe7+qMg9qEd3Z0HNc/E2eP2ZLNkFfW04nkxeiOWHz6tad6YnUNaymJPP6XVlA3178WpDGXgf4N+Ch+xogLQZ7BD2ZdYStn6AaemLctrig9AuzWtokFVk1kyMNdONxj8dcffhYb0WisTZaGB7OsRj0DmFwetgaFs3Nzc3Y4q7eP5FQ+sg0OxYRadzH+pwFOxq0BzXQD0nMdOFBhMh+heK+SoRv0mUxcTrjMZosqxdzPvVSFdXxrzuhXZwSD1a/B+xugKreGGcaCr1Njqa6+OJxBFoNxvBroRnaT3TdmD/D8/HrUj6MDqNf+NuhKV5loz9AP6ZJlyyygP/Cc8UBKCzm+VPm2dpNTxLP8S05V3AYgFo68okk8nZ0XjqCtR3M1/DoFVRV0zt8i/MbBrq9CwKO5OIP6bWZ8XU922Evwy6KVkakovhnmSwAo9VYfcGjn+BcKhJ5wm+L7q1c/yHZ6G8fcaYtuFWJ9OGzPR7PVbK9Inocx8D7kegHquyz9mYiM1R7lehzzVKC/pbepso29+iDWXb00y0o2fxXEE5pqsI9GhPExcvXTYMbWgj8Dor9wp11ZRHKvhF48nTUdbyfSaWzAqS9IqzpAJQpDQZsz6EB+SRWCJ1eRwjmxjWyCHQjRY1Hu41c3Yd3I1/R8Qdjof1TCgSf0IDewpKxRdF+PbpIKM5op4P4g+/0mASTyT3QP23wkO3Ce5rEvExBI0J1oORn4Vt++ceCJWk7yOQxrP0gWk7sL/G83E82stB6DR2xt0o3PnnCWuSyfEmHJ3WEWhXZ+OZggBsnmZeXe1LMJgPCaGuj6MOl5nZNNRpJ9R1PPxr456v70YInwC6/bI0idRv4X7QYIW6CqyagY0A5FDzW2gzN6LNnBdPpA7EHf1tciPcc20oYdrTeLSjnfBcQTlOnmfo0Z6eq/TjV/0d6koUgN7Gok/mj4Z3F+T/xd4LL78OBYM/8U6vlIqAIqAIKAKKQOUIqAJQOWYVp4glUpcjEaahcPVgmOl3UAKu8ECqJIqAIqAIKAKKQJcQ6DsKQJeqVz+JYonk+ViT8vxKDpSAC8Kh4PWogf5HAEGNIqAIKAKKQHURUOFSXTzLcZNgPHkiFjG9nykgdErEDjw0YsSISr8QWK4cGqcIKAKKgCKgCFBfUQD6xV81k6gl48jBRPIfrxUS4gMGN/hfDofDa3tNo3SKgCKgCCgCioAbAqoAuCFU5fhUKrVoWdrZg4le8MpaiNZnJ/Na2LbNqy9I6jWl0ikCioAioAgoAsUR6BsKQPGy99nQefPmfbs0ndkLFXgO1pOBEvA9zBzcELaDz46y7fGeEimRIqAIKAKKgCJQAgFVAEoAU+tgowSkHdkb+UyHrcTs4JC8FrKDT4UDgX3Gjh3bWEli0LIuJwAFNYqAIqAIDHAE+oIC0G//IrMcIGztTULmNMWK6ol1gN3J4imLv/s2FQ4FJ0dCwQswM7D7qEBgXCgUGjV69OhhY0aODBphHw4GdwyFAsdFbPuWiB38lJzM3RVlpsSKgCKgCCgC/Q4BVQB6+S+Nx+PfDR0+3CwH3NmloggNJaFJInQFZgaecix+m8WZk2lZtqDF70tA2H9ITP9m4VuE5DgsJazepXw0kSKgCCgCikC/QqD+FYB+BXfxypizrmOJ5FHmmwmgcGDVKAKKgCKgCCgCNUVAFYCawlsZc/PNBIzmD0WqxbBqFAFFQBFQBBSBmiFQ7wpAzSper4zNh08s4u2p9QtppD9FQBFQBBQBRaAWCFi1YKo8u4fA3ETi9WXp9GZYuzdHAeuSQPfg1NSKgCKgCCgCRRCobwWgSIEHSpB5TTAWT57mEG8JReCfqLfAqlEEFAFFQBFQBKqCgCoAVYGxdkwSicRMKAL7Wo5shFzugtX9AQBBjSKgCCgCikD3EKhnBaB7NetnqeemUu/EEskfpx0ZSUKHwN6PKjbDVmaYEiL078oSKbUioAgoAopAf0NAFYA+9o+aw4NiyeQDsIdBIQiwzx+BMrAP7PlEchmE+7UsdBuWDW4g4suZ6ULcT0LY3lhOGIPZhFA8mUQY6U8RUAQUAUVgACNQvwrAAP5TKql6NBqNQRl4HPaPsUTqFxDuZ0aTyeMg6E+NJRIXRePJK3G/CWFPYDnhi0p4K60ioAgoAopA/0VAFYD++99qzRQBRUARUAQUgZII1KsCULLAGqEIKAKKgCKgCCgC3UdAFYDuY6gcFAFFQBFQBBSBPodAfSoAfQ5GLbAioAgoAoqAItC3EFAFoG/9X1paRUARUAQUAUWgKgjUowJQlYopE0VAEVAEFAFFQBEojYAqAKWx0RhFQBFQBBQBRaDfIlB/CkC/hVorpggoAoqAIqAI1A8CqgDUz3+hJVEEFAFFQBFQBHoMgXpTAHqs4pqRIqAIKAKKgCIwkBFQBWAg//tad0VAEVAEFIEBi0B9KQAD9m/QiisCioAioAgoAj2LgCoAPYu35qYIKAKKgCKgCNQFAvWkANQFIFoIRUARUAQUAUVgICCgCsBA+Je1joqAIqAIKAKKwHII1I8CsFzB1KsIKAKKgCKgCCgCtUNAFYDaYaucFQFFQBFQBBSBukWgXhSAugVIC6YIKAKKgCKgCPRHBFQB6I//qtZJEVAEFAFFQBFwQaA+FACXQmq0IqAIKAKKgCKgCFQXAVUAqounclMEFAFFQBFQBPoEAvWgAPQJoLSQioAioAgoAopAf0JAFYD+9G9qXRQBRUARUAQUAY8I9L4C4LGgSqYIKAKKgCKgCCgC1UNAFYDqYamcFAFFQBFQBBSBPoNAbysAfQYoLagioAgoAoqAItCfEFAFoD/9m1oXRUARUAQUAUXAIwK9qwB4LKSSKQKKgCKgCCgCikB1EVAFoLp4KjdFQBFQBBQBRaBPINCbCkCfAEgLqQgoAoqAIqAI9EcEVAHoj/+q1kkRUAQUAUVAEXBBoPcUAJeCabQioAgoAoqAIqAI1A4BVQBqh61yVgQUAUVAEVAE6haB3lIA6hYQLZgioAgoAoqAIjAQEFAFYCD8y1pHRUARUAQUAUVgOQR6RwFYrhDqVQQUAUVAEVAEFIGeRUAVgJ7FW3NTBBQBRUARUATqAoHeUADqouJaCEVAEVAEFAFFYCAjoArAQP73te6KgCKgCCgCAxaBnlcABizUWnFFQBFQBBQBRaB+EFAFoH7+Cy2JIqAIKAKKgCLQYwj0tALQYxXTjBQBRUARUAQUAUWgNAKqAJTGRmMUAUVAEVAEFIF+i0DPKgD9FkatmCKgCCgCioAi0LcQUAWgb/1fWlpFQBFQBBQBRaAqCPw/AAAA//8wzzwmAAAABklEQVQDAO6uiApAq9ZSAAAAAElFTkSuQmCC;" parent="1" vertex="1">
          <mxGeometry x="250" y="20" width="100" height="100" as="geometry" />
        </mxCell>
        <mxCell id="6i3nIcgut5pt7LBlZdHJ-49" value="" style="shape=image;verticalLabelPosition=bottom;labelBackgroundColor=default;verticalAlign=top;aspect=fixed;imageAspect=0;image=data:image/png,iVBORw0KGgoAAAANSUhEUgAAAgAAAAIACAYAAAD0eNT6AAAQAElEQVR4AeydB2AURRfHXzokdJDee+9SRKSJFAUVRRFFhA9RFLuiiIJgRVRsgIAFBRRQpIkFkCYiKM0C2BAFqSEkpCeX3H3zLgYSyN3t7O3ubfnDvtu93Tfl/WZy82Z2djac8A8EQAAEQAAEQMBxBOAAOK7IYTAIgAAIgAAIEMEBQC0AARAAARAAAQcSgAPgwEKHySAAAiAAAs4mwNbDAWAKEBAAARAAARBwGAE4AA4rcJgLAiAAAiDgdAJ59sMByOOATxAAARAAARBwFAE4AI4qbhgLAiAAAiDgdAL59sMByCeBPQiAAAiAAAg4iAAcAAcVNkwFARAAARBwOoFz9sMBOMcCRyAAAiAAAiDgGAJwABxT1DAUBEAABEDA6QQK2g8HoCANHIMACIAACICAQwjAAXBIQcNMEAABEAABpxMobD8cgMI88A0EQAAEQAAEHEEADoAjihlGggAIgAAIOJ3A+fbDATifCL6DAAiAAAiAgAMIwAFwQCHDRBAAARAAAacTuNB+OAAXMsEZEAABEAABELA9ATgAti9iGAgCIAACIOB0AkXZbzYHoJzIZE8hY4S8JmSpkLVCtgvZASEwIDDA3wHqAOqA6esAt1ncdnEb9qoorzuFcNvGbZw4NMcWageA02coLwkcu4TEC/layEwh9woZJORyIR2EtIMQGBAY4O8AdQB1wPR1gNssbru4DbtPlNcsIdy2cRu3UxxPE9JDCLeBYqf3VnT8oUq8nsjOc0L+FsJQHhL7NkJClR+RNDYQAAEQAAEQ0JUAt3FtRQoPC1kv5KCQZ4TUFWL4xpkxMtFmIrEPhPwqZLyQGkKwgQAIgAAIgIATCdQURk8Q8oeQVULYORA7bTdfsRnlAFQSGeCG/2exHyYkUgg2EAABEAABEAABIm6LrxIgfhAyT0hFIbpvnKieiYSJyO8Swj1+bvj5u/iKDQRAAARAAARA4DwC3CYPF+e4zeSJgxq0mSI2Hxsn5uNS0KfLixh4SGOG2JcRgg0EQAAEQAAEQCAwgbJChScOrhR7bkvFTvtNLwegk8jqHiFXCsEGAiAAAiAAAiAgT4BvC/ATcvxUgXxoIvIXSA8HgBt9ntlf3V/CuAYCIAACIAACIBCQAE8U3CC0+gvRdNPaAeD7/MtFDmOFYAMBEAABEAABEAieALep3LbeIheVf20tHYBrRFLvCcEMfwEBGwiAAAiAAAhoSCBKxPW+kMFCNNm0cgB4Nb9FIkcRQjTdKlWqRLVr16GWrVpDwAB1AHUAdQB1wPR1gNssbrs0bQzzIuM2mx+p75731f9noKscWSCdQNfrC4VlQmKEBLUVL16c+l85gJ59bip9tXYD/XnwX9r9037aun0nfblmPQQMUAdQB1AHUAdMXwe4zeK2i9uwhYuX0UPjJlD3HpdTTEyxoNrI/wJzJNzmBr16YLAOADf6i0WmSglRvTVq1Jhenv467fn5V3r73fdpxP9upxYtW1FsLN/2UB0tAoIACIAACIBAyAhwG9a4STMaPORmeuHl1+nzdZvp8YlPU526vBp+UNkqI0LzqHu02PvYAp8O1gHgFxqoXrqwevUaNOftefT1xi1009BbqGTJkoFzDA0QAAEQAAEQsAgBT4F8xsWVoIHXXEcLl6ygZ6dOp8qVqxS4Kn14sQjxghDVWzAOAD/rf7ealMPCwmj0HWNo05ZtdNWAgRQeHkw21OQAYUAABEAABEBAfwJhRSTBbV6v3n3oo6Wf0Q033UJhYUVpFRHwwlP8psH2F54mUnJObcvLk/1migSkw5cqVYrmzf+QnpryLPE9fxEHNhAAARAAARCwJQGPp+AYQGETuQ188JHHaerLb4hb3nGFLyr7xm0wrxjIe2UhCmipCiTCjxLCr+8VO+VbxYoVaemyVdRbeD7KQ0ETBEAABEAABKxJwEO+HYB8iy7r3pNmzp1HZcuVyz8ls+cRgBGFAyj7psYB4GcRH1MW/TmtsmXL0ZKlK6hZ8xbnTuIIBEAABEAABGxMwN8IQEGzebLgzDnvU6nSpQueVnr8uFCUXoNHjQMwVCRUW4jiLTo6hj5Y8BE1bNhIcRgoggAIgAAIgIDVCfi5A3CBafx0wLTpMygqivvZF1z2d4IfCbwpX0HpXo0D8KDSyPP1Jk6aTO3a84TF/DPYgwAIgAAIgIC9CXDvn0XGylat29Jd90o3s5yEdCBZB4Dv+7fklJRKt+49aOSo0UrVoQcCIAACIAACtiAg0/svaPCQobdS+4s7Fjyl5Li1UGpFJD4VbrIOwK0K4/Wq8dD/c8+/6D3GBwiAAAiAAAg4iYBs7z+fTVhYGD382JNqbgXwC/nyowm4l3UApF5CcNPQm7VY8SigEVAAARAAARAAAbMRUPIEgK88165Tl/oPuMbXZV/nb/B1oajzMg5AYxFBNSGKtsjISLpr7L2KdKEEAiAAAiAAAnYj4HYHfgTQn8233jaKwsN52R1/WoWu1RDfGgpRtMk4AL0Uxfif0mXdulONGjX/+4YdCIAACIAACDiLgMftDsrgatVrUPsOMnMBvMn18H4q+JBxALooiO+syvWDbzx7jAMQAAEQAAEQcBoBtyc4B4B59e0/gHcy0lWpsowD0FRppGFhYcQjAEr1oQcCIAACIAACdiMQ7C0A5tH5kq6K3xXA+kKaCFG0KXUAWK+BohiFUuMmTalcufLiCBsIgAAIgAAIOJOAO8hbAEyNlweuW68+HyoVngOg6O1C3LAriZQn/8UqUWSdpk2b8Q4CAiAAAiAAAo4l4A5yEmA+uPoNlKyim69NJcRRVSEBN6UOgNQbCurVl/JWAmYSCiAAAiAAAiBgNQJutSsBnWdojZq1zjsT8KuiNlupA1AyYHIFFMqXr1DgGw5BAARAAARAwHkE3BrcAmBqSm6ps14BUdRmK3UAeEihQNz+D0uUkFL3HxmuggAIgAAIgIAFCeS6czXJdWxcnGw8mjoA0TKpR0ZKv8lIJnroggAIgAAIgIDpCbhzg1sIKN/AqKhATXC+5tl9zNkjPwdKRwD8RIFLIAACIAACIAAC5xPQagTg/Hi1+g4HQCuSiAcEQAAEQAAEChBwa/QUQIEoizxUexIOgFpyCAcCIAACIAACPgi43W5S+zZAH1FqfhoOgOZIESEIgAAIgIDTCeQKB8AYBupTgQOgnp0tQ7LXmp2dZUvbYBQIgAAIGEUADoBRpJGOTwIJCado166dtHLFMprxxms0Yfw4GjVyOF137QDq2a0LtWnZhJo0qks1q1WkqpXKUfUqFah2jSpnj+vVrkbt27Sgvlf0pEHXXEV33Xk7TXpyAs2a+SZ9uvRjb9xnkpJ8po8LIAACIOBEArk52jwCGIhdMNcxAhAMPROF5XtNf/zxOy1Z/BFNnvQE3Tj4WmrRtKFXrurXm+4c/T969pnJ9N67b9Pnq1fRd1u/pV9/3U8nTpwgbsBzcnIusIZHAzIyMujo0SP00497aNt3W2n5sqU0d84senryRBp71x3EcbMD0bxJA7p6QD96/LFHaPFHC2n//n1UVJwXJIITIAACIGBDAjm5cABsWKzmMMkt7i/t2bOb3nz9VRp+y03EDXC3SzvR/ffeTbPfmknfbN5E3Psng/6dPp1AP3y/nea99w49cP891Kv7pdSofi264bpraPor0+j77dvI5co2KDdIBgRAAARCSyA3N/hXAQe2IDiN8OCCI7SRBLinzsPu3PNu1bwx9e/Ti557dgqtXfsVJSaeJrP949GDLVs207Spz9M1A/tT4wZ16LZbb6aPPlxAp07Fmy27yA8IgAAIaEYgFyMAmrF0bEQpKSn0yceLvb38lqLR58afnQAje/dawWeHYM1XX9BDD9xLrVs0oYFX9aV3355j6EiFVrYgHhAAARDwRyDHgDkA/tJXcg0jAEooGazD9/O3bt1Cd48ZTS2bNaR7x47x9vLtNITOtzB2/PA9PTHhMWrbqpnXwVm5YjluExhc15AcCICAPgTMvgogWw0HgCmYRHiIf+aMN6hrlw50/bUDadmnn1BWlv0fyXO5XF4H587RI71PHPBkxSNH/jVJqSAbIAACICBHwO32EItcKFnt4PXhAATPMOgYDh36xztDv+PFremZKZPorwMHgo7TqhHEx8cTP67YuUNb75MLv/z8k1VNQb5BAAQcSiCniKeqzIgCDkAIS+X3338TjdxI6tKpvbfRS05ODmFuzJU0/wHx2gVXXN7d+3jh2jVfmiuDyA0IgAAI+CDgMuD+v4+kpU7DAZDCpY3y4cOHaNzDD3gfleP73laYLaqN5epi4ccLhw8b6nUE+FhdLAgFAiAAAsYQyHVfuK6KMSnLpQIHQI5XUNo8c//RRx709vgXzH+f0PDL4eTGnx8n5LkCTr5NIkcN2iAAAkYT0H8EQBuL4ABow9FvLC5XNr01awZ16Xwxzf9gnilWyIsOD6cqxaOpWZk4Cg/zm31TXeQnJHjUpEe3S+jJJ8YTPyZJ+AcCIAACJiKQg1sAJiqNEGaFl9zt0a0LTXnqSUo+c8bQnBSPCKdWZUvQkDqVaEKL2jS7U2P6oldr+nlgR/rj2s60rf/F9Ln4Hhmm3A8MD4+ia4Ztph5XvUvtLn2CGjQbShWrdqBixcsbapvL5aJ35s6mbl07ed9zYGjiSAwEQAAE/BDI0XkSoJ+kpS4p/+WXihbKPKGP7/NfP2igYbP6a5coRoNrVaQX29Wnr69oS3uvFo1jz1Y0tW19Gt2wGvWtVp6aih5/qahI9QUUFkalyzWgmvX6UfN2d9Mll79M/QavoBtH/0I33v4z9RzwPjVvP5bKV2xJYRKOhdoMHT92jO4c/T8aOuR6OnrkiNpoEA4EQAAENCHAo5RWWAaYjYUDwBQ0lq/XrfX2TPk+P1cGjaM/G11cZAT1qVqenm9bj7b2a0+b+rSjl9o3oBtrV6L6JYtThGiszyobcFAstgLVqHsFtesyga666SuvU9BzwHvUpPUoii1RRdccbNywnnp270KLPlxIejLX1QhEDgIgYHkCLpfeEwC1QwQHQDuWxIv28CI2w4fdRCeOH9cw5nNRFRPD+r2qlKNXREO/48qLaU7nxjS0TmWqFhtzTskkRzHFygqHoC916PY0XT9yB/W9fjk1bjWCisdepEsOedTlwQfuoVtvGYLlhXUhjEhBAAQCEXBZZPif7YADwBQ0kH17f6E+l3f3Ps/vdmv7Fiieo9exQimafnED+nFAR3r3kiZ0Xa2KFCtGAMgi//h2QKVqHalj9+do8KjddMWgj6lBs5soIrKY5hbwCMzlPS8jfhGR5pEjQhAAARDwQ0BvB8BP0tKX4ABII7swwMdLFtFV/a8gXtjnwqvqz8SJBn5E/Sq0oU9bWtKtBQ2qWZF4BEB9jOYIGRYWQVVqXEqXXP4KDR65k9p0flSMClTUNHM8AjNk8CDvmwi1dsg0zSgiAwEQsBUB3AKwVXH6NsblyqYJ48fRfffcRZmZv6uBrQAAEABJREFUmb4VJa9ULBZN41vUpm3929NTrepSnRLFJWOwjnpM8XLUssP93lsE3frPoQqV22qWeW74p78yjYbdfKPhT2BoZgQiAgEQsBQBfUcAtEWBEQCVPE+fTqDB111D7737tsoYLgzGDf+kVnXom77t6M6G1Sio2foXRm/qM+ERUVS7wQC68sbVdPk1H1LZCk01y++G9V/Tlf17059//KFZnIgIBEAABM4nwBOQcyyyBgDnHQ4AU5CUg38doKv696Hvt2+TDFm0esmoCG+Pf4to+EfWr2qLYf6iLVV2tlqtHjRg6Frq0vtViitZVVmgAFoH/vxTlFlvzAsIwAmXQQAE1BPQe/hffc6KDgkHoGguPs9yo8+N/98H//Kpo/RCZFgYDatb2fv4Hvf4YyJQHPnswsLCqX7TG2nQ8G3UodsUio4plX9J9Z6fErh5yA306dKPVceBgCAAAiDgi0C2hZ4AYBvQ4jAFhbL+63U05IZBlJh4WmEI32rNysTRpz1a0jNt6lH5mCjfig6/wrcGmrS+na4dvpXqNLwmaBo8b+Oeu++kWTPfDDouRAACIAACBQm4sl0Fv2p8rH10cAAUMl392SoaMfyWoCf78cz+ya3r0qqerbzL9CpM3vFqvNTwZf1mUa+B8ym2ROWgePB9uqcnTyResyGoiBAYBEAABAoQyHLBASiAwx6HSz9ZQmPu+B9x7zEYi9qVL0lfXN6abqtXhYxepY9s8q96ncvp6ls2UcPmtwRt0Yw3XqNnpkwKOh5EAAIgAAJMIEfHVQA5fq0FIwABiK5Y/indf+/dQb3Bj+/1P9ysFn3crQXVitN+4ZsAJtjuMs8H6NxrGvELiXi1wWAMnDnjDe+LmoKJA2FBAARAgGf/uz0eS4GAA+CnuNZ89QXdO3YM5ebm+tHyf4nv739waVO6p3F19Pr9o5K+yi8kGjB0HVWo1Fo6bMEA/Krml6dNLXgKxyAAAiAgRSBb1+F/qawoVoYD4APV5k0bafSokWLYX/09nUsuKk1re7ehLhXL+EgFp4MlwI8J9h28nOo3HRJUVC+/NJXYEQgqEgQGARBwLAGr3f/ngoIDwBTOk19/3S8a/9soOzvrvCvKv/ILeuZf2gwz/JUjU60ZERFDXXpP9z4uGBYeqToenhjIyzqrjgABQQAEHEsgW8cnAPSCCgfgPLLHjh6loUOuJ35m/LxLir7y5L4prevS823rUWR4mKIwUNKGAD8u2GfQEoqOKa0qQn464OEH76etW7eoCo9AIAACziTAvx1wACxe9qmpqTTsliF0/NgxVZbwQj6zOjWi4fWqqAqPQMETqFStM/W7YSXFxlVWFRk/6TFqxHD668ABVeERCARAwHkEeAVAdgL0sVy/WDEC8B9bLryHHriH9u395b8zcjt+vv+dS5pQn6rl5QJCW3MCZco1pD7XLaW4ktVUxZ2UlOh1BM8kJakKj0AgAALOImDF+/9cQnAAmIIQfiZ81coV4kh+KxUVSYsua05dMdlPHp5OIUqVrUv9Bq8g3qtJgt/3cM/YO8ntdqsJjjAgAAIOIqDn8L+eGOEACLpbvtlEU194VhzJbyWiIogf82tZtoR8YITQlQCPAPS9frnqNwuuW7uG3nzjVV3ziMhBAASsTyArO9uSRjjeAYiPj6e77hyt6ll/Hvaf36UZtSlX0pKF74RMF4+9iHpfu4hKlq6tytxpU58ndhBVBUYgEAAB2xPgUUJeBEgfQ/WN1dEOAN/3f/iBe+nUqXhpyjzDf2anRtS2PBp/aXgGB8hzAj4i3ssmzYtAsYOopo7IpgV9EAAB6xHIyrJm759JO9oBeO+dubR27VfMQUr44b6pbetT90plpcJBOXQEeASAXyQUGRUnnQlu/Mc9/KB0OAQAARCwP4FMHZ//15ueYx2AP//4g555+ilVfHld/+trVVQVFoFCR6B8pVbUc8A8Co+Iks7El1+spsWLPpQOhwAgAAL2JmDV+/9cKo50APiezSMP36/q1b79q5WnuxtXZ3YQCxKoUuNS6tzzRVU5n/jEeNVrRKhKEIFAAARMTcDt9gS1XLx/4/S/6kgHYP4H82j7tu+k6fJM/+kXNyS+BSAdGAFMQ4DfG9Cg2VDp/KSkpNCExx+VDocAIAAC9iTAvX+LvQCwUEE4zgHgpX6fe2ZyIQhKvvCz/jM7NqJiEY5DpgSP5XQ69niOyl3UXDrfX3z+GfHtAOmACAACIGA7Apk6Pv5nBCzHtWZTJk8k7snJwOUe/7R29alGXDGZYNA1MYGIiBjq1m82RUWXkM7l4+PHUVpamnQ4BAABELAXASs/AcAl4SgHYMcP39PKFcvYbim5tV4V6ivu/UsFgrLpCfAqgZdc/rJ0PvldEW++jgWCpMEhAAjYiIDb7Sb9VgA0BpRjHAAurElPPk787L8M2lqi1/9o81oyQaBrIQK1Gwykhs1vkc7x7Ldm0L//HpYOhwAgAAL2IJCRad3n//NLwDEOwPJlS2n37l35diva86t9X724IfGKf4oCQMmSBNp3nUixJSpL5T0zM5OefVp+LolUIlAGARAwLYGsrCzd8mZUxI5wAHJycuilaVOlmY6oXwUr/ZH9/0VFl6QO3Z6RNpRvJ/304x7pcAgAAiBgfQKZFl4BMJ++IxyAj5csor8P/pVvs6J91eIx9GDTmop0oWR9ArXqX0k16vaVMoRvJ72swrGUSgTKIAACpiOQk5NLObm5OuXLuGht7wC4XC56bbr8RK+nWtfB0L9x9dAUKXXs/qz0UwG8lPSuXTtNkX9kAgRAwBgCmZnWH/5nUrZ3AD79ZAkdOvQP26pYLq1YhvpULa9YH4r2IBBXsiq16TxO2phXXpK/vSSdCAKAAAiYhkCGjvf/jTQy3MjEQpHWnDlvSSUbHkY0vgVm/UtBs5Fyo5a3Eb84SMak9V+vo317f5EJAl0QAAGLEuBbf5lwAMxfevzDvH/fXqmMDqpZkZqXKUH450wC4eFR1Kqj/Jv/5ko6ms6kC6tBwPoEuPHXb/lfY/nYegRgzuyZUjQjRff//iY1pMJA2X4E6jYeRKXLNZAy7NOlHxMvMy0VCMogUAQBXmXyTFISmU14PlUR2XXcqYwMe9z/54KzrQPw998H6ZvNm9hGxXKd6P1juV/FuGyrGBYWQW06yc0F4B/HBfPfty0TGKYvgQN//kn3jh1DTRrVpQZ1a3j3fGwmqV2jMvXq0ZXemTubXC7rL4KjtkT1vP+vNk9qw9nWAVjwwTypVf940Z8xjaqp5YhwNiNQq8GV0i8L+uijBZRrg0eDbFaUpjeHXzDVu9dl9MnHi729frNmmO998y3VJ58YT9ddO9DUedWLIS/9m5vr1it6w+O1pQPA3umSxYukYF5ZvTzVKVFcKgyU7UwgTHouAL8jYP36dXaGAts0JrD3l5/prjtvp8zMTI1j1jc6fq/K3XeN1jcRE8aeoevjf8YbbEsHYM1XX9GpU/FSNEfUqyqlD2X7E6hR9woqUbK6lKGLPlwopQ9lZxOY+sKzlGXRGeU8yVr2NqvVSzs9w1qOWiDetnQAln36SSC7C11vUbYElvwtRARfmADPBWjQ/GY+VCzr1n5Fp08nKNaHonMJpKam0qaNGywN4PPVqyydf5nM8+p/rpwcmSBSuqFQtp0DwH9U679eK8XytnpVpPSh7BwCDZoPpfCIKMUGu1wu+uLz1Yr1oehcAkeO/EtcX6xM4KDkEutWtjUtI8PK2S8y77ZzANZ89YXU/TR+01+/alj1r8jagZNUPLYi1azXX4oEvyRIKgCUHUkg26JD/wULKzvbOU8D6Pv4X0Gqxh3bzgH4bNVKKXpXVa+ANf+liDlPuXHL4VJGb/12i/QcFKkEoAwCIGAogZzcXMoWo3uGJmpAYrZyALKzs+ibzRulsA2uVVFKH8rOI1CpWmcqWVr58tD8KODXa9c4DxQsBgGbEtB78l+osNnKAdi+bRvxKlpKYV5ULJralS+lVB16DiZQo15fKes3bFgvpQ9lEAAB8xKAA2Desjmbsw2Sz2D3F/f+w8POBscBCPgkULNuP5/XirqwadMGLApUFBicAwGLEcjJyaHsbJeOuQ5d1LYaAdgo2evqKxyA0KFHylYiULHqxd4JgUrzzOu479m9S6k69EAgIIFi1RtQuUuuUi2lO15BJdr3CCjhsSUD5sVJCmnp9nr2v2DZ2cYB4B/c33//raBtfo959n8HDP/7ZYSL5wiEhYVT9TqXnzuh4GjLls0KtKACAsoIlGzakaoOeUi1VBw0hsoPGBlQIstUUJYhh2jp/fhfKDHaxgH4/oft5HYrX6O5S8XSxG//CyV8pG0tAjXryc0D+OH77dYyELkFARAoRICH/nNycguds9MX2zgAsj+2XSuWsVM5whYDCFSp0ZVkFgXaseMHKafUABOQBAiAgAQB/Xv/EpnRQdU2DsBO8WMrw6fTRaVl1KELAhQRWUzqDYHJZ87Qb7/9CnIgAAIWJODxENl19n9+cdjCAeDXVO7d+0u+TQH3paIiqX7J2IB6UACB8wlcVLnd+af8fv9x926/13ERBEDAnAQys7IoV+dX/4bacls4AP/+e5i4t6UUZptyJQiP/ymlBb2CBCpUblPwa8Dj/fv3BdSBAgiAgPkIpKWnmy9TGufIFg7Ar5I/sq3KldQYI6JzCoGLJEcA4AA4pWbATjsR4AnlGRl6v+cg9MRs4QDs27dXimST0nFS+lAGgXwCvCRw8diL8r8G3O+TuDUVMDIogAAIGEKAJ/95yGNIWqFMxBYOwMG//pJi2KgU7v9LAYNyIQLlK7Ys9N3fl9OnEygx8bQ/FVwDARAwGYHUNP0X/zGDybZwAA4fPqSYZXR4ONUqUUyxPhRB4HwCJUvXPv+U3++HDymvn34jwkUQAAHdCfCz/y4bvvmvKHC2cAAO/fNPUbYVea5mXAxFhoUVeQ0nQUAJgRKlaihRO6tzCA7AWRY4AAGzE0hNzzAgi+ZIwvIOAHtqx48fU0yzeix6/4phQbFIAiVK1yzyvK+TMiNUvuLAeRAAAf0JuD0eSs+AA6A/aY1SOBUfT7m5ypdqrCZGADRKGtE4lIDsCMDRo0ccSgpmg4C1CKSJ3r/brf/kP7NQsfwIAE+ykoFZtXiMjDp0QeACArIOwOmEhAviwAkQAAHzEUhLc07vn+nbwAGQm2FdPiaK7YaoJSCGyFKTD5OTJTsrmaKiSygmKOukKo4YiiAAApoRyMp2UbYhk/80y3LQEdnAAZDrXZWNjgwampMjcLtdtPS9Do4XV3aq4mqQmJioWBeKIAACoSGQmmb/lf/OJ2t5ByA5Ofl8m/x+LwMHwC8fXNSeQBIcAO2hIkYQ0JBArttt2OQ/DbMddFSWdwCysuQWbIiLjAgamt0icMKKV6EsswwHzSoOJWekDQJqCXDvX9zdVBvcsuEs7wDwog0y9KMjLG+yjLkBdXcmpJDLQbNeAwLRQSElRbR0Ww8AABAASURBVG6USocsIEoQAAGfBDzEDoDPy5peMFdklm8Ns7OzpIhG4TWAZ3ntEo3/DZt+PvsdB/oQyM62/0tF9CGHWEFAfwJp6ZmUm+vWPyETpmB5ByDHlSOFNQqrAHp5cc9/sGj8c5w47uUlYNyHW9xfNC41pAQCICBDIMXAyX8y+TJC1/IOQJhkj96Zfl7hqpTf80fjX5iLXt/CwrD0tF5sES8IBEMgU4zOZWe7gonC0mEt7wBER0VLFUCOw+937xbD/uj5S1WZoJUjIjDxNGiIiAAEdCCQkmLko386GBBklJZ3AKKi5RwAJ09448b/egz7B/knIx88Li5OPhBCgAAI6ErA5cqljEy5p8h0zVAIIre8AxAj6QBkSLw3IATloVuSPOyPxl83vH4jjotTvmqg34hwEQRAQDMCKanKF/PSIlEzxmF5ByBWsnd1Jltu0qAZC002T5jwJ0tMW32MAGjLE7GBQLAE+AVyqenO7v0zQ8s7AOXKlWM7FMsZyacGFEdsUkXu+fOjfsFM+KsoEF/WjghyjkFsceUFXlayjiqPGZogAAJqCCSnpolgRr71TyRnws3yDkDZsqJ1kgB7Oss5IwDc+Ac74a+raPgPrQujNXMhBRnEFlNe6cqXr6BcGZogAAK6EnB73OS0t/75Auo4B+BwmjOGfXjCX7CNf5c2RGtFw++r8jj1PD81lJCk3PqyZcsqV4YmCICArgRSUtPJbfD6J7oaFETklncAylcoL2X+Pw5wAPief7AT/rpfTPT1O3h+vajKdSyeSOb3o3wFjAAUxRHnQMBoAtzwswNgdLpmTc/yDkCZMmWpRAnls6wP2dwB4J5/sPf8uef/5Ww0/r7+aP8+4utK0edr1KhZ9AWcBQEQMJRAirj3b/zKnIaaKJWY5R0AtlbmB5YdALtO/eDGP9iePzf+6PlzrfItv//j+1pRV2rWrFXUaZwDARAwkAD3/lPF8L+BSZo+KVs4ANUleliZuW46mWm/l7Og8Tfub+33v+VcyBo1ahiXOaQEAiBQJIHUtDTKDcF7OYrMjElO2sIBqFlLrof1T6q9JgLinr+xf02/HlSeHi8DXK16deUBoAkCIKA5AY/HQ05f9rcoqLZwABo1alyUbT7P/Z5sn/WfueePe/4+i1qXC7t/VR5tnbp1KTo6RnkAaIIACGhOgCf+hab3r7kpmkZoCwegSZOmUlB+SrTHEpDc+OOev1TRB638z1GiU4nKo2natJlyZWiCAAhoTsDt9lByCi/8o3nUlo/QFg5AY+EAhIUpn7VuBweAF/kJtvHnlf0w4U/ub3jXfjn9Ro2byAWANgiAgKYEuPF3e0LzInhNDdEhMls4ALzWusxM6z/ELYC0nFwdcBoTJd/zD3aRH37On1e2MybH9kll6265CYDNmjW3j/GwBAQsRoCH/Xnyn8WybVh2beEAMK02bdvxTpHwuvg/nEpWpGs2JR72xz3/0JXKph1yabduo7xeysUMbRAAgUAE8nr/ck57oDiVXze/pm0cgIsv7iBFe2v8GSl9Myhz4x/ssD+e81dfkqdFlfnlT+Xh69StRxUrVlQeAJogAAKaEcjJzSU89+8fp20cgPaSDsC3J8WvuX82prrKw/7BNv487I97/uqLdcP3RDKPEXfo0FF9YggJAiAQFIEzyankEf+DiiSIwFYIahsHoEnTZsRzAZRC35uUSsczrLEgEDf+wQ77c+OP5X2V1o6i9T7bJDeUeDEcgKJB4iwI6EzA5XJRWnqGzqlYP3rbOACRkZHU+ZIuikuEf8q/PnZasX6oFHnYP9jGn4f90fgHV4K5bqKvvpWLo8ulXeUCQBsEQEATAolnUjSJR30k1ghpGweAcffo0Yt3imWNyR0A7vlj2F9xceqquGUnEc8BUJpI/QYNqFat2krVoQcCIKARgYzMLMrMssborkYmq47GVg5Ar95XSIHYcjKJTme5pMIYpYyev1GklaWz6EseM1Kmy1o9e17OOwgIgICBBHjJ3yQT9P4NNDmopGzlAPBaADzzWimRHLeHVh9JUKpumB56/oahVpQQdyaWf61I9axSDzgAZ1ngAASMIpCWlkGunByjkrN8OrZyALg0+vXrzzvFsvxQvGJdIxS58Q/2nj8m/GlbUl+Ke/+JEstGlC5Thi7ponw+ira5RWwg4EwCHrebzqSYYZl36/C3nQMwYOA1UvR3JCTTviRzrBONYX+pojNM+Z2lcsP//fpfSVFR0YblDwmBAAgQJaWkEa/8BxbKCdjOAWjVug3VrlNXOQGh+d6BY+IztBs3/sFO+OPZ/njOX9tyPHiEaN02uTivvnqQXABogwAIBEWAh/1T08zxltegDDE4sO0cAOY3YODVvFMsKw7HU0IIJwPysH+wjT8P+6PxV1zkihXf/sQjtfhPuXLlxfD/pYrjhyIIgEDwBBLFPTqeABh8TM6KwZYOwA033ERhYcrfDpiV66YPD54ISclzzz/Ye/7c88dz/toXX1oG0XvL5eK97vobxPB/lFwgaIMACKgmkJ6RSZnZZnnsT7UZIQloSwegXv361LFTZymg88VtAH4qQCpQkMrc+Afb8+fGHz3/IAvCR/C3l8o9+8/R3DjkJt5BQAAEDCDAvX489qcetC0dAMZx8y238k6xnMjMptVHTinWD1YRw/7BEtQ3vCuH6M0P5Sb/tWvXnpri9b/6FgxiB4ECBHjWP7/0p8CpkB5aLXHbOgBXDbiaypQpK1Ueb/z6L+V65H70pRL4T5kb/2CH/fmeP4b9/wOqw+79FUSHj8tFfPMtw+UCQBsEQEA1AZ74l5yCiX+qAYqAtnUAYmJiaNjw24SJyrc/ktNp1WF9RwF42D/Yxp+H/dH4Ky9XWU0xGETPvy3nCFaocBFdM+g62aSgDwIgoJIAT/wjU73tT6UhIQxmWweAmY7832iKjo7hQ8Uyff8hcrnlfvyVRs49/2Dv+XPPH/f8lRJXpzdrEdERyTmhI/43iooVK6YuQYQCARCQIpCanoGJf1LEila2tQNQqVIlGnT99UVb7uPs36mZNO+A9usCoOfvA7jJTvMLf6a9J+cAFi9enIbfNtJkliA7IGBPAm63m8w48c+KtG3tAHCB3DlmLIWHy5n5mhgF0HJdAPT8uSSsIRPf9Ei99Y+tGnrLrcTP//MxBARAQF8CiUkpxE6Avqk4I3a5ltGCTBo2bEQDr76WZP6luHJp6i//yATxqcuNf7D3/HnYH/f8fSLW7MKPvxG9t0wuOh72H3vP/XKBoA0CIKCKQGZmNqVlZKgKq28ga8ZueweAi+WRcY9RZGQkHyqWJX+foK3xZxTrF6WIYf+iqJjznBhVpHuf91CuWy5/I0aOIr7VJBcK2iAAArIE3G4PJSQF95ssm6bd9R3hAPArgq8bfKNUWfJd4Am7DhCvEigV8D9lbvyDnfDHs/0x4e8/oDrvXltAtP0nuURiY2NpzN33yAWCNgiAgCoCSckplJubqyqs3oGsGr8jHAAunIceHic9S/uv1Ax6Zd8hDi4lPOwfbOPPw/5o/KWwq1Y+cJjo6bfY5ZOL4q6x9xI//icXCtogAAKyBHipX7zsR5ZaYH3HOADVq9egu+6+NzCR8zTm/HGEvpO4FcA9/2Dv+XPPH/f8zysInb7miA7FyCc9lJ4pl0CVqlVpzF3o/ctRgzYIyBPg5X5PJybLBzQshHUTcowDwEV09z33UbVq1flQsYjbTvTgjj8omdeGDRBqV0IKBdvz79qOCD3/AKA1vPz8XI/00D8nP+mpp4kf/+NjCAiAgH4EkpJTKScnR78EHByzoxwA/sF+ctIU6eI+mp5FD+/40++aUzzsP3jTz5QTxFLCPOy/dq7ytxhKG4IAhQhs2UU09Z1CpxR94RdNDRh4jSJdKIEACKgnkJWVTalpaeojMCCklZNwlAPABTXw6mvoij79+FBKvjqaQG/99m+RYTDsXyQWU588kUA0bLyH+BaATEajoqJp6rRXKCxMX0fN7XbTzh0/0JLFH9GC+e+bThYv+pC2fbcVk7JkKg90fRL47bdfaeknSwrV8/kfzKO5c+fQsqVLaPmnoZOVyz6hbVu3UGZmps/8W/WC4xwALqhnn59KJUqU4EMpeWnvoQseDeSef7DD/tzzx7C/VFEEpZztIrrxYQ8di5eP5r4HHiReW0I+pPIQ69auoUs7X0wDruxD9997N417+AHTyQP3jaVB11xFHdq3olUrVyg3DpogUIDA3l9+pgH9r6Ael11C99x9Z6F6/ugjD9JzT0+kF555KqTCebh/7Gi6svdlNP/9d4jnJJwzwdpHjnQAeB7AhCefki45Ht6//bv99Hty3huo0POXRmiKAA++6KFtP8pnpX6DBjT2nvvkA0qEWPThQrrt1qH0998HJUKFTvXY0aN0x+0j6K1ZM0KXCaRsSQI/fL+drh7Qj3bu3GGJ/KelpdKM116mpyc9bhsnwJEOANe2W4ePoC5duvKhlKS6comdgPXHTwc94Q89fyn0mii/+C7R20vlo4qKiqI33nxL+uVSMikd/OsAPTruIUsuc/rMlEn00497ZMyFroMJZGRk0B2jR1J6el5nykooPv9sBa1etdybZat/ONYBCAsLo9ffnEVly5aTLkN+YdCIb/cHPeEPj/pJow8qwJKviCbNkH/enxN9ZNx4atW6DR/qJnPnvEUuV7Zu8esZMc9ZmDnjDT2TQNw2IvDp0o/p+DHtX7pmFKL581TMHjYqcxLpONYBYEb8LPdrb8zUfUIXp1VQ8Jx/QRrGHK/7juj2SR5S85BGp86XkBEr/n275RtjYOiUytZvt+gUM6K1GwGr1/V//v6LTsWftHyxONoB4NK7vPcVxLcD+NgIwbC/EZQLp/HNTqLBD3ooS0Xnunz5CjRj5hyKiIgoHKkO3+Lj43WI1bgoExJO4akA43BbOqVTp05ZOv+cea7vvLeyON4B4MKb/PSz1LZtOz7UVdDz1xVvkZF/u5to0H0eysgq8rLfk9zovzlzNvFIkV9FjS66PZJvItIoXa2i4dnRLFrFh3jsS8DjtnZd55Lh2168t7LAARClFx0dQ+/MW0CVq1QR3/TZLhP+BR7104etr1g3fE804G4PpaicZzT+8SepW/cevqLHeRAAARCwNAE4AP8VH7/Sde7b83SZ5c2N/xqs8PcfaWN2qzbm9fxl1/jPz91VAwYact8/Pz3sQQAErETAHnmFA1CgHNu1v5imTntZ00mBfM8fjX8ByAYczl5CNORhdcP+nD2+HfT6m29pWg84XggIgAAImIkAHIDzSuPGIUPpkUfHn3dW3Vfu+eNRP3Xs1ITi24oTXvPQfS94KFflLcZatWrTvPkfSr86Wk1+EQYEQMCaBOySazgARZTk/Q88TCNHjS7iivJTkRFEd9yg73rxynNjf80zqWLI/34Pvfy+elt5TYgFHy6hChUuUh+JQSHj6rWkeo/MVi217n+NqtwxJaAUb6Sc3gpTAAAQAElEQVTv2gcG4UIyFiYQU7YUXfbOM6qly5zJ1PCFsQGl4gD5heEsjNWbdTgAXgwXfkye8iz1v3LAhRcUnuGXzNz8qIfuF71RNY+fKUwGaoLAvgNEXW/10JdBPIZesmRJ+nDRx1Svfn0Ro/m38OIlqHiNhqqlWPX6FF21TkCJiC1pfhjIoeUI5ObmKs5zeFQklWlUR7WUblSbYutWCyhRFcoozJN91OAA+ChLfgRs1uy3qWev3j40lJ1+S9yP7jHCQwePKNOHlhyB95YRXTrMQ7//LReuoHbx4sXpgwWLdF/pr2CaOAYBpxLIcrnIJeEAOJWTEXbDAfBDmdd/f+/9+VS3bj0/WoEv7dpP1OkmDy1fH1gXGsoIJCYTDXvMQ2Oe9pDamf6cUkxMDL07bwF17NSZv0JAAAR0JJDrdtOphCQdU9A/ajulAAcgQGlGRUXTmq830kUXBXdfmO9R88z02yZ46GRCgERx2S+BL74hajvYQx+v8asW8GJcXBwt+GgJnvUPSAoKIBA8AV4kKiEhCatFBo9SsxjgAChAGRsbRz/s/IlatmylQNu/yqIviFpd5yEeulazLr3/2O199VQi0ahJHrr2Pg8dC3LV3NJlytCij5epeiOkvSnDOhDQh0BSciplZqtYj1uf7KiM1V7B4AAoLM9oMVT8+Vdf020j/qcwhG81Hr7moevLR3no14O+9XAlj4AYNaS5nxC1HOShBavyzgXzWalyZVr66Upq1659MNEgLAiAgEICaekZlJKaplAbakYRgAMgQTo8PJyee2EaPTzuMQoLC/4RP16nvsMQD41/1UNiZEwiJ85R5eV8u9zioXue89DpM8Hb3aRJU1r9+Vpq2qx58JEhBhAAgYAEsl0uOp2kwR9vwJT0V7BbCnAAVJTogw+No5lvzdVksZhsF9H0D4gaX+Whp2Z4iEcHVGTJdkF+/C1vHf9+d3po96/amHdZt+60bOXnVLVaNW0iRCwgAAJ+CeTmuik+IZFwu9MvppBdhAOgEv3V1wyiT5atoooVK6qMoXAwfmHNC+8QNRngoefmEqU4dLTsh1+IrrvfQ52Gemjtd4UZBfNt1O130vyFi6lUqVLBRIOwIAACCglwo3/qdCKxE6AwiMnV7Jc9OABBlCmvGf/lmg3UoWOnIGIpHDQphWjKLA81EiMCvKztX/8Wvm7Hb3yPf/VmIu7t84I+fMw/HlrYGhsbSzNmzaEpzzxH/FinFnEiDhAAgcAEEhKTKIuHOAOrQiNEBOAABAmeXyH8yacr6a6779FkXkB+dvh+Ny9r2/waDw0c66FVG0n1+vb5cZptz7P6X19I1OJaj7fXz/f7tcwjr+q36vM1dO2g67WMFnGBAAgEIJCUnELpGZkBtKx12Y65hQOgQalGRkbSExMn07wPFlL58hU0iPFcFNw7XrOVaPCDYlTgSg89M9tDe/88d91qR5nZRCs25NlTp4+Hxr3soQOHtbfi5ltupa/WbiSe9Kd97IgRBEDAFwGe8Z/s1HuYvqCY9Hy4SfNlyWz1vqIvrd/0LV3Rp58u+f/3BAkHgKjdDR5qOtBDj033ED9JkKvyzXe6ZLKISJPTiJauzVu5r0ZPD934UN6IhiunCOUgT/ELfd557wOa9vKrxMP/QUaH4CAAAhIEsrKyKcGWM5klIFhIFQ6AxoXFKwbySMD0V9/QdcIZzw14dT5Rr/95qFZvj3eBHF5ciEcHeNRAY7OkosvIIq9jwqMVPUZ6qGp3D/GLkXjlPp7sKBWZhPKAgVfThs1bqV//qyRCQRUEQEALAq6cHIr3Ps/s0SI6xGEAATgAOkG+8aabadOW7TTw6mt1SuFctHwvnRfI4cWFeHSgcjePd0Ld5Jke+mwT0W9/EwnH/FwADY+4d//9z+Rd2fDBFz3eF/NU7OrxOibPzCb6bg8RvxlRwyQviKpK1arETtfsue9p9lTGBYngBAiAgE8CPNM/XvwQuT0mH470aYH/C3a9CgdAx5KtVKkSvTXnHfpw0SdUu3YdHVMqHDU3yjyh7vm3ia5/wEOtBnmoTGcP1e3roZ6iRz7yyby5BLMW5zXcPDzP6+tzGH5xUb5s+5Fo/XaileKe/fsr8tYr4EWL+CU83W7zUO0rPMSN/WXD817KM3MR0Y69RHoM7Re2MO8bv6eBJ19u3Pydbrdd8lLCJwiAgC8Cbje/3yRROPq5vlRw3qQE4AAYUDDde/QUowHb6MWXpms+SVBp9vmxuqMnibaKHvmHq/PmEjwwNa/h5uF5Xl+fH8O75GYP5Uv3ER7qP8ZDN4h79ndM9nhXLORFi3gof/tPRMdPKU1de72ul3Wjtes3eSdflixZUvsEECMIgEBgAh4iftbf5XIF1rWshn0zDgfAoLLlZ9BvGTacNn+7jW4fPYa492pQ0rZKpl37i2nJ0uW0+ONl1LBhI1vZBmNAwGoE+L5/pl73F60Gw4L5hQNgcKGVLVuOJj/9LH23fSf97/Y7NFlO2GATQpIcP87H9/hXfvYlXXrpZSHJAxIFARAoTMAd6hnHhbOjyzc7RwoHIESly+vRP/3M87R1W54jEBcXF6KcmDvZLl26epfwXbfhG+JZ/mFhwb+EydwWI3cgAAIgYAwBOADGcPaZSuUqVYgdgZ27f6GJTz1NNWvW8qnrlAt8u+TqawbRl2vW08efrqBel/fWdJVFp3CEnSAAAsESsHd4OAAmKd9SpUvTnWPupm+37aD33l9Affr2J24ITZI9Q7LBS/c+MXEy7dzzC82a/Ta1bNXakHSRCAiAAAg4kQAcAJOVekREhLfxZyeAG8KnpjxLLVq2MlkutcsOL5186/ARtGzFatq8Zbv3nQoVKlykXQKICQRAAARUErB7MDgAJi5hbghH3zGGvlq7gbb9sNt7i6D9xR0oPNzaxVapcmXitfoXLfmU9vy8n1548WXq2KkzhvlNXBeRNRAAAfsRsHZLYr/y8GkRzw24U9wi4FnwP/7yq3eIfMjQm6lq1Wo+w5jlQrFixYgn8014YhKtW7+Zdv+4z7tW/2XduhOPeJgln8gHCIAACJwjYP8jOAAWLGMeNudJcq9Mf4N27P7ZOzowY9YcGjlqNLVp05aio2NCalWNGjWpb78rvSMWq1Z/Rb/9+bd3Mt/d99xHTZs1D2nekDgIgAAIgEAeATgAeRws/cmjA9cOup6eefYFWv3lOvrz4GHasvUHmvvO+/TIo+Pp+sE3UqfOl1D16jWIX12shbGlSpXyNubc0PPCRjyMv3zl5/TrH3/T9h176N15872TGnnhHix6pAVxxAECIGAkASekBQfAhqXMjXzdevXoyqsG0AMPPkKvvzmLPl3+GX2/80c6eOgY7f5pP/Fb83jiHTfUr74+w7tMMS9V/OSkKcRD9c8+/6L3HI8y8AI8/D4DfiyP4/jjr8Pehp6H898VDT0vbMQT+Tp07KTrGxBtWFQwCQRAAARCRgAOQMjQhyZhvudeqVIlatSoMfHEO+7B33DjTcTLFLOMuWss8VD9iJGjvOd4ngEvwMPvM+DH8ngUAYsWhabskCoIgIBRBJyRDhwAZ5QzrAQBEAABEACBQgTgABTCgS8gAAIgAAJOJ+AU++EAOKWkYScIgAAIgAAIFCAAB6AADByCAAiAAAg4nYBz7IcD4JyyhqUgAAIgAAIgcJYAHICzKHAAAiAQagInjh+nV6e/RMNuvpH69elFfa/oaSq5ql9vGnnbMHr37TmUlpYWalxIXwcCTooSDoCTShu2goCJCSxZ/BFd0qkdvfjCc/T1urX0457d9NOPe0wlu3btpC+/WE1PTHiMLu3cnr7fvs3ERJE1EPBPAA6Afz64CgIgYACBz1atpAfuG0sZGRkGpKZNEidOnKChQ66nfXt/0SZCxGICAs7KAhwAZ5U3rAUB0xFIT0+nCeMfIY/HY7q8BcoQ5/3x8eMCqeE6CJiSABwAUxYLMgUCziHAw/3x8fGWNZhvA/x14IBl84+MnyPgtCM4AE4rcdgLAiYjYIch9H379pqMKrIDAoEJwAEIzAgaIAACOhKww2z6lJRkHQkhamMIOC8VOADOK3NYDAIgAAIgAAIEBwCVAARAAARAwPEEnAgADoATSx02gwAIgAAIOJ4AHADHVwEAAAEQAAGnE3Cm/XAAnFnusBoELEsgtspFFFu1omqJqVSOogNIVNmSluWDjIOAUgJwAJSSgh4IgIApCFz2zjN0+ZLpqqXpm+Oo6RuP+JVa9w4xha3IhDEEnJoKHACnljzsBgEQAAEQcDQBOACOLn4YDwIgAAJOJ+Bc++EAOLfsYTkIgAAIgICDCcABcHDhw3QQAAEQcDoBJ9sPB8DJpQ/bQQAEQAAEHEsADoBjix6GgwAIgIDTCTjbfjgAzi5/WA8CIAACIOBQAnAAHFrwMBsEQAAEnE7A6fbDAXB6DYD9IAACIAACjiQAB8CRxQ6jQQAEQMDpBGA/HADUARAAARAAARBwIAE4AA4sdJgMAiAAAk4nAPuJ4ACgFoAACIAACICAAwnAAXBgocNkEACB0BLIyc2l04nJoc2Eo1OH8UzAVg5AWloaLZj/Pt13z100dMj1dOPgayFgcLYO3D1mNM2a+SadPHmS6z4EBEJCIC0tnY6fPEXZOa6QpI9EQSCfgG0cgM2bNtIlHdvSuIcfoI+XLKKNG9bTN5s3QcDgbB1Y9ukn9PTkid56snDBB/l/A9iDgCEEcnPdFJ+QRAlJyeR2ewxJE4kUTQBn8wjYwgHY9t1WGnbzEIqPj8+zCp8g4IdAeno6PfLQ/QQnwA8kXNKUQFp6Bh0Tvf6MzExN40VkIBAMAcs7ADk5OfTwQ/eRy5UdDAeEdSCBpyZOgNPowHI30uQcca//5KnTlJB4RvT63UYmjbR8EsCFfAKWdwC2ffct/XXgQL492IOAYgI8Z2T5sk8U60MRBJQS8IgR/pS0NDp24hRlZqFzopQb9IwlYHkH4KeffjKWGFKzFYGfUX9sVZ5mMMblctHJ+ARKTEohD3sCZsgU8nCWAA7OEbC8A5ArbgGcMwdHICBHgH+s5UJAGwSKJsCNfVJyCh0XjX+WcAKK1sJZEDAPAcs7APUbNDAPTeTEcgQaNmpkuTwjw+YjkC0a/KNiuD85JU30+s2XP+QonwD2BQlY3gHo1r0nlS9foaBNOAYBRQQiIyPp6qsHKdKFEgj4I5CSmk65ubn+VHANBExHwPIOQGxsLE18aorpwCJD5icw+o4xVLdePfNnFDkEARDQhAAiKUzA8g4AmzP4hiE0afIzFBERwV8hIBCQwK3DR9D4CRMD6kEBBEAABOxKwBYOABfOHXfeRes2fEO3DBtOjRo1prJly1HpMmUgYHC2DnBv/+prBtHSZavohRdfhsPIfzgQEHAMARh6PgHbOABsGDf8L740nTZs3kp7f/2T9v/2FwQMztaBLVt/oFmz36bOl3Th6gIBARAAAUcTsJUD4OiShPEgAAIgAAI+kBKhiAAAEABJREFUCeDChQTgAFzIBGdAAARAAARAwPYE4ADYvohhIAiAAAg4nQDsL4oAHICiqOAcCIAACIAACNicABwAmxcwzAMBEAABpxOA/UUTgANQNBecBQEQAAEQAAFbE4ADYOvihXEgAAIg4HQCsN8XATgAvsjgPAiAAAiAAAjYmAAcABsXLkwDARAAAacTgP2+CcAB8M0GV0AABEAABEDAtgTgANi2aGEYCIAACDidAOz3RwAOgD86uAYCIAACIAACNiUAB8CmBQuzQAAEQMDpBGC/fwJwAPzzwVUQAAEQAAEQsCUBWzkAHo+Hvtv6Lb06/SV69pnJkCAZTJv6PK1auYLS09NtWfmtbFTWiX/oxMo5qiV+9XuUuHZxQMk6etB0mH5/bxntm7VItRxd+AUdXfilX0lY973p7E77Y7fq8ua6cuqL+QHLm+tEbvJpU9nuSk1XWdZ5deS32Uv8lnV+XUjesd9UdhuRGds4AL///hv1vaInXXftAHrxhedoxhuvQYJkMP2VaXTH7SPoko5tafVnq4yoj0hDIYHs+CMUv+4j1XJ6wyeUvOWzgOI6cVhhjoxT++vjL+nPhatUy4nlm+jkCv+S+O2PxhmkMKX0g3tVlzfXlcSNnwYsb64TualnFObIGLWc9EzVZc315MCHqwOWN9eHlJ//NMYgE6ViCwfgzz/+oKsH9KOffzLfH62Jylp1Vk6ePEmjR91GSxZ/pDoOBAQBEAABIwkgrcAELO8A8LD/A/ePpTNJSYGthYZqAsz5sXEP0dEjRwj/QAAEQAAErE/A8g7Arl07aeeOH6xfEhawIDMzkxYtWmiBnCKLViGQ7XJRVla2VbKLfFqGADKqhID1HYCdaPyVFLRWOnC2tCLp3Hhyc3MpJS2Njp9M8Ep2jsu5MGA5CISQgOUdAMxQN7b2pKamGpugg1KLiY62tLVRUVEUERFRpA1ut5tS0zLoRHwCHTkeT4lJKcS9f1aOjrK23WxDTHQM76QkygZ2R0WrKzuuK1KwJJWNUI9WUeZG5EsmDcs7ADVr1pKxF7pBEqhVq3aQMSC4LwK1atfxdckS52vWqkVhYWFn85orGv209AyKT0j0Nvqnk85QVvaFvf2q1WucDWPVg+o1a0pnvXLlKhQZGSkdzkwBqqssu2oqw5nFdi63KlWqmiU7qvNheQegR89eFBsbqxoAAsoR6Nf/SrkA0FZM4MqrBirWNaPilVcOpPzhfW9P/9hJSkg8QxmZWcSTSH3luetl3SkqWl1P0lecRp7nhrxJ0+bSScbGxVHHzl2kw5kpQLcel6vKTo9eV6gKpyyQ/lodOl1CXH76p6RvCpZ3AMqUKUv33f+QvpQQu5dAh46dqG8/OABeGDp83Dp8BNWpW0+HmPWPslKlyjToxqHenn6iGN4vqqfvKxcVLqpINw+7zddl05+/54FHKDxc3U/pmLH3k1WHktl5YVFTQO0v7khdunZTEzTkYbi8xox9IOT50CID6mqtFilrGMfYe++nYbda9wdEQxS6RdWseQua8/a8QkO8uiXm0IiLFy9O8xcsIqvd1uIGfNr0GVSsmPqRuNFj7qF+YgTBSkXPjf7d9z5IvXr3VZ3t+g0a0dPPvyTYFVMdRygCNhW/B1OemxZU0k898yK1bN02qDiKCqznuWLFitGU56dRg4aN9EzGsLht4QCEhYXR1Gmv0LwPFlKXLl3JDpNrDKsBfhIKCwujhqKiT3hiEq1a/RVVrFjRjzYuaUGgbr16tGbdRu+oltnnW3Cvf+iwEbRg8TJq2LhJUOaHh0fQpKdfoGenTqfWbdqZ+t44NwKXXtaDZr8zn4bdNioouzlwtx69aP6iZdT/qqupVOnSfMqUEhYWRvXqN6T7HhxHs9+eT6VLlwkqnyVLlqSZc+bRQ+MmeBvUcJWjKEFlQmFgLhcuHy6n7ipveyhMylA1WzgA+cSu6NOPPv50Bf19+Bjt/+0vSJAMmOPGb76ju++5z3I9lPw6YcU9/9g8On4Cfff9Ljp4KDR1+Zf9f9COPftoy/bd9PXm72ntxm2FZNN3u2jFF+vpXjH8XUbchtOKc6/efegt0bBu3ranUHrnpx+q7+s2b6eNW3fRS6/OoBat2mhlNtWoWYsmTnme1mz4jjZs2WFK27/Z/iMtXLKcbrrlNs3mbPBkusFDbvY6QNqUeeF6qkU94fLgcuHy4XLSrNBNEJGtHIB8nmFhYVS6TBlIkAwwkpJfo0K3j4mJMaQelyhZiqJiilEuhVF6Vg6lZrgox00UGRVDcSVKUMlSpQpJjNAlHf9xb/D8NM3wvUSJkjpanRd18djYQqzNYDfngRvrvBzq88nxczpmEy4PfSwOfazhoc8CcgACIGAkAZ6R73K5KCUtnU6dTqIjx096hY9T0zLIlZNjZHaQFghoRgARyRGAAyDHC9ogYDkCublu76N4Z5JTiZ/J//d4PB07mUCJScmUnpFJfN1yRiHDIAACQROAAxA0QkQAAuYhkJObSxmiUc9v7PN799zwn0lJ9ToCHrcY2zdPlpETENCIAKKRJQAHQJYY9EHABAR4ad2sbJd3ed3EpBQ6GX+aDh87SUdF7z5eDOvnN/a5ovdvguwiCyAAAiYkAAfAhIWCLIEAE+B79Tk5uZSZle29X594RjT0p05779f/Kxp7Xm3vdNIZcS2NMrOzCT17pgZxKgHYLU8ADoA8M4QAAc0IcA+de/J8Lz4lNZ1On0n23qc/euIUcSN/9EQ8nRSNfqK4X5+SKhp64QxwGM0ygIhAAAQcSwAOgGOLHobrRYB77rmi557lcnnvuaelpVNyShpxD55n2p8QDToP1R86csLbm+eePJ9PFI1/qnACeO38nJwc4nj0yiPiBQF7EYA1agjo4gDwj1e2uD8JcREYmJtBluhR8xB7QeEGmHvkLPw2O340Llk0zNyIJyWnUJIYij8tht650ebJddyAc0/9iBiWPywa9cNHRcMueu4nTiZ4e/MJovfO4VJED57j5DRzcnPF36tHCDYQAAEQCA0BXRyApORUOh6fAAED09cB7o3zEHtB4UadG3cWfpsdN/ZJonfOjTg7AcmiIWengBtzdhZ4CD9H9Pj59bceQqMemp8ypOpkArBdHQFdHAB1WUEoEAABEAABEAABowjAATCKNNIBARAAARDQgQCiVEsADoBacggHAiAAAiAAAhYmAAfAwoWHrIMACICA0wnAfvUE4ACoZ4eQIAACIAACIGBZAnAALFt0yDgIgAAIOJ0A7A+GAByAYOghLAiAAAiAAAhYlAAcAIsWHLINAiAAAk4nAPuDIwAHIDh+CA0CIAACIAACliQAB8CSxYZMgwAIgIDTCcD+YAnAAQiWIMKDAAiAAAiAgAUJwAGwYKEhyyAAAiDgdAKwP3gCcACCZ4gYQAAEQAAEQMByBOAAWK7IkGEQAAEQcDoB2K8FATgAWlBEHCAAAiAAAiBgMQJwACxWYMguCIAACDidAOzXhoAuDsCkCY9Q146tIWCAOoA6gDqAOoA6EGQd4DZVmya/cCy6OAA5OTnkcmVDwAB1AHUAdQB1QOM64Ly2hdvUwk23Nt90cQC0yRpiAQEQAAEQAAEQ0IsAHAC9yCJeEAABEAABzQkgQu0IKHUAymqXJGICARAAARAAARDQkUAZJXErdQBqKIkMOiAAAiAAAiCgHwHErJCAojZbqQOgME2ogQAIgAAIgAAIWIGAUgfgsBWMQR5BAARAAATsSwCWKSagqM1W6gAkKk4WiiAAAiAAAiAAAqEkkKQkcaUOgJK4oAMCIAACIAACOhFAtFoTgAOgNVHEBwIgAAIgAAIWIKCLAxAeHk7h4REQMEAdQB1AHUAd0KQOOLtNCdfFndAl1huGDKcpz06HgAHqAOoA6gDqAOpAkHWA21Q9PABdHAA9Moo4QQAEQAAEnEoAdutBAA6AHlQRJwiAAAiAAAiYnAAcAJMXELIHAiAAAk4nAPv1IQAHQB+uiBUEQAAEQAAETE0ADoCpiweZAwEQAAGnE4D9ehGAA6AXWcQLAiAAAiAAAiYmAAfAxIWDrIEACICA0wnAfv0IwAHQjy1iBgEQAAEQAAHTEoADYNqiQcZAAARAwOkEYL+eBOAA6EkXcYMACIAACICASQnAATBpwSBbIAACIOB0ArBfXwJwAPTli9hBAARAAARAwJQE4ACYsliQKRAAARBwOgHYrzcBOAB6E0b8IAACIAACIGBCAnAATFgoyBIIgAAIOJ0A7NefABwA/RkjBRAAARAAARAwHQE4AKYrEmQIBPQl4Ha76d/D/9DeX/bQvr0/0pF/DxGf0zdVxA4CMgSgawQBOABGUEYaIGACAllZmbRu7Wp64bkJ9NbMl+mjhe/ShwveoVkzXqKpzz1BX6/7nLKyskyQU2QBBEDACAJwAIygjDRAIMQE4uNP0Mw3ptHG9V9RelraBblJS0ulDV9/SbPenEanTp284DpOgICRBJCWMQTgABjDGamAQMgIpKQk07x3ZlJCQnzAPHDj/87cNyg5+UxAXSiAAAhYmwAcAGuXH3IPAgEJrFy+mM6cSQyol6+QIhr/z1Z+kv8VexAwmACSM4oAHACjSCMdEAgBgePHjtD+fT9Lp7x/30904vhR6XAIAAIgYB0CcACsU1bIKQhIE9i790fpMBzA4/GQ2rAcHgICagkgnHEE4AAYxxopgYDhBE6eOK46zWDCqk4UAUEABAwjAAfAMNRICASMJ5CZmaE60WDCqk4UAR1OAOYbSQAOgJG0kRYIGEygRImSqlOMiyuhOiwCggAImJ8AHADzlxFyCAKqCVSvUUt12Jo166gOi4AgoIYAwhhLAA6AsbyRGggYSqBZ89YUGRkpnWZkZBQ1bdZSOhwCgAAIWIeAUgfAYx2TkFMQAIF8AqVKlaZOnS/L/6p4f8ml3amkCKs4ABRBIGgCiEBDAorabKUOgNRMIpfLpaEdiAoEQCAYAr37DKDatespjqJOnfrU6/L+ivWhCAIgoC+B7Oxs2QQuXO+7iBiUOgApRYT1eSobLxTxyQYXQMBoAhEREXTriDHUvEWbgEm3bNVO6N5JHCagMhRAQEMCiMo3ARVtqqI2WxcH4Exykm9LcAUEQMBwAtHR0TRk6Ai6beRd1KRpC4qKijqbh6ioaHGuJY0YNZZuGDJcXIs+ew0HIAACoScgs5T3f7nV1AGQWhM0/uSJ//KAHQiAgJkI1G/QmG4edjtNnPwSPfb4M16ZOHmaODeK6tVraKasIi+OIgBj/RGIjz/p73JR1xStAKZ0BIC79Ipb9X///aeoDOEcCICASQiEhYVRiZKlvBIWFmaSXCEbIAACRRE4euRQUad9nTsmLnCbLXb+N6UOAMfyG38oEX6bWMKpwK8eVRIXdEAABEAABOxNANb5JsAj6snJZ3wrXHhFcVst4wBIvVVk376fLswWzoAACIAACIAACCgmwG/mVKycp6i48ZVxADbkxa3sc8+u71fRPAsAABAASURBVJUpQgsEQAAEQMDBBGC6PwJ7dv/g73JR1xS31bIOQG5RqRV17sSJY/TXX38UdQnnQAAEQAAEQAAEAhA48OdvdPKkovl8+TFxG70p/0ugvYwDwJMKpFyRjeu/CpQ+roMACIAACDiYAEz3TUBFG8ptdKLvGAtfkXEAOORC/lAqfx34nfbv+1mpOvRAAARAAARAAAQEgb2/7KGDB/8UR1LbAhltWQfgIxG51JqEq1ctpaysTBEMGwiAAAiAAAgUJIDjoghkZmbQ558tK+qSv3PcNi/2p3D+NVkHIEFEsFyI4i0p6TQt/3SRYn0oggAIgAAIgICTCSxb+hGpWP1vpWB2SojiTdYB4IhfEB+K3jQk9Lzbzz/tom82f+09xgcIgAAIgAAIMAHIhQQ2bVxLPPx/4RW/Z7hNft6vRhEX1TgAu0U8XwiR2tZ8uZJ27dwuFQbKIAACIAACIOAUAjt3fEfr1nymxlxuk3fJBlTjAHAak8SHW4jizePx0LKlH9J3325UHAaKIAACIAACdiUAuwoS2PLNeu/tcm4rC55XcMxtMbfJClQLq6h1AHaIaGYLkdrYsNWffeo10uVySYWFMgiAAAiAAAjYjYDLlU2ffvIhffn5cuI2UoV9c0QYbpPFTm5T6wBwKhPEh/QrikQY2vHDVnprxkt06J+D/BUCAiAAAiDgMAIwl+jvvw/QrDdfErfHt6nFwW3w42oDB+MA8GIDo0TCPPlA7OQ2Xilw7uxXaenHC+jUKbZBLjy0QQAEQAAEQMCKBOLjT9DHiz+gd+a8LrvSX0Fzue0dLU5wWyx28lswDgCntkp8vCJE1cbDHbt3fU+vT3+OFs5/m/bv+4lycnJUxYVAIAACIAACViHgvHzm5Li8s/sXfDDX2+b9uGeH2iH/fHivioMVQlRvwToAnPB48bFZiOrN7XZ7G392Ap57+jGa9+5MWv/1F8SPD/57+B9KOBVPKSnJlJGRDgEDTetASnIyJSYmQBzIICX5jKZ1Cb9P+H3mOsBtFbdZ3HZxG7Z+3RfeNu3ZKePpo4Xv0q/7fw624ee29lvx8ZiQoDYtHACezTdQ5GKPkKC37Oxs+vOPX4mhLf5oHr0182Wa/vLTNPW5J+jZKY9BwEDTOjD1+Sfo5RcnQxzIYOrzT2pal/D79JhinnZmxW0Vt1ncdnEbxp1ZbtN4sl/QDWReBPvEjtvcbLEPatPCAeAMnBEfVwrBrD4BARsIgAAIgAAI6EDgkIizj5DTQoLetHIAOCNHxUcXIT8JwQYCIAACIAACRRDAKZUEfhXhLhPyrxBNNi0dAM7QMfHRQ8hWIdhAAARAAARAAASCJ8DPCV4qovlHiGab1g4AZ4yHJnqKg9eFYAMBEAABEACBswRwIE1gvgjRSwi/jE/stNv0cAA4d1ni4z4hNwhJEoINBEAABEAABEBAOYFkoTpEyK1C0oVovunlAORn9GNx0EQIezC8aIE4xAYCIAACIOBMArBaIQF+I1BzobtYiG6b3g4AZ/y4+GAPhocwtotjbCAAAiAAAiAAAhcS+F6c4rZygNgfFqLrZoQDkG/ABnHQSUhvIXgloICADQRAAAScRAC2+iSwSVzhx/s6iv16IYZsRjoA+QatEwf8pEBtseeVjA6IPTYQAAEQAAEQcBIBfpyPJ8u3FkZ3F7JGiKFbKByAfAP5cYap4ksDIXyvgycN8rrGvNAB5gsIKNhAAARAwD4EHG0Jt2nctnEbx20dt3k1BRE+/lHsQ7KF0gHIN5jB7BVf2BO6RuxrCSkppK2Qa4UMEzJGCI8WQIjAQDkDHm0SVUf5VqpUGapUsSrEhgy4bJXXhLOa34kj/M0p/5sDqzxW3GZx28VtGLdl3KZx28ZtHLd13OZx2yeqV+g2MzgARVmfJk7uFrJcyAIhbwnh0QIIERgoY8B1pp2oN4q3qKho6tvnWrqi90CIDRlw2XIZK64QeYr8471QHOLvTtnfnU9ODmPIvz/cdnEbxm0Zt2kCgbk2szoA5qKE3FiRwEMi02WFKN6aNG5BMdExivWhaC0CXLaNG/HIq1S+uULwG0+lAkEZBKxAAA6AFUoJeZQlUEYEuEeI4o17ho0bt1SsD0VrEmjapBVFyzt5o4S1PGlZ7LCpI4BQZiQAB8CMpYI8BUvgYREBOwFip2xrIhp/7iEq04aWVQlw469iFCBa2PuoEGwgYCsCcABsVZwwRhAoJ0S6999EDP+LcNgcQICdPXYEJE39n9DHKICAoGZDGHMSgANgznJBrtQT4Hv/pWSCqxwWlkkCuiYiwI2/ilGAKGECz3AXO2wgYA8CcADsUY6wIo9AebGT6v2rbAxEMtisTECl0zdS2FxHCDYpAlA2KwE4AGYtGeRLDQG+98/P2yoOq7IhUBw/FM1JwDvps1EL2czxKACeCJClBn3TEoADYNqiQcYkCXDv/26ZMDExxUjFULBMEtA1MYGmTVqqeSLgNmFSXSHYFBKAmnkJwAEwb9kgZ3IExgl16d4/9wRFOGwOJMBlr2LyJ48CPO5AXDDZhgTgANiwUB1oUgVhMy+9KXbKNu79N2rYXJkytGxLgJ8IUPH4J7/eHKMAimoFlMxMAA6AmUsHeVNKQLr336xpK4qK4s6c0iSgZ0cCPArQuLH0AlBccSbYkQdschYBOADOKm87Wquq99+wAXr/dqwMamxq0rgFqRgFGC7SaigEmx8CuGRuAnAAzF0+yF1gAvxsdonAauc0mjVtjd7/ORyOP+JRgCZNWspyiBAB8ESAgIDNugTgAFi37JBzokoCgop7/81EMGwgcI6Ady5ATLFzJ5Qd8eteGylTdaIWbDY7ATgAZi8h5M8fAV6fPdafwvnXmjdrQ5GRfAv3/Cv47mQCXCfYCZBkwKMAeCJAEhrUzUMADoB5ygI5kSNQWajfIUTxVqxYcWrYAL1/xcAcpshzAYrFFJe1+mYRAKMAAsL5G76bnwAcAPOXEXJYNAG+96+i9x9ZdGw463gCeaMALWQ58CjAE7KBoA8CZiAAB8AMpYA8yBLg3v9omUDFi8dSg/pNZYJA14EEGjduQSpGAW4SqBoLwXaWAA6sQAAOgBVKCXk8nwDPvpYaq23elO/9o/d/Pkh8L0zAOwqg7okAjAIURolvFiAAB8AChYQsFiJQRXy7XYjizdv7b9BEsT4UnU2gcaMWxPNFJCkMEfpNhGAjIkCwBgE4ANYoJ+TyHAGedS3V+2/RrC1FRKD3fw4hjvwRiIyMJH5RkD+dIq7xXIAniziPUyBgWgJwAExbNMhYEQS49/+/Is77PMW9//r1cXvWJyBcKJJAo4Yt1IwC3Cgik55FKMLYbIM5ViEAB8AqJYV8MgG+zyrX+2/ejiLQ+2d2EAkCeaMArSRCeFX59xTvCPCiwIcVCHCFtUI+kUcQqCEQSPX+42JLUP166P0LbthUEGjUsLmaUYDBIinpdYVFGNtsMMQ6BOAAWKesnJ5TnvkfIwOheXO+98+3ZmVCQRcE8gjwKAC/NyLvm+JP/k3FKIBiXFAMJQGurKFMH2mDgBIC3PsfqUQxXycurgTVq4sF2vJ5YK+OAK8cqeKJAAePAqjjjFChIQAHIDTckaocAe5RSfX+W6D3L0cY2kUSUDkKECYiwxMBAgI2cxOAA2Du8kHuiGoKCCOEKN7yev+NFetDEQT8EeC5AMWLx/lTKeradeKk9CxCEcbSGzJvLQJwAKxVXk7MLc/8j5YxvGXzdhQejqotwwy6vglERERQ0ybSbTmPAkz0HSuugEDoCeBXMvRlgBz4JlBLXBouRPEWF1eS6uLev2JeUFRGoFHDZqRiFOBaEXtrIQ7ZYKbVCMABsFqJOSu/fB9VrvffAr1/Z1URY6zlUYBmTVvJJsajAJNkA0EfBIwiAAfAKNJIR5YA9/6HyQQqWaIU1a3TUCYIdEFAMQF+IiA2VnouwNUigfZCbL/BQOsRgANgvTJzSo75/qlU778Fev9OqRshsdM7CtBEekSfRwF4HktI8oxEQcAfATgA/ujgWqgI1BMJy/X+S5YWvf8GIhg2ENCPQIMGTUnlKMDF+uXKDDEjD1YkAAfAiqVm/zxzjylKxsyWovcfFobqLMMMuvIEvKMATaVHATghns/CewgImIYAfjFNUxTIyH8EuPd/y3/HinYlRe+/Tu36inShBALBEmhQX9UowACRbgchttxglDUJwAGwZrnZOdd87z9SxsBWLdtTGHr/MsigGwSBvFGANmpi4LqtJhzCgIAuBOAA6IIVkaokwN34oTJhufdfuxYPGsiEgi4IBEegQf0mauYCXClS7SjEZhvMsSoBOABWLTl75pt7SFK9/9YtL6Yw9P7tWRtMbBWPAjRvhlEAExcRsqaAABwABZCgYggBnsJ/k0xKpUuXpVro/csgg66GBOrXUzUK0F9kwVajAMIebBYlAAfAogVnw2zzimlSvf+WLfjePz9mbUMaMMn0BPJGAdqqyedTagIhDAhoTQAOgNZEEZ8aAtz7v1EmoLf3X7OuTBDogoDmBHguAL9/QjLivkL/UiE22GCClQnAAbBy6dkn75OFKVK9/7yZ/+j9C27YQkiA3zrZvBnWBQhhESDpIAjAAQgCHoJqQqCJiEWq91+mdDmqWQO9f8ENmwkI8FyAEnElZXNyhQjQVYilN2Te2gTgAFi7/OyQe773L1UP0fu3Q7HbxwYeBWiGJwLsU6AOskTqh9dBXOxsKt9vnyYM/EbI70IOhFAOi7Slev9Cn775dh0t/GgOBAxMUwe+/2ELV01ZuVwEOCIklH+D/BvAvwUvinzwOhxip3SDntUJwAGwegnK5f8Bob5XyMNCeBISOwM8lh4qqS7yIb253W6CgIGZ6oDH45aux/8FqCr2ofr743T5N4B/Cx4R+eDfhnvFHptDCMABcEhBCzNHCXlFiNRLdoQ+NhAAAWcQ4NdvvyZMHSkk4AYF6xOAA2D9MlRiQVmhxMP+YocNBEAABPwSeElcLSMEm80JwAGweQH/Z97VYo8/aAEBGwiAQEAC3GEY6F8LV+1AAA6AHUoxsA3NA6tAAwRAAATOEsBvxlkU9j2AA2Dfsi1oWVzBLzgGARAAgQAE/C5sECAsLluEABwAixQUsgkCIAACIAACWhKAA6AlTcQFAiAAArYnAAPtQgAOgF1KEnaAAAiAAAiAgAQBOAASsKAKAiAAAk4nAPvtQwAOgH3KUjNLqlStTlWr1TBGRFply5an4sVjKTo6hqKioiFgYNs6EC3qONf1suXKU1VR9436O6tUmRcc1OwnAhHZhAAcAJsUpJZm3H7H/XTX2EeMkXvG0UPjJtGEiS/QxMnTaNKUlyBgYNs6wHWc6/pDj0yiu0TdN+rvbNjw0Rr9RCAaOxGAA2Cn0oQtIAACIAACIKCQABwAhaCgBgIgAAJOJwD77UUADoC9yhPWgAAIgAAIgIAiAnAAFGGCEgiAAAg4nQDstxsBOAB2K1HYAwIgAALDPO7GAAADcklEQVQgAAIKCMABUAAJKiAAAiDgdAKw334E4ADYr0xhEQiAAAiAAAgEJAAHICAiKIAACICA0wnAfjsSgANgx1KFTSAAAiAAAiAQgAAcgACAcBkEQAAEnE4A9tuTABwAe5YrrAIBEAABEAABvwTgAPjFg4sgAAIg4HQCsN+uBOAA2LVkYRcIgAAIgAAI+CEAB8APHFwCARAAAacTgP32JQAHwL5lC8tAAARAAARAwCcBOAA+0eACCIAACDidAOy3MwE4AHYuXdgGAiAAAiAAAj4IwAHwAQanQQAEQMDpBGC/vQnAAbB3+aqybu7sV2nmm9MgYIA6YJM6MP/9Oap+CxDI3gTgANi7fFVZd+zov3T0yGEIGKAO2KQOnDh+VMVvAYLYnQAcALuXMOwDARAAARAAgSIIwAEoAgpOgQAIgIDTCcB++xOAA2D/MoaFIAACIAACIHABATgAFyDBCRAAARBwOgHY7wQCcACcUMpEKc4wE1aCAAhoRCBZo3gQjYkJwAEwceFomLVfNIwLUYEACNicgDDvZyHYbE4ADoDNC/g/81aKfaIQbCAAAiAQiMBpobBKCDabE4ADYPMC/s+8JLF/SAg2EAABEAhAgB4QCmeEYLM5ATgANi/gAua9J47vFZItBBsIgAAInE8gS5wYK+QDIdgcQAAOgAMKuYCJb4jjJkKmCtksZCeEwIDAwOF/B/xb8IJgwL8NM8Qem0MIwAFwSEEXMPMvcfyYkG5C2kMIDAgMHP53wL8F4wWDg0KwOYgAHAAHFTZMBQEQAAH/BHDVSQTgADiptGErCIAACIAACPxHAA7AfyCwAwEQAAGnE4D9ziIAB8BZ5Q1rQQAEQAAEQMBLAA6AFwM+QAAEQMDpBGC/0wjAAXBaicNeEAABEAABEBAE4AAICNhAAARAwOkEYL/zCMABcF6Zw2IQAAEQAAEQIDgAqAQgAAIg4HgCAOBEAnAAnFjqsBkEQAAEQMDxBOAAOL4KAAAIgIDTCcB+ZxKAA+DMcofVIAACIAACDicAB8DhFQDmgwAIOJ0A7HcqATgATi152A0CIAACIOBoAnAAHF38MB4EQMDpBGC/cwnAAXBu2cNyEAABEAABBxOAA+DgwofpIAACTicA+51MAA6Ak0sftoMACIAACDiWABwAxxY9DAcBEHA6AdjvbAL/BwAA//+sR6qHAAAABklEQVQDAMYVeUh5U7AyAAAAAElFTkSuQmCC;" parent="1" vertex="1">
          <mxGeometry x="725" y="490" width="70" height="70" as="geometry" />
        </mxCell>
      </root>
    </mxGraphModel>
  </diagram>
</mxfile>
